<svg width="165" height="15" viewBox="0 0 165 15" fill="none" xmlns="http://www.w3.org/2000/svg">
<g clip-path="url(#clip0_4802_11007)">
<path d="M25.1543 0.793633H26.9329V14.7176H25.1543V0.793633ZM140.158 6.41992H130.629V0.793633H128.85V14.7176H130.629V8.17865H140.158V14.7176H141.937V0.793633H140.158V6.41992ZM91.4416 11.6253L81.8407 0.793633H80.2055V14.7176H81.9798V3.67763L91.7956 14.7176H93.2201V0.793633H91.4416V11.6253ZM58.652 0.793633V14.7176H70.5329V12.9589H60.4305V8.32035H70.5329V6.56162H60.4305V2.55237H70.5329V0.793633H58.652ZM9.22315 9.72484H13.9856V11.2002C12.7508 12.2629 11.0144 12.8631 9.1515 12.8881C7.12849 12.8631 5.22771 12.1421 3.96333 10.8501C3.51376 10.4511 3.15448 9.96266 2.90899 9.41684C2.66351 8.87101 2.53736 8.28008 2.53879 7.68271C2.53585 7.07595 2.66103 6.47526 2.90633 5.91908C3.15163 5.36291 3.51164 4.8635 3.96333 4.4528C5.22771 3.19001 7.12849 2.46902 9.1515 2.48152C11.3347 2.46902 13.2987 3.27337 14.5588 4.59033L15.7684 3.32338C14.1837 1.70217 11.7856 0.710281 9.1515 0.722784C4.52387 0.710281 0.739158 3.82766 0.760231 7.68271C0.739158 9.29141 1.43457 10.8751 2.68209 12.1129C4.29628 13.7133 6.66067 14.6218 9.1515 14.6468C11.6002 14.6218 13.9098 13.7591 15.4818 12.2588L15.7684 11.9754V7.96611H9.22315V9.72484ZM117.543 10.2875C116.379 11.8337 114.243 12.8631 111.781 12.8922C109.762 12.8672 107.857 12.1421 106.593 10.8543C106.145 10.4541 105.787 9.96544 105.541 9.41988C105.296 8.87432 105.169 8.28396 105.169 7.68688C105.168 7.0798 105.294 6.4791 105.539 5.92253C105.784 5.36596 106.143 4.86557 106.593 4.4528C107.862 3.19001 109.762 2.46902 111.781 2.48152C113.851 2.46902 115.751 3.19001 117.045 4.4528C117.105 4.53338 117.178 4.60376 117.26 4.66118L118.47 3.39423C118.419 3.34838 118.356 3.27337 118.259 3.18585C116.679 1.61882 114.314 0.710281 111.781 0.722784C107.154 0.710281 103.373 3.82766 103.39 7.68271C103.373 9.29141 104.069 10.8751 105.312 12.1129C106.93 13.7091 109.295 14.6176 111.781 14.6426C114.318 14.6176 116.679 13.7049 118.255 12.1129C118.452 11.9552 118.621 11.7649 118.752 11.5503L117.543 10.2875ZM162.42 0.722784L158.222 6.77L154.028 0.722784H151.892L157.371 8.52873V14.7176H159.149V8.52873L164.624 0.722784H162.42ZM47.9132 0.722784L42.6491 12.1837L37.3893 0.722784H35.3958L41.8694 14.7176H43.4331L49.835 0.722784H47.9132Z" fill="#222B33"/>
</g>
<defs>
<clipPath id="clip0_4802_11007">
<rect width="163.864" height="14" fill="white" transform="translate(0.759766 0.720215)"/>
</clipPath>
</defs>
</svg>
