<svg width="139" height="23" viewBox="0 0 139 23" fill="none" xmlns="http://www.w3.org/2000/svg">
<g clip-path="url(#clip0_4802_7030)">
<path d="M3.19677 22.4527H1.25943C1.09778 22.4527 0.693359 22.4527 0.693359 22.2039C0.693359 22.0391 0.774486 21.9551 1.01665 21.8718C2.79477 21.2902 3.19617 20.295 3.19617 18.8862V4.02485C3.19617 2.69626 2.79174 1.70045 1.01665 1.03927C0.774486 1.03927 0.693359 0.873193 0.693359 0.790468C0.693359 0.458944 1.09778 0.541669 1.25943 0.541669H17.2552C20.8908 0.541669 23.8809 3.52725 23.8809 7.26482C23.8809 11.0024 20.8908 13.9842 17.2552 13.9842H9.1759V19.0479C9.25702 20.3759 9.66023 21.2871 11.3554 21.8699C11.5976 21.9533 11.6781 22.0366 11.6781 22.2021C11.6781 22.4509 11.2743 22.4509 11.1126 22.4509H3.19677V22.4527ZM122.452 14.401H126.25L122.452 7.75993L122.047 7.09564L118.657 14.401H122.452ZM122.452 0.456456H125.038L135.864 20.0493C136.188 20.5469 136.59 21.0445 137.074 21.2933C137.478 21.6261 137.963 21.7101 138.366 21.8749C138.529 21.9589 138.69 22.0422 138.69 22.2077C138.69 22.4565 138.286 22.4565 138.124 22.4565H128.51C128.349 22.4565 127.862 22.4565 127.862 22.2077C127.862 22.0422 128.025 21.9589 128.188 21.8749C128.672 21.7101 128.994 21.4606 129.156 20.963C129.318 20.3809 129.156 20.0506 128.752 19.3017C128.204 18.1037 127.639 16.9141 127.057 15.7327H118.008L117.928 15.8981C117.846 16.2309 117.202 17.3909 116.717 18.638C116.072 19.966 115.829 20.2975 115.991 20.9618C116.072 21.4594 116.475 21.7082 116.959 21.8743C117.122 21.9582 117.202 22.0416 117.202 22.2064C117.202 22.4552 116.797 22.4552 116.635 22.4552H112.191C112.03 22.4552 111.625 22.4552 111.625 22.2064C111.625 22.0416 111.707 21.9576 111.948 21.8743C112.353 21.7088 112.836 21.6255 113.241 21.2927C113.725 21.0439 114.13 20.5463 114.452 20.0487L115.018 18.8047L121.159 5.60223L120.269 4.02485C119.462 2.69626 118.653 1.86652 117.765 1.3683C117.361 1.1195 116.956 1.1195 116.554 0.953431C116.312 0.870083 116.23 0.786736 116.312 0.620663C116.312 0.45459 116.473 0.537937 116.554 0.45459H122.453L122.452 0.456456ZM98.2961 22.3688H98.6194C113.487 22.3688 113.326 0.536693 98.6194 0.536693H86.4196C86.1774 0.536693 85.7742 0.453346 85.7742 0.785492C85.7742 0.868217 85.9353 1.03429 86.0963 1.03429C87.8738 1.61523 88.2758 2.61167 88.3582 3.85753V19.0523C88.2782 20.3796 87.8738 21.2915 86.0963 21.8736C85.9353 21.9576 85.7742 22.041 85.7742 22.2064C85.7742 22.4552 86.178 22.4552 86.4196 22.4552H94.2568V22.3712H98.2961V22.3688ZM98.2961 2.11532C99.3878 2.11974 100.434 2.56711 101.206 3.36C101.978 4.15289 102.414 5.22707 102.418 6.34862V16.476C102.414 17.5976 101.978 18.6718 101.206 19.4648C100.434 20.2577 99.3878 20.705 98.2961 20.7093H94.2537V2.11532H98.2961ZM67.5111 14.401H71.3083L67.5111 7.75993L67.1067 7.09564L63.7164 14.401H67.5111ZM67.5111 0.456456H70.175L81.0017 20.0493C81.2439 20.5469 81.6483 21.0445 82.1332 21.2933C82.5364 21.6261 83.0226 21.7101 83.5069 21.8749C83.668 21.9589 83.829 22.0422 83.829 22.2077C83.829 22.4565 83.3447 22.4565 83.1836 22.4565H73.5726C73.4103 22.4565 73.0065 22.4565 73.0065 22.2077C73.0065 22.0422 73.0864 21.9589 73.3286 21.8749C73.7336 21.7101 74.1362 21.4606 74.218 20.963C74.379 20.3809 74.218 20.0506 73.8947 19.3017C73.3286 18.0577 72.6838 16.8946 72.1184 15.7327H63.0667L62.9862 15.8981C62.9057 16.2309 62.3396 17.3909 61.7754 18.638C61.2099 19.966 60.8872 20.2975 61.0489 20.9618C61.2105 21.4594 61.5332 21.7082 62.0175 21.8743C62.1786 21.9582 62.3402 22.0416 62.3402 22.2064C62.3402 22.4552 61.9364 22.4552 61.6949 22.4552H57.3304C57.1687 22.4552 56.6838 22.4552 56.6838 22.2064C56.6838 22.0416 56.8454 21.9576 57.0071 21.8743C57.4914 21.7088 57.8959 21.6255 58.3814 21.2927C58.7846 21.0439 59.2702 20.5463 59.5117 20.0487L60.0772 18.8047L66.2991 5.60223L65.4115 4.02485C64.6039 2.69626 63.7164 1.86652 62.9069 1.3683C62.4226 1.1195 62.0987 1.1195 61.6137 0.953431C61.4515 0.870083 61.2898 0.786736 61.3716 0.620663C61.4533 0.45459 61.6137 0.537937 61.6955 0.45459H67.5123L67.5111 0.456456ZM40.8478 14.9826C42.7065 15.6456 44.9689 15.8111 46.7458 15.2314L53.776 21.4575L54.3414 21.9551C54.3723 21.9877 54.3957 22.0269 54.4098 22.07C54.424 22.113 54.4285 22.1588 54.4232 22.2039C54.4232 22.4527 54.0187 22.4527 53.8565 22.4527H46.4237L40.849 17.7212L36.3235 13.9849V19.1325C36.4053 20.3765 36.8896 21.2902 38.586 21.8693C38.7476 21.9533 38.8281 22.036 38.8281 22.2014C38.8281 22.4502 38.4237 22.4502 38.2615 22.4502H28.4858C28.2436 22.4502 27.8392 22.4502 27.8392 22.2014C27.8392 22.036 28.0014 21.9526 28.1619 21.8693C30.0992 21.2062 30.3414 20.2098 30.4243 18.6349V4.27365C30.3432 2.78086 30.101 1.70045 28.1619 1.03927C28.0002 1.03927 27.8392 0.873193 27.8392 0.790468C27.8392 0.458944 28.2436 0.541669 28.4858 0.541669H44.2412C45.0971 0.537904 45.9452 0.707374 46.7373 1.0404C47.5294 1.37343 48.2499 1.86349 48.8576 2.48261C49.4654 3.10172 49.9484 3.83776 50.2793 4.64869C50.6101 5.45963 50.7822 6.32957 50.7858 7.20885V7.26482C50.7919 9.0397 50.1119 10.7444 48.8951 12.0044C47.6784 13.2644 46.0245 13.9765 44.2969 13.9842H39.1508C39.393 14.4818 39.9585 14.6485 40.4428 14.898C40.6051 14.898 40.685 14.9826 40.8472 14.9826H40.8478ZM40.8478 12.4094H41.4974C43.5976 12.4094 45.3758 10.0843 45.3758 7.09564C45.3721 4.1903 43.5946 1.86652 41.4974 1.86652H36.3229V12.4094H40.8478ZM13.7807 1.86714H9.1759V12.41H14.509C16.6886 12.41 18.3837 10.085 18.3837 7.09626C18.3837 4.19154 16.6886 1.86714 14.509 1.86714H13.7807Z" fill="#222B33"/>
</g>
<defs>
<clipPath id="clip0_4802_7030">
<rect width="138" height="22" fill="white" transform="translate(0.691406 0.45459)"/>
</clipPath>
</defs>
</svg>
