<svg width="89" height="110" viewBox="0 0 89 110" fill="none" xmlns="http://www.w3.org/2000/svg">
<path fill-rule="evenodd" clip-rule="evenodd" d="M0.803368 45.7074C0.771487 45.1873 0.771484 44.6786 0.771484 44.1592C0.771484 43.8231 0.782126 43.477 0.782126 43.141C1.15009 33.5799 4.45245 24.9939 10.1917 17.5436C19.8179 5.55762 33.7533 -0.560261 49.2802 0.9448C59.2211 2.0281 67.9699 6.15274 75.2886 13.3214C83.3772 21.4312 87.816 31.8583 88.2171 43.141C88.2497 43.6497 88.2497 44.1698 88.2497 44.6786C88.2497 45.014 88.2497 45.3607 88.2391 45.7074C87.8704 55.2578 84.5681 63.8432 78.8301 71.2934C69.2033 83.2801 55.2785 89.398 39.7523 87.9036C29.8014 86.8203 21.0526 82.695 13.7325 75.5164C5.64334 67.4066 1.21517 56.9794 0.803368 45.7074ZM87.3823 45.7074C87.9242 28.4371 77.6266 11.9027 61.4076 4.97313C56.3292 2.8072 50.8503 1.58376 44.9058 1.48612C43.3576 1.52929 41.5815 1.58309 40.0333 1.75644C25.8919 3.13132 12.444 12.4433 6.16341 25.3824C3.40236 30.8069 1.89731 36.7196 1.61569 43.1403C1.10692 60.4113 11.3933 76.9451 27.6135 83.864C32.6919 86.0292 38.1709 87.264 44.1147 87.3616C45.6643 87.3071 47.4384 87.2646 48.9873 87.0906C63.1392 85.7157 76.5758 76.4037 82.8571 63.4533C85.6175 58.0282 87.1332 52.1169 87.4042 45.7067L87.3823 45.7074ZM78.6773 21.1064L76.4138 22.6546L75.9807 22.46C75.3205 21.6802 74.7367 20.5763 73.9131 19.9042H73.7935L72.6352 20.9118L72.8736 21.204C72.6528 21.1372 72.4284 21.0829 72.2015 21.0413C72.0089 21.0163 71.8199 20.9691 71.6382 20.9005L71.5525 20.7922L73.9124 18.7027C74.8436 19.6339 75.5158 20.6952 76.3268 21.7022C76.7924 21.5075 77.2374 21.1608 77.6485 20.8148C76.5978 19.147 75.2122 17.4799 73.7929 16.0718L73.6202 16.1043C72.4173 17.1763 71.3891 18.3566 70.2082 19.3635C68.6826 17.9448 67.1881 16.4942 65.4665 15.3677L65.3144 15.1944C65.9321 14.3064 66.516 13.4183 67.1549 12.5635C68.0642 13.2456 69.0492 13.9929 70.0349 14.7288C70.3809 14.404 70.717 13.9597 70.9886 13.5917V13.4509C69.5912 12.1949 68.0967 11.1123 66.5478 10.1273H66.3426C65.5084 11.4371 64.5991 12.715 63.8944 14.0573L63.7649 14.1543C62.0008 13.0823 60.1809 12.0428 58.2647 11.263C58.6552 10.278 58.9794 9.2492 59.4675 8.28546C60.6259 8.75106 61.7079 9.39001 62.8563 9.85561L63.5709 8.51328C63.2794 8.16724 62.8343 8.01513 62.4451 7.79861C61.1347 7.15965 59.7923 6.56454 58.4175 6.09827L58.2879 6.17399L56.7184 10.5915L56.6202 10.646C55.5913 10.3212 54.5525 9.98579 53.5237 9.7148C52.5712 9.41126 51.5311 9.31363 50.5242 9.11903C50.6212 8.06894 50.8928 7.00755 51.0223 5.92492L51.1193 5.88174C52.2677 6.17399 53.4805 6.34735 54.6063 6.63959C54.7465 6.11953 54.9205 5.61076 55.0175 5.06944C53.2304 4.53788 51.3955 4.18239 49.5392 4.00806C49.3433 5.44803 49.1812 6.90992 48.976 8.36118C48.7694 8.09085 48.6073 7.76606 48.4659 7.46253C48.4558 7.38394 48.4339 7.30734 48.4008 7.23537C48.5748 5.90366 48.6293 4.50686 48.8564 3.22896C49.1055 3.13132 49.2456 3.25088 49.4947 3.25088C51.7149 3.51262 53.9097 3.95805 56.0563 4.58259C55.7647 5.55762 55.4611 6.54262 55.1908 7.52828C54.5293 7.47382 53.8691 7.18224 53.1763 7.0846C52.6854 6.9584 52.1859 6.86783 51.6819 6.81361C51.4873 7.30046 51.4873 7.87498 51.3578 8.40501C51.7808 8.55711 52.2451 8.57836 52.6682 8.7298C53.8485 9.02204 55.0175 9.3143 56.1758 9.68292C56.739 8.18849 57.1396 6.619 57.7028 5.11328C60.1065 5.82795 62.3482 6.88933 64.5785 8.0696L64.6549 8.14532C64.1567 9.04463 63.6467 9.98645 63.1498 10.8957C62.0991 10.3757 61.0702 9.75863 59.965 9.34684C59.7923 9.36875 59.7923 9.56337 59.7173 9.68292L59.2191 10.82C60.6472 11.5779 62.121 12.1949 63.4959 13.0829C64.4257 11.7512 65.1955 10.3 66.0723 8.97954C68.1944 10.2249 70.2082 11.7731 72.147 13.419L72.1251 13.5711L70.1763 15.7583H69.9598C69.1655 15.0412 68.3379 14.3619 67.4797 13.7225L67.3276 13.6907L66.3964 14.9466C67.6537 16.008 68.9961 17.1338 70.252 18.3141L73.674 14.9247C75.5576 16.7652 77.2573 18.8229 78.7517 20.945L78.6773 21.1064ZM79.6411 24.1384L79.1635 24.3981C78.9364 24.2248 78.6979 24.0627 78.4708 23.8893C78.9908 23.5971 79.4996 23.2936 80.0077 22.9801C81.0287 24.5718 81.9094 26.2492 82.6399 27.9934C82.5091 27.82 82.3789 27.658 82.2274 27.5278C81.8601 26.9001 81.2856 26.3475 80.7769 25.7956C80.4733 25.2323 80.1591 24.6591 79.7912 24.1391H79.6411V24.1384ZM9.62851 23.7698L12.0428 25.1885C11.902 25.3831 11.6848 25.5565 11.5228 25.7517C10.5265 25.1991 9.54149 24.6691 8.56712 24.0839C8.8587 23.445 9.22734 22.828 9.62851 22.2215C10.6999 20.5 11.9565 18.8973 13.3095 17.349H13.4283C14.1211 18.0205 14.9553 18.6807 15.6375 19.3197C14.9553 20.3698 14.0241 21.4092 13.3095 22.46L13.3314 22.557L13.5154 22.6872C13.2836 22.8685 13.0664 23.0677 12.8658 23.2829C12.6361 23.1276 12.4087 22.9688 12.1837 22.8067V22.6872C12.9521 21.6188 13.7355 20.5613 14.5336 19.515C14.2626 19.1251 13.8295 18.8979 13.429 18.5619H13.2344C11.8589 20.2077 10.5597 21.9187 9.62851 23.7698ZM8.92447 40.0007C8.85793 40.4683 8.80365 40.9376 8.76172 41.4081C8.46948 41.5057 8.0796 41.4513 7.75481 41.43L5.62209 41.2354C5.60017 40.1308 5.85988 39.0376 6.01198 37.933L6.09899 37.9005C6.22851 38.3442 6.33677 38.8104 6.55396 39.2216C6.4995 39.6334 6.45631 40.0445 6.43439 40.445C6.94383 40.5639 7.46324 40.6184 8.00455 40.6396L8.09157 40.0983H8.26425C8.52395 40.1847 8.7292 40.0983 8.92447 40.0007ZM8.76172 27.6141C8.58837 27.549 8.40441 27.4846 8.27489 27.3764C8.10154 27.3332 7.90626 27.203 7.73357 27.2568C7.39792 27.9177 7.08382 28.5893 6.79175 29.2706C6.31552 29.7362 5.86054 30.2018 5.46004 30.7219C6.02327 29.1411 6.66156 27.5929 7.44132 26.0991L7.56021 26.0553C8.19916 26.4133 8.88129 26.7268 9.55278 27.0622C9.28179 27.2349 9.02209 27.4195 8.76172 27.6141ZM46.8432 8.676C45.5341 8.6146 44.223 8.60751 42.9132 8.65475C42.7943 7.5502 42.7618 6.44565 42.7618 5.43873C43.9958 5.28663 45.0791 5.46065 46.3245 5.41681C46.4215 4.89741 46.4972 4.33417 46.3776 3.81411L46.3245 3.73839C44.6348 3.64142 42.7398 3.64142 41.0183 3.86791L40.8987 3.98746C41.0183 5.51378 41.1478 7.10585 41.3431 8.61091L41.1478 8.80553C39.0801 8.92508 37.142 9.44381 35.2464 9.83436C34.8785 8.82744 34.6619 7.7986 34.3591 6.79169L34.5105 6.6615C35.5606 6.4669 36.622 6.25037 37.6508 5.95746C37.5864 5.41614 37.4562 4.89674 37.3154 4.37668C35.5181 4.62575 33.8503 5.09136 32.2044 5.65459V5.95746C32.6375 7.42998 33.2113 8.84869 33.5468 10.3538C32.1068 10.8632 30.71 11.4045 29.3451 12.0428C29.2604 11.9889 29.1637 11.9568 29.0636 11.9493C28.9634 11.9417 28.863 11.959 28.7712 11.9996C28.4358 12.2919 28.0891 12.5522 27.7862 12.8338C27.2123 11.9239 26.7248 10.9382 26.2599 9.98579C27.3312 9.41193 28.4471 8.94633 29.5184 8.43689C29.4533 7.89558 29.2049 7.33235 28.8582 6.88867C27.1147 7.62459 25.3931 8.40435 23.7692 9.48765C24.5376 10.8951 25.415 12.2374 26.2599 13.6129C24.614 14.772 22.8924 15.8001 21.3874 17.1538L20.7491 17.717C20.045 17.013 19.3735 16.2013 18.6376 15.389C19.1789 14.7288 19.8936 14.2307 20.5545 13.6893C20.9224 13.3752 21.4206 13.1048 21.756 12.7362C21.4857 12.2919 21.1715 11.9027 20.8255 11.4802C19.0388 12.6386 17.458 13.9922 15.8879 15.6593C16.916 16.7101 18.2484 18.0411 19.2766 19.07L18.8116 19.5794C18.6383 19.6445 18.4756 19.7089 18.3135 19.7627C17.9017 19.9467 17.4906 20.1313 17.0894 20.3259C17.3059 20.0656 17.5337 19.8172 17.7609 19.5681L18.1939 19.07C17.0894 17.8678 15.9417 16.9585 14.8046 15.6593C16.6776 13.591 18.8648 11.9671 20.9762 10.375H21.1171L22.7629 12.7794V13.0065C21.7553 13.7425 20.7272 14.5003 19.8179 15.3339V15.4641C20.1427 15.8971 20.4562 16.2006 20.8248 16.6118C22.2542 15.5072 23.6722 14.3595 25.1773 13.3738C24.3112 12.0202 23.4988 10.6453 22.6653 9.29171C24.9069 7.9713 27.1154 6.73656 29.454 5.80536C29.8439 6.73656 30.2557 7.72222 30.5805 8.70722L30.5586 8.80486C29.4759 9.27046 28.3388 9.7148 27.31 10.3205C27.4621 10.8406 27.8081 11.2624 28.0466 11.7499C29.5551 11.0469 31.0862 10.3934 32.6375 9.79051C32.1719 8.24162 31.5874 6.75847 31.1437 5.18832C33.4066 4.5062 35.7127 3.8347 38.0732 3.49928C38.2898 4.47365 38.3223 5.55696 38.6365 6.5207C37.9975 6.75848 37.2828 6.75848 36.6439 6.96438C36.1783 7.02947 35.7127 7.12644 35.3016 7.3536L35.637 8.88057C36.3516 8.88057 36.9906 8.53387 37.7053 8.51261C38.6152 8.28479 39.5677 8.18782 40.4769 8.01447C40.4344 6.42306 40.1415 4.82036 40.0113 3.25021L40.0658 3.15258C42.4263 2.97989 44.8301 2.86033 47.1899 3.05494C47.2869 4.0406 47.0173 5.09069 47.0604 6.05443C47.1149 6.19524 46.9409 6.17399 46.8439 6.19524C45.837 6.15207 44.581 6.05443 43.6498 6.17332C43.5741 6.61767 43.5953 7.25596 43.6498 7.76474C44.8732 7.82983 46.0535 7.873 47.2338 7.92746L47.2012 8.01381C47.0817 8.23233 46.9621 8.45948 46.8432 8.676ZM83.3878 39.9794L83.4735 40.4995C84.0155 40.4669 84.5787 40.4238 85.0649 40.2723L85.0323 39.9362C85.1618 39.8711 85.3252 39.8499 85.4435 39.7635C85.5099 39.6772 85.563 39.5251 85.66 39.5032C85.7795 40.0877 85.834 40.629 85.8765 41.1597C84.8477 41.2361 83.7657 41.4088 82.7801 41.3337C82.7256 40.7598 82.6724 40.1747 82.5961 39.6015C82.6505 39.5902 82.705 39.5689 82.7482 39.5583C82.9003 39.7523 83.1274 39.9143 83.3878 39.9794ZM80.4208 43.9858C80.405 42.2324 80.2453 40.4832 79.9433 38.756C80.2249 39.0263 80.5178 39.2966 80.82 39.4487C80.994 40.6509 81.1455 41.8524 81.1561 43.141L81.2431 44.4182L81.3401 44.4833L85.8114 44.5159C85.8878 44.5809 86.028 44.5378 86.0499 44.6567C86.028 47.4828 85.6387 50.19 85.1506 52.7665L85.0755 52.8422C84.0898 52.5931 83.061 52.4417 82.0747 52.2251C81.8801 51.9329 82.1942 51.6619 82.1511 51.3378C82.3703 50.368 82.5186 49.3835 82.5947 48.3921C82.0753 48.278 81.5463 48.2128 81.0146 48.1975C80.7005 50.0918 80.4076 51.9761 79.9094 53.774C80.278 54.0656 80.8406 54.0444 81.3168 54.2396C82.3895 54.5106 83.429 54.8029 84.4784 55.127L84.5329 55.2034C83.7206 57.7798 82.8332 60.3356 81.5878 62.7393L81.4583 62.7938C80.6022 62.2956 79.6723 61.9051 78.8055 61.4408C79.1947 60.2811 79.8124 59.2317 80.2017 58.0508C79.6929 57.8236 79.1947 57.5526 78.6647 57.4875C78.0264 59.1766 77.1597 60.8005 76.3261 62.4251C77.7023 63.2374 79.0984 63.9415 80.4527 64.7538C80.1598 65.3921 79.7912 66.0098 79.402 66.6268C78.3187 68.3365 77.0634 69.9398 75.7097 71.4874H75.5902C74.8974 70.8272 74.0632 70.1563 73.3811 69.5167C74.0632 68.4673 74.9951 67.4385 75.7097 66.3771L75.6878 66.2801L74.4644 65.4134C73.4256 66.6913 72.3748 68.0442 71.2689 69.2789L70.8266 69.7665C71.9318 70.9693 73.0788 71.8786 74.2166 73.1771C72.3436 75.2461 70.1564 76.8707 68.0443 78.4621H67.9041L66.2576 76.0584V75.8299C67.2645 75.0946 68.2927 74.3368 69.2026 73.5026V73.383C68.8785 72.9393 68.5643 72.6464 68.1957 72.2246C66.7664 73.3285 65.3483 74.4882 63.8433 75.4626C64.7087 76.8155 65.5203 78.1904 66.3546 79.544C64.1129 80.8764 61.9051 82.0999 59.5765 83.0311C59.1753 82.0999 58.7642 81.1149 58.44 80.1392L58.4606 80.0316C59.5439 79.566 60.6804 79.1322 61.7092 78.5152C61.5571 77.9965 61.223 77.5853 60.9739 77.0872C59.4629 77.7881 57.932 78.4452 56.383 79.0579C56.8486 80.6054 57.4325 82.0793 57.8775 83.6488C55.6139 84.3415 53.3072 85.0017 50.9473 85.3484C50.7308 84.3641 50.7088 83.2808 50.384 82.3171C51.0223 82.0799 51.737 82.0799 52.3753 81.884C52.8409 81.8089 53.3065 81.7113 53.7296 81.4828L53.3835 79.9678C52.6689 79.9678 52.0292 80.3039 51.3159 80.3364C50.4053 80.553 49.4529 80.6506 48.5436 80.8226C48.5861 82.426 48.8896 84.0167 49.0092 85.5875L48.9547 85.6845C46.6054 85.8572 44.1904 85.9881 41.8299 85.7815C41.7329 84.8071 42.0033 83.7464 41.9594 82.7926C41.905 82.6418 42.079 82.6631 42.1759 82.6418C43.1835 82.695 44.4389 82.7926 45.37 82.6624C45.4451 82.2188 45.4245 81.5791 45.37 81.071C43.7786 80.996 42.2517 80.9415 40.7254 80.8439C40.4544 82.3914 40.4331 84.0924 40.1621 85.6188C39.913 85.7157 39.7722 85.5862 39.5238 85.5862C37.3047 85.3226 35.1104 84.8806 32.9623 84.2645C33.2658 83.2801 33.5574 82.2938 33.8284 81.3095C34.4893 81.3639 35.1494 81.6555 35.8422 81.7532C36.3311 81.8886 36.8313 81.9793 37.3366 82.0241C37.5312 81.5366 37.5312 80.9734 37.6614 80.4327C37.239 80.2806 36.7734 80.2587 36.351 80.1073C35.1813 79.8157 34.0011 79.5235 32.8427 79.1548C32.2801 80.6493 31.8896 82.2188 31.3157 83.7238C28.912 83.0091 26.6817 81.9478 24.44 80.7788L24.3643 80.7024L25.8694 77.952C26.9201 78.4621 27.9589 79.0778 29.0635 79.5009C29.2262 79.4683 29.2262 79.2737 29.3019 79.1548L29.8 78.0184C28.3707 77.2592 26.8982 76.6422 25.5233 75.7648C24.5921 77.0865 23.8236 78.5371 22.9462 79.8695C20.8348 78.6122 18.8103 77.0646 16.8722 75.4187L16.9047 75.2666L18.8428 73.0795H19.0594C19.8584 73.7944 20.6855 74.4773 21.5388 75.1265L21.6909 75.1484L22.6221 73.8911C21.3655 72.8417 20.0231 71.7039 18.7671 70.5237L15.3565 73.9237C13.4616 72.0725 11.7612 70.0149 10.2675 67.9047L10.3432 67.7307L12.7688 66.0842C13.5592 66.8639 14.1762 68.1737 15.1074 68.9329H15.2263L16.3847 67.9247C15.2263 66.4953 14.1218 65.0447 13.2337 63.4958L13.1361 63.4307C11.7612 64.265 10.3644 65.0221 9.0108 65.8564C7.54792 63.5937 6.38328 61.1516 5.54572 58.5908C5.74032 58.4181 6.04385 58.4181 6.21721 58.2666C6.92125 57.9956 7.68973 57.7579 8.42632 57.53C8.87 58.6884 9.30306 59.8687 9.92076 60.9745C10.484 60.9745 10.9277 60.5514 11.4471 60.3349C10.6773 58.6161 9.9943 56.8598 9.40068 55.0725C7.88499 55.5169 6.35802 55.9606 4.8317 56.4481C3.9005 53.7189 3.41298 50.655 3.14266 47.6767C4.17149 47.6116 5.25412 47.439 6.23979 47.5034C6.38059 48.857 6.47823 50.2857 6.82428 51.5855L6.90001 51.6832C7.46324 51.6612 7.98263 51.5098 8.47015 51.369C8.2317 49.4628 7.88566 47.6874 7.86374 45.7061L7.77739 44.4282L7.68042 44.3525L3.20841 44.3312C3.14332 44.2555 2.9919 44.2987 2.96998 44.1791C2.98127 42.3493 3.15395 40.5732 3.40302 38.8516C3.68464 38.8304 3.96627 38.7327 4.22596 38.6676C4.09578 39.4474 4.02006 40.2484 3.92243 41.0062C3.90117 41.8398 3.72782 42.6521 3.87925 43.4857C5.42749 43.5939 6.99764 43.5614 8.58905 43.6371L8.59967 44.8499C8.62159 47.3081 8.93508 49.7225 9.45515 52.0066L9.35751 52.1042C8.32934 52.2451 7.28988 52.4729 6.28296 52.7107C5.99072 51.2926 5.79546 49.7656 5.54638 48.3469C5.00507 48.3688 4.44181 48.412 3.95496 48.5634C4.17149 50.9452 4.63709 53.1112 5.25479 55.3203C6.60841 55.1243 7.88566 54.6269 9.20674 54.3127C9.47773 54.2908 9.78061 53.9879 10.0403 54.2157C10.5385 56.4999 11.5234 58.5894 12.5523 60.6471L12.4978 60.7766L9.77995 62.1528L9.64975 62.1203C9.06526 60.95 8.52395 59.7372 8.00389 58.5137L6.53138 59.0544C6.78046 60.2346 7.38685 61.3179 7.90625 62.4218C8.32867 63.1797 8.71922 63.9913 9.23796 64.706H9.37877L13.439 62.4218L13.5047 62.4657C14.6412 64.4038 16.0167 66.2981 17.4673 68.0416L15.1068 70.1311C14.1756 69.1999 13.5041 68.1385 12.7031 67.1316C12.2268 67.3262 11.7931 67.6723 11.3713 68.019C12.4321 69.6874 13.8076 71.3658 15.2257 72.762L15.399 72.7414C16.6012 71.6581 17.6407 70.4778 18.8103 69.4709C20.3366 70.8889 21.8417 72.3402 23.5526 73.4766L23.7041 73.6507C23.087 74.5274 22.5019 75.4148 21.8636 76.2709C20.9045 75.5516 19.9445 74.8334 18.9837 74.1163C18.6482 74.4304 18.3015 74.8741 18.0312 75.2421V75.3942C19.428 76.6382 20.9331 77.7215 22.4813 78.7072H22.6759C23.5095 77.4073 24.4194 76.1294 25.1341 74.7765L25.253 74.6795C25.6316 74.9066 26.0108 75.1338 26.4007 75.3616C26.509 75.5018 26.6279 75.6419 26.7687 75.7615C26.8876 75.8159 26.9201 75.9454 27.0065 76.0431C27.0284 76.0869 27.1147 76.0869 27.1147 76.152C27.7756 76.6502 28.4358 77.1364 29.2262 77.3648C29.6486 77.5375 30.1142 77.5701 30.5366 77.667L30.7093 77.679C30.3414 78.6314 30.0272 79.6277 29.551 80.5483C28.3926 80.0827 27.3206 79.4431 26.1616 78.9775L25.4469 80.3318C25.7392 80.6665 26.1828 80.818 26.5727 81.0352C27.8832 81.6748 29.2255 82.2699 30.6117 82.7362L30.7306 82.6598L32.3007 78.2429L32.3984 78.1884C33.4272 78.5126 34.4667 78.8593 35.4955 79.1303C36.4592 79.4232 37.4881 79.5208 38.495 79.7154C38.3974 80.7768 38.127 81.8262 37.9969 82.9095L37.8992 82.9533C36.7515 82.6604 35.55 82.4878 34.4129 82.1942C34.2721 82.7142 34.0987 83.223 34.0011 83.7637C35.7885 84.2959 37.6238 84.6519 39.4806 84.8264C39.6972 83.223 39.8705 81.609 40.1196 80.007C42.0577 80.2029 44.1692 80.2561 46.108 80.181C46.2375 81.2849 46.2601 82.3888 46.2601 83.397C45.0253 83.5491 43.9533 83.3751 42.6967 83.4296C42.5997 83.9383 42.524 84.5009 42.6429 85.021L42.6967 85.096C44.3864 85.193 46.2807 85.193 48.0023 84.9765L48.1218 84.847C48.0022 83.32 47.8847 81.7286 47.6781 80.2355L47.8847 80.0289C49.941 79.9093 51.8805 79.3893 53.7741 79.0001C54.1427 80.007 54.3692 81.0352 54.6628 82.054L54.5107 82.1736C53.4599 82.3682 52.3986 82.5847 51.3697 82.8869C51.4461 83.4289 51.5643 83.9377 51.7158 84.4577C53.5018 84.2087 55.1702 83.7431 56.8168 83.1798V82.8869C56.3837 81.4144 55.8085 79.9864 55.4744 78.492C56.4162 78.1559 57.3474 77.8098 58.2567 77.4193C58.4733 77.3867 58.7004 77.3442 58.9276 77.3336C59.2856 77.3011 59.6203 77.0845 59.9664 76.9862C60.4664 76.7659 60.9361 76.4821 61.3638 76.1421C61.8586 77.0345 62.3279 77.9409 62.7712 78.8599C61.6893 79.4245 60.5841 79.8888 59.5021 80.3982C59.5771 80.9389 59.8162 81.5127 60.1623 81.9458C61.9058 81.2105 63.6274 80.4307 65.2513 79.3474C64.4822 77.95 63.6048 76.597 62.7712 75.2221C64.4178 74.0638 66.1287 73.035 67.6331 71.682L68.2714 71.1188C68.9861 71.8321 69.6476 72.6444 70.3836 73.4461C69.8429 74.1183 69.1276 74.6044 68.4674 75.1471C68.0987 75.4613 67.6112 75.7309 67.2645 76.0995C67.5355 76.5432 67.8497 76.9437 68.1957 77.3555C69.9937 76.2071 71.5632 74.8542 73.1333 73.1758C72.0089 72.0338 70.8793 70.8969 69.7446 69.7651C71.2702 68.1199 72.863 66.3 74.1615 64.3839H74.3561C75.1684 64.9471 76.0345 65.4452 76.8468 66.0304V66.1599C76.0686 67.2203 75.2814 68.2742 74.4856 69.3215C74.7566 69.7226 75.2003 69.9392 75.5908 70.2852H75.7854C77.1603 68.6387 78.4601 66.9177 79.402 65.0766L75.3418 62.6948V62.4677C76.5433 60.5827 77.4094 58.537 78.2217 56.5005L78.3187 56.4255C79.2725 56.816 80.2787 57.1182 81.265 57.4869C80.8964 58.6671 80.3338 59.771 79.8357 60.9194C80.0409 61.2435 80.474 61.2435 80.745 61.4601C80.919 61.5145 81.1136 61.6341 81.2856 61.5896C82.2274 59.7179 83.0086 57.7784 83.5492 55.7102C82.0222 55.2446 80.4733 54.779 78.9583 54.3134C79.564 52.0504 80.0403 49.8633 80.2568 47.4376C80.5497 47.34 80.9509 47.3832 81.265 47.4051L83.3978 47.611C83.4303 48.9101 83.0617 50.188 82.9322 51.4872C83.3978 51.6599 83.9178 51.7037 84.4047 51.812C84.8278 50.556 84.9247 49.1267 85.0974 47.8275C85.1193 46.9939 85.2934 46.1816 85.1519 45.3481C83.603 45.2511 82.0229 45.2724 80.4315 45.1966L80.4208 43.9858ZM35.1707 76.7066C40.9851 78.3206 47.6874 78.3751 53.4911 76.773C53.5562 76.8056 53.6207 76.8381 53.6977 76.8587C54.0325 76.9351 54.3254 77.1297 54.682 77.1948C48.8783 79.0253 42.5658 79.2744 36.1883 77.78C35.4847 77.6194 34.7876 77.4315 34.0987 77.2167C34.4673 77.0646 34.824 76.8913 35.1707 76.7066ZM10.9708 43.141C10.5052 54.4236 15.9948 65.2194 24.9275 71.7046C24.9494 71.8567 24.982 71.9975 25.0252 72.1277C25.0252 72.3329 25.0471 72.5388 25.0903 72.7334C19.4811 68.8147 14.8796 63.1949 12.5735 56.9681C11.2199 53.4818 10.3425 49.6819 10.1911 45.7074H10.1154C10.0843 44.5337 10.1131 43.3592 10.2017 42.1885C10.4727 42.3725 10.7218 42.5565 10.9921 42.7298L10.9708 43.141ZM78.0377 45.7074C78.1308 43.5642 78.0114 41.417 77.681 39.2973C77.9407 39.276 78.1898 39.1352 78.4063 38.9619C78.6354 40.3446 78.7767 41.7404 78.8294 43.141H78.9045C79.0991 51.4892 76.3812 59.1015 71.5087 65.5435C69.105 68.5204 66.3446 71.0437 63.3232 73.0469C63.3657 72.9068 63.4527 72.7773 63.4972 72.6252C63.5178 72.3542 63.6267 72.1151 63.6918 71.856C64.226 71.4796 64.7532 71.0934 65.2733 70.6977C73.0463 64.4071 77.5296 55.657 78.0497 45.7074H78.0377ZM37.8454 11.5241C35.528 11.9677 33.3083 12.6718 31.2945 13.6136C31.1211 13.6893 30.9484 13.7757 30.7751 13.8521C30.6449 13.7757 30.5373 13.7 30.4177 13.6355C30.342 13.5811 30.2769 13.4947 30.2231 13.4516C30.1597 13.4209 30.1012 13.3808 30.0498 13.3327C33.0646 11.9006 36.276 10.9261 39.5783 10.4414C39.1339 10.6792 38.7009 10.9177 38.2678 11.1886C38.1335 11.3084 37.9925 11.4204 37.8454 11.5241ZM57.8449 42.9138C57.6609 42.9464 57.5414 43.0659 57.4544 43.1848C57.4218 43.2393 57.3793 43.3037 57.3468 43.3688L57.2817 43.5089C56.8586 43.942 56.4375 44.2993 55.8842 44.3644C55.2446 44.2674 54.6814 43.942 54.1513 43.5415C54.0365 43.4985 53.9247 43.4479 53.8166 43.39C53.697 43.3243 53.5782 43.2486 53.4586 43.1841C52.5168 42.5233 51.1844 42.6754 50.1024 42.8374C49.5498 42.8374 49.0623 43.0759 48.6405 43.3681C48.4948 43.4007 48.3605 43.4715 48.2513 43.5734C48.1411 43.6614 48.0358 43.7554 47.9358 43.855C47.884 43.8925 47.8369 43.9362 47.7957 43.9852C47.7519 44.039 47.6868 44.1147 47.6662 44.201L47.6542 44.2555C47.6542 44.288 47.6436 44.3206 47.6436 44.3638C47.6542 44.4826 47.7512 44.5697 47.9252 44.5258L48.0003 44.5152L48.1417 44.4607L48.3144 44.5477L48.3264 44.2767C48.3264 44.2661 48.3589 44.2442 48.4134 44.2116C48.4665 44.1791 48.5316 44.1466 48.5974 44.114C48.9321 43.8756 49.2357 43.7354 49.5923 43.6272C49.9384 43.5076 50.3395 43.4319 50.8496 43.3236C51.7476 43.3562 52.3115 43.4432 52.9279 43.6816C53.339 43.8762 53.6532 44.0934 53.9136 44.2987L54.0657 44.4395L53.9348 44.385C53.8411 44.3455 53.7433 44.3165 53.6432 44.2987C52.6045 43.9632 51.4986 43.7786 50.3402 43.8975C49.3765 44.0708 48.424 44.5477 47.7964 45.2617C47.7844 45.2837 47.7744 45.2943 47.7419 45.37C47.6948 45.428 47.6583 45.4939 47.6343 45.5646C47.608 45.6591 47.6197 45.7602 47.6668 45.8462C47.6252 45.8628 47.588 45.8887 47.5579 45.9219C47.5046 46.0094 47.4852 46.1134 47.5034 46.2142C47.5154 46.2899 47.5473 46.3656 47.5579 46.4413C47.6343 46.6366 47.7645 46.701 47.8834 46.7449C47.9259 46.7668 47.9803 46.7774 48.0341 46.7993C48.0962 46.8191 48.1549 46.8482 48.2082 46.8857C48.8464 46.9939 49.4097 47.2105 50.0387 47.3513C51.2176 47.7086 52.5825 47.5784 53.6333 47.0265C54.2284 46.7774 54.8242 46.4201 55.3648 46.0302L55.4738 45.9219L55.5814 45.8462C55.6139 45.8031 55.6252 45.7918 55.6903 45.7273L55.7873 45.5646C55.7753 45.4563 55.7547 45.3806 55.6903 45.3155L55.6252 45.2611L55.5163 45.1854L55.4512 45.1422L55.3097 45.0552L55.2446 45.012C55.6026 45.0226 56.0357 45.012 56.2084 44.9901C56.4468 44.8712 56.674 44.8167 56.8686 44.7297C57.0851 44.6434 57.281 44.5132 57.4318 44.2535C57.4643 44.2316 57.4982 44.2103 57.5188 44.1884L57.5839 44.1014C57.6277 44.0469 57.6603 44.0044 57.746 43.9393C57.7898 43.8523 57.8549 43.766 57.9093 43.6796C57.9638 43.582 58.0276 43.485 58.0614 43.3761C58.1365 43.2134 58.0495 43.0407 57.9093 42.9211L57.8449 42.9138ZM48.5761 46.2381C48.4891 46.2162 48.3921 46.2056 48.3051 46.173C48.1752 46.1402 48.0628 46.059 47.991 45.9459L48.0454 45.8921C48.1324 45.7081 48.2945 45.5885 48.5217 45.4484L48.6306 45.3507C48.5924 45.5064 48.5814 45.6675 48.598 45.827C48.6186 45.9678 48.6512 46.1192 48.6837 46.26L48.5761 46.2381ZM53.8379 46.2268C53.7953 46.2487 53.7522 46.2594 53.7196 46.2813L53.5781 46.357C53.5293 46.3828 53.4784 46.4045 53.426 46.4221L53.339 46.4433C52.4517 47.0285 51.1957 46.9415 50.0905 46.703C49.7219 46.6486 49.4522 46.3457 49.2782 45.999C49.2576 45.9445 49.2576 45.8907 49.2675 45.8044C49.2675 45.7067 49.2895 45.6204 49.3001 45.5228C49.3107 45.3494 49.2895 45.1442 49.0616 45.0359C50.2745 44.3106 51.9854 44.3432 53.2308 44.8951C53.2959 44.9383 53.3603 44.9815 53.4373 45.014C53.5011 45.0465 53.5881 45.0791 53.6525 45.111C53.794 45.1867 53.881 45.2518 53.9342 45.3282C53.9342 45.5121 53.978 45.7174 53.978 45.9014C53.9793 46.086 53.9468 46.1843 53.8379 46.2268ZM54.607 45.7612C54.5306 45.8044 54.4775 45.7718 54.4549 45.6855C54.4223 45.5015 54.607 45.6423 54.6933 45.631C54.694 45.6749 54.6289 45.7293 54.607 45.7612ZM58.082 41.7555C57.8223 41.788 57.5733 41.8418 57.3242 41.885C57.0751 41.9281 56.8261 41.9607 56.5876 41.9281C56.2337 41.9117 55.8823 41.8609 55.5382 41.7767C55.4261 41.7158 55.3105 41.6615 55.1922 41.614C55.0726 41.5708 54.9537 41.5383 54.8341 41.4944C54.597 41.4293 54.3579 41.3536 54.1414 41.2135C53.5357 40.975 52.8854 40.8342 52.2684 40.5852C51.8127 40.5201 51.3916 40.5526 50.9035 40.6283C50.6119 40.7479 50.2858 40.8455 49.9616 40.9425C49.6475 41.0508 49.3233 41.1803 49.0304 41.4081C48.9773 41.5383 48.8577 41.614 48.7388 41.6897L48.6419 41.7548C48.6093 41.7767 48.5768 41.798 48.5549 41.8199C48.4965 41.8714 48.4489 41.9339 48.4147 42.0039C48.1862 42.1985 47.9697 42.4263 47.7326 42.6209C47.5041 42.8268 47.2451 42.9995 46.9415 43.0865C46.8884 43.119 46.7795 43.1841 46.7469 43.303C46.8233 43.4326 46.9741 43.4551 47.093 43.4438H47.2995C47.3646 43.4438 47.4191 43.4438 47.5048 43.4551C47.7658 43.3688 47.9823 43.2167 48.1769 43.0327C48.3715 42.8487 48.5555 42.6541 48.7501 42.4695C49.1301 42.0364 49.5844 41.6791 50.1576 41.4951C50.3415 41.4845 50.4936 41.4194 50.6351 41.3437L50.8516 41.2354C50.9167 41.2029 50.9812 41.1809 51.0569 41.1491C51.1864 41.1816 51.3179 41.1816 51.4474 41.1816C51.5876 41.171 51.729 41.1597 51.8692 41.1597C52.1402 41.1491 52.3999 41.171 52.627 41.3224C53.1471 41.4194 53.5702 41.6259 54.154 41.7774C54.2955 41.8744 54.4575 41.9394 54.6096 42.0045C54.7617 42.0696 54.9118 42.1234 55.0208 42.1885L55.0958 42.1998H55.1722C55.1941 42.1998 55.2147 42.1998 55.2918 42.2324C55.7461 42.2968 56.1911 42.3845 56.6228 42.4057C57.0459 42.4276 57.467 42.3732 57.9007 42.1673C57.9771 42.1892 58.0203 42.1673 58.0528 42.1241L58.1179 42.0696L58.183 41.9826C58.183 41.9614 58.195 41.9288 58.195 41.9076C58.1916 41.8524 58.1797 41.7986 58.082 41.7555ZM40.184 56.3073C40.3899 56.2648 40.5958 56.2103 40.7904 56.1552C40.9963 56.102 41.191 56.0695 41.3862 56.0582C41.6028 56.0037 41.8299 56.0256 42.0464 56.0907C42.2736 56.1452 42.4901 56.2428 42.7286 56.3192C42.8368 56.2973 42.8807 56.1452 42.8581 56.0376C42.786 55.9424 42.6936 55.8644 42.5877 55.8091C41.9488 55.1815 40.8442 55.3435 40.097 55.6145C39.9668 55.6251 39.8267 55.6796 39.6859 55.7015C39.5557 55.7221 39.4474 55.7121 39.3604 55.5926C39.1871 55.4524 39.1552 55.2034 39.1871 54.9543C39.0682 54.8241 38.8729 54.868 38.7434 54.9869C38.6139 55.398 38.8085 55.7666 39.0356 56.0256C39.3724 56.3724 39.7835 56.3843 40.184 56.3073ZM47.6223 61.5052C46.9621 61.7204 46.2475 61.9383 45.5002 61.9695C45.1436 62.0565 44.7856 62.0459 44.4176 61.9914C44.0603 61.9383 43.7029 61.8513 43.3569 61.7968C43.0939 61.7749 42.8295 61.7749 42.5665 61.7968C42.3174 61.8187 42.0684 61.8619 41.8193 61.8938C41.3211 61.9589 40.8343 62.0027 40.3036 61.8832C40.1522 61.8832 40.0333 61.8181 39.9031 61.7536C39.8404 61.7132 39.7752 61.6768 39.7078 61.6447C39.6427 61.6228 39.567 61.5903 39.4806 61.5903C39.3398 61.5152 39.2535 61.6666 39.2429 61.7424C39.1997 61.8393 39.2316 61.9164 39.2754 61.9808C39.2973 62.0027 39.3186 62.0353 39.3405 62.0665C39.3618 62.0884 39.3837 62.1103 39.4056 62.1548C40.0984 62.7167 41.171 62.7499 42.0046 62.544C42.3075 62.4245 42.6216 62.4145 42.9577 62.4364C43.2825 62.457 43.6179 62.5015 43.9321 62.5015C44.5385 62.6855 45.1555 62.6636 45.7626 62.5666C46.3577 62.4696 46.9641 62.2956 47.5373 62.1435C47.6462 62.101 47.7864 62.0671 47.8953 62.014C47.9675 61.9877 48.0304 61.941 48.0765 61.8795C48.1226 61.8181 48.1499 61.7446 48.155 61.668C48.0886 61.4833 47.807 61.3213 47.6223 61.5052ZM49.9835 59.6754C49.9184 59.6003 49.854 59.5233 49.777 59.4482C49.6249 59.2961 49.4309 59.1666 49.1387 59.1666L49.0736 59.1872C48.8245 59.3506 48.9321 59.5671 48.9972 59.6747L49.041 59.7398C49.0517 59.7617 49.0517 59.7836 49.041 59.8162C48.705 59.967 48.3264 60.0653 47.9577 60.1304C47.4815 60.216 47.0159 60.1304 46.5397 60.0108L45.825 59.8162C45.5759 59.7617 45.3269 59.7073 45.0659 59.6966C44.763 59.7073 44.5139 59.8262 44.2974 59.9338C44.2004 59.9882 44.0915 60.0427 43.9832 60.0858C43.8862 60.1279 43.7842 60.1571 43.6797 60.1729C43.3874 60.0434 43.0846 59.9132 42.7485 59.8268C42.4124 59.7405 42.0444 59.7073 41.6658 59.7843C41.3517 59.8268 41.0488 59.9138 40.7566 59.9896C40.475 60.0659 40.204 60.1416 39.9443 60.1636C39.6627 60.1636 39.381 60.2061 39.1107 60.1961C38.9161 60.1961 38.7321 60.1636 38.5581 60.0221C38.5694 59.9895 38.5793 59.9251 38.5694 59.87C38.5687 59.8269 38.5574 59.7846 38.5366 59.7468C38.5157 59.7091 38.486 59.677 38.4498 59.6535C38.2333 59.5565 38.0599 59.611 37.9191 59.7199C37.854 59.7624 37.8002 59.8169 37.7458 59.8707L37.6701 59.947L37.605 60.0121L37.5625 60.0666C37.544 60.1191 37.5143 60.1669 37.4755 60.2067C37.4323 60.2612 37.3891 60.3037 37.3459 60.3482C37.249 60.4558 37.14 60.5973 37.1938 60.8669C37.2696 60.9865 37.421 61.116 37.6163 61.0941L37.692 61.0616L37.8653 60.8889C37.9127 60.8404 37.9676 60.8 38.0281 60.7693C38.1144 60.7474 38.2121 60.7693 38.3097 60.8238C38.9267 61.1911 39.5438 61.1273 40.1289 60.9639C40.4105 60.8889 40.6921 60.7799 40.9731 60.6823C41.2547 60.5966 41.525 60.5202 41.8286 60.4877C42.1102 60.4126 42.3699 60.4658 42.6296 60.5641C42.9112 60.661 43.1709 60.8118 43.4313 60.9314C43.7016 61.0283 43.94 60.9965 44.1566 60.9108C44.2648 60.8669 44.3625 60.8125 44.4488 60.7587C44.5352 60.7042 44.6222 60.6391 44.6979 60.5747C44.9682 60.3363 45.4444 60.4126 45.8449 60.5528C46.4195 60.954 47.3068 61.029 48.0116 60.8782C48.2825 60.7912 48.5847 60.7261 48.877 60.6617C49.1599 60.5966 49.4416 60.5309 49.7212 60.4233L50.0041 60.5853C50.1868 60.6943 50.3714 60.5853 50.4372 60.4332L50.4478 60.3363C50.3827 60.1742 50.3063 59.9902 50.1549 59.86C50.1031 59.8049 50.038 59.7398 49.9835 59.6754ZM42.7073 55.5175C42.8481 55.5826 43.0102 55.6371 43.1729 55.6796C43.335 55.7221 43.4977 55.756 43.6817 55.7885C44.0171 55.756 44.3744 55.6796 44.6999 55.5069L44.7537 55.4199V55.2678C44.7537 55.2027 44.7318 55.1164 44.5909 55.03C44.385 55.0194 44.1685 55.0413 43.9626 55.0413C43.7567 55.0519 43.5508 55.0626 43.3456 55.03C42.7823 54.9756 42.4363 54.5863 42.2842 54.0556C42.0464 53.3303 42.1321 52.6589 42.2955 51.9874C42.3712 51.6413 42.4576 51.3052 42.5333 50.9592C42.5984 50.6231 42.6528 50.2771 42.6741 49.844C42.6528 49.3784 42.5771 48.8696 42.5439 48.3496C42.5114 47.8408 42.5114 47.332 42.6528 46.8445C42.6203 46.4433 42.6416 46.0647 42.6635 45.6961C42.6854 45.3282 42.696 44.9708 42.6528 44.6029C42.6841 44.5474 42.7032 44.4858 42.7088 44.4224C42.7145 44.3589 42.7065 44.295 42.6854 44.2349C42.6741 44.1804 42.6528 44.1266 42.6422 44.0622C42.6203 44.0077 42.6203 43.9646 42.6203 43.9101L42.5877 43.8344C42.5333 43.7912 42.512 43.748 42.4901 43.6717L42.4576 43.6172H42.3925C42.3168 43.6172 42.263 43.6285 42.2191 43.6604L42.1434 43.7255L41.9594 43.8118L42.079 43.8663L42.0464 43.942C42.0033 44.6673 42.1115 45.3607 42.0677 45.999C42.0571 46.454 41.9594 46.8651 41.9163 47.2769C41.8512 47.6993 41.8405 48.1218 41.9707 48.5654C41.9926 48.8471 42.0252 49.1287 42.0464 49.4096C42.079 49.6806 42.0896 49.9622 42.0571 50.2326C42.0026 50.5029 41.9594 50.7958 41.895 51.088C41.8405 51.3697 41.7754 51.6513 41.6672 51.9329C41.5157 52.9179 41.4075 53.9574 41.9707 54.8348C42.1228 55.1708 42.3931 55.388 42.7073 55.5175ZM59.8581 13.6568L60.0202 13.7969C60.9088 14.4578 61.8726 14.934 62.9014 15.4103C61.9175 14.7744 60.9017 14.1891 59.8581 13.6568ZM47.6223 48.5329C47.6987 48.5873 47.7964 48.5329 47.7964 48.4359C47.72 48.2958 47.7525 48.1762 47.6994 48.0248C47.6343 47.8408 47.4609 47.7212 47.4178 47.5266C47.0817 46.9641 46.9077 46.347 46.7237 45.7293C46.6486 45.5779 46.5291 45.4477 46.367 45.4371C46.3158 45.473 46.2746 45.5215 46.2475 45.5779C46.2694 46.076 46.3996 46.5954 46.5935 47.061C46.8652 47.5804 47.0817 48.2194 47.6223 48.5329ZM44.9815 55.9406C45.0261 55.9708 45.0806 55.9825 45.1336 55.9732C45.2306 55.9293 45.3488 55.9068 45.5009 55.9068H45.9134C46.2594 55.8862 46.6267 55.8862 46.9734 55.8417C47.3314 55.7885 47.6781 55.6896 47.9491 55.4631C48.4034 55.2359 48.4147 54.684 48.3503 54.229L48.2307 54.0663C47.9817 54.045 47.8727 54.1745 47.8296 54.3479C47.8049 54.4294 47.7867 54.5126 47.7751 54.597C47.7532 54.6727 47.7425 54.7491 47.7206 54.8029C47.3195 55.3555 46.5417 55.388 45.8802 55.3435L45.036 55.5501C45.0154 55.572 44.9935 55.5826 44.9709 55.6045L44.8952 55.6577C44.8414 55.7121 44.8088 55.7772 44.8845 55.8862L44.9815 55.9406ZM43.4977 57.0764C43.3575 57.097 43.3788 57.2504 43.335 57.3474C43.7361 57.5745 44.31 57.8017 44.7324 57.4331C44.7862 57.3255 44.9058 57.2385 44.8732 57.097C44.8845 57 44.8081 56.9894 44.7324 56.9894C44.4289 57.196 43.8763 57.174 43.4977 57.0764ZM46.1724 58.2029C46.0203 58.1159 45.8689 58.0189 45.7068 57.9319C45.5436 57.8494 45.3679 57.7946 45.1867 57.7698C44.9058 57.6828 44.678 57.7479 44.4621 57.8449C44.3645 57.8887 44.2562 57.9432 44.1586 57.997C44.0616 58.0408 43.9746 58.084 43.877 58.1059C43.4114 57.813 42.9457 57.8675 42.5021 58.0295C42.2749 58.1165 42.0584 58.2135 41.8306 58.3224C41.6194 58.4194 41.4022 58.5026 41.1803 58.5715C41.115 58.6102 41.0396 58.6287 40.9638 58.6246C40.8881 58.6246 40.8011 58.604 40.726 58.5921C40.5633 58.5595 40.368 58.539 40.2385 58.7116C40.1953 58.7661 40.206 58.8206 40.2272 58.8637C40.2272 58.8857 40.2385 58.9063 40.3029 58.9833C40.736 59.1673 41.1797 59.156 41.6134 58.9939C41.7436 58.9614 41.8625 58.9069 41.9813 58.8538C42.1009 58.7993 42.2085 58.7448 42.3168 58.6904C42.5333 58.5934 42.7392 58.5077 42.9776 58.5177L43.0321 58.5071C43.1078 58.4951 43.1842 58.5177 43.2699 58.5602L43.4107 58.6147C43.4608 58.6416 43.5166 58.6562 43.5734 58.6572C43.606 58.6572 43.6491 58.6691 43.6923 58.6791C43.7355 58.6897 43.7893 58.7116 43.8331 58.7336C43.9307 58.7661 44.0496 58.7987 44.1904 58.7555C44.6341 58.3869 45.0566 58.4739 45.5002 58.6465C45.7287 58.7336 45.9559 58.8412 46.1943 58.9282C46.4314 59.0045 46.6805 59.0577 46.9522 59.0371L47.0272 58.9933L47.1242 58.9826C47.1567 58.9826 47.1893 58.9826 47.2331 58.9707C47.2756 58.9601 47.3082 58.9395 47.3407 58.8737C47.3626 58.7661 47.3301 58.5821 47.168 58.517C46.7781 58.5489 46.4759 58.3975 46.1724 58.2029ZM86.0937 37.6189C86.0937 37.045 85.8991 36.4599 85.8241 35.8867C85.6607 35.6701 85.7151 35.3779 85.5956 35.172C85.5531 34.62 85.1738 34.2189 85.0649 33.6995C84.7408 32.8872 84.3502 32.1838 83.8959 31.3927C83.8521 30.7976 83.787 30.2882 83.6349 29.7469C83.5379 29.6499 83.5167 29.5735 83.4403 29.4759C83.4197 29.3789 83.3433 29.2925 83.322 29.173C83.2556 29.1192 83.2457 29.0109 83.1806 28.9352C82.9421 28.4477 82.6279 27.8845 82.2268 27.5271C81.8376 26.8663 81.2199 26.2931 80.7011 25.7192C80.5816 25.6222 80.365 25.5133 80.2999 25.3831C79.7148 24.7767 78.9782 24.2573 78.2855 23.7266C78.114 23.6561 77.9536 23.5612 77.8092 23.445C77.4187 23.1853 76.965 22.9362 76.542 22.7091C75.6327 22.3305 74.8104 21.908 73.8566 21.5613C73.316 21.3667 72.7853 21.1389 72.2001 21.0413C71.6914 20.9981 71.2802 20.6952 70.8365 20.5325C70.4254 20.413 70.1424 20.0775 69.8077 19.8823C69.4716 19.5681 69.0711 19.3728 68.7569 19.0919C68.4654 18.8973 68.1618 18.7458 67.9446 18.4961C66.9703 17.7383 66.2131 16.4929 65.0647 15.8865C64.35 15.6806 63.5922 15.3126 62.8775 15.4103C61.8706 14.934 60.9069 14.4571 60.0182 13.7969C59.7266 13.5266 59.423 13.2988 59.0983 13.061C57.8529 11.7944 56.2509 10.9064 54.4203 10.8851C54.1288 10.9276 53.8352 11.0472 53.5536 10.9821C52.7639 9.62846 51.1392 9.48765 49.7969 9.01143C49.1148 8.75106 48.7461 8.09085 48.4645 7.46253C48.4439 7.27854 48.3244 7.13773 48.3124 6.92121C48.2487 6.7804 48.1072 6.68276 47.9777 6.61833C47.7817 6.53132 47.5765 6.65022 47.4357 6.76977C47.2956 7.18157 47.35 7.63588 47.1986 8.01514C47.0365 8.29675 46.8731 8.62154 46.721 8.88124C46.4069 9.35747 45.8337 9.73672 45.3787 9.81244C44.935 9.56336 44.4375 9.48765 43.95 9.37939C43.766 9.34684 43.517 9.37939 43.3436 9.33621C42.261 9.37939 41.1451 9.57399 40.3009 10.0615C39.5863 10.4408 38.9367 10.7762 38.2659 11.1873C37.7026 11.7286 36.9773 11.9671 36.4141 12.4758C36.0029 12.7143 35.732 12.9308 35.3314 13.1473C34.3571 13.8401 33.0685 14.3595 31.8232 14.2194C31.2925 14.2951 30.8269 13.862 30.4158 13.6349C30.34 13.5804 30.2749 13.4941 30.2211 13.4509C29.8206 13.2563 29.7775 12.7801 29.539 12.4871C29.3437 12.3895 29.4633 12.1298 29.3006 11.9996C29.2171 11.9622 29.1267 11.9428 29.0352 11.9428C28.9438 11.9428 28.8533 11.9622 28.7699 11.9996C28.0771 12.5954 27.3512 13.0716 27.0157 13.8839C26.7129 14.6092 26.3443 15.3565 26.4744 16.2551C26.1822 16.5042 25.7817 16.6443 25.4675 16.8941C25.251 17.0887 24.9156 17.2726 24.6771 17.5217C24.3955 17.8359 24.0382 18.1607 23.8436 18.5393C23.8761 18.6362 23.7678 18.6362 23.7353 18.6695C23.01 18.6914 22.1864 18.702 21.3854 18.7883C20.2921 18.9292 19.3171 19.416 18.3108 19.7627C17.3358 20.1851 16.3727 20.6507 15.4953 21.214C15.0729 21.4086 14.683 21.7553 14.3257 22.0256C13.8495 22.47 13.2643 22.8054 12.8425 23.3141C12.5284 23.617 12.2255 23.9206 12.0196 24.3211C12.1279 24.6133 11.7812 24.9055 12.0734 25.1327C11.8788 25.4469 11.4457 25.7066 11.3155 26.0971C9.96192 26.6597 8.83612 27.5364 7.68839 28.4357C6.61638 29.432 5.57692 30.3845 4.84033 31.6518C4.67761 31.7381 4.76463 31.9334 4.6019 31.9765C4.57002 32.0742 4.47238 32.128 4.41792 32.215C4.18014 32.7782 3.84404 33.2764 3.66006 33.8715C3.51925 34.0448 3.50797 34.2727 3.42163 34.4666C3.38908 34.5642 3.34591 34.6831 3.32466 34.7914L3.23831 35.257C3.19514 35.3653 3.27085 35.5061 3.14067 35.5712C3.08621 35.7007 2.99986 35.8853 3.0975 36.0148C3.03241 36.3609 3.19448 36.5993 3.32466 36.8484C3.31403 37.0762 3.0862 37.2277 2.99986 37.4223C2.84776 37.6062 2.71824 37.8447 2.5668 38.0287C2.46916 38.3422 2.76141 38.6025 2.94539 38.7971C3.42162 38.9492 3.90915 38.7433 4.36412 38.6245C4.99178 38.4836 5.51184 38.1369 6.10696 37.9098C6.29094 38.6025 6.46429 39.3823 7.10325 39.8592C7.43867 40.0538 7.87171 40.1083 8.26159 40.097C8.6621 40.2378 8.94373 39.9455 9.24726 39.8373C9.29043 39.8373 9.31235 39.8698 9.30173 39.913C9.21472 40.7034 9.52888 41.418 9.9513 42.0138C10.4382 42.328 10.8174 42.6528 11.3368 42.945C11.2936 43.3455 11.3913 43.7248 11.4564 44.0609C11.5859 44.2555 11.5859 44.5371 11.7267 44.7317C12.1923 45.7174 13.1242 46.2693 14.0228 46.7788C14.7049 47.0172 15.2788 47.1035 16.026 46.887C16.0692 46.8438 16.1668 46.8113 16.2206 46.8326C16.3614 47.3526 16.5454 47.8395 16.7838 48.3157C16.9247 48.4784 17.0329 48.6511 17.1299 48.7919C17.2382 49.1061 17.5092 49.3226 17.6931 49.5823C17.9748 49.9722 18.451 50.1123 18.7007 50.5461C18.9066 51.1525 19.4154 51.6938 20.0324 51.8997C20.0975 52.0186 20.314 51.9648 20.2815 52.1375C20.0756 52.3646 20.0756 52.7007 19.9135 52.971C19.9348 53.5017 19.8803 54.1838 20.1294 54.6707C20.1188 54.8547 20.249 54.9417 20.2815 55.125C20.2928 55.137 20.3247 55.1795 20.3679 55.1795C20.4542 55.6026 20.8115 55.7972 21.0825 56.0462C21.1908 56.4793 21.5156 56.8154 21.8404 57.1076C22.0569 57.2491 22.3385 57.3348 22.5876 57.4317C22.5876 57.5613 22.5876 57.6808 22.6307 57.7897C22.7065 58.1584 22.8034 58.515 22.923 58.8611C22.9662 59.1321 23.1395 59.3918 23.2803 59.5864C23.3667 59.8474 23.5839 60.042 23.6815 60.2791C23.5294 60.5176 23.4211 60.7992 23.3023 61.0483C23.0857 61.753 23.0638 62.3587 23.2478 63.0734C23.291 63.1704 23.2909 63.2899 23.3886 63.3769C23.6702 64.1892 24.4281 64.795 25.1972 65.1629C25.3918 65.4326 25.5001 65.7142 25.522 66.0503C25.6409 66.6248 25.4463 67.1761 25.3486 67.7287C25.3267 68.0203 25.2835 68.3889 25.1972 68.6599C25.1859 68.725 25.2078 68.7795 25.1646 68.822C25.154 69.255 25.0564 69.6018 25.0026 70.0129C24.9913 70.1544 25.0132 70.2194 24.9594 70.3058C24.9594 70.8896 24.8186 71.5717 25.0245 72.1243C25.0032 72.7195 25.2629 73.2608 25.3825 73.8134C25.8049 74.4636 26.1616 75.1989 26.768 75.8166C26.8869 75.8166 26.9194 75.9461 27.0058 76.0437C27.0277 76.0876 27.114 76.0876 27.114 76.1527C27.7749 76.6508 28.4351 77.137 29.2255 77.3655C29.648 77.5382 30.1135 77.5707 30.536 77.6677C31.3044 77.7115 32.2463 77.7647 32.9722 77.5601C35.17 77.0945 36.7508 75.535 38.7427 74.6151C39.393 74.4085 40.01 74.0731 40.7572 74.105C40.9193 74.2464 40.9412 74.5487 41.1146 74.625C41.3311 75.1013 41.7967 75.4148 42.2623 75.5994C42.6196 75.7515 43.0739 75.7515 43.5183 75.794C44.049 75.806 44.6228 75.7083 45.0778 75.4254C45.3594 75.3722 45.4019 75.1013 45.651 74.9611C46.1286 75.3178 46.7669 75.3942 47.3839 75.3942C47.6436 75.5124 47.9571 75.5343 48.2606 75.5018C48.877 75.2952 49.3426 74.8416 49.6581 74.2783C49.7763 74.0718 49.8952 74.3109 49.9928 74.3753C50.0799 74.4504 50.2213 74.4723 50.2525 74.5699C50.8051 75.0787 51.3252 75.5662 51.9535 75.9993L52.7658 76.4755C53.1019 76.5299 53.3835 76.7571 53.697 76.8541C54.1188 76.9524 54.4648 77.2227 54.953 77.2227C54.9955 77.2227 55.04 77.2991 55.0826 77.2346C55.3423 77.2878 55.6245 77.3203 55.8842 77.4173C56.2734 77.3967 56.664 77.5143 57.0532 77.4937C57.2478 77.4831 57.4218 77.4611 57.6058 77.5143C58.0495 77.4831 58.4726 77.3635 58.9262 77.3316C59.2842 77.2991 59.619 77.0825 59.965 76.9842C60.7561 76.6276 61.5358 76.1075 62.0665 75.4148C62.4451 75.2852 62.4126 74.8416 62.6723 74.625C62.7918 74.192 62.9977 73.7483 63.2574 73.369C63.2136 73.3252 63.2681 73.282 63.3 73.2721C63.2893 73.023 63.4308 72.839 63.4959 72.6218C63.5284 72.2638 63.7011 71.9497 63.733 71.593C63.9615 70.6937 64.0259 69.5679 64.0146 68.7456C64.1441 68.3126 64.0471 68.0309 64.1016 67.5872C64.0591 67.3588 64.0591 67.1642 64.0266 66.9257C63.9827 66.6561 64.0472 66.407 64.1123 66.146C64.2092 65.8863 64.3407 65.6697 64.4377 65.4107C64.4377 65.2586 64.5898 65.1722 64.5898 65.0095C64.9246 64.5539 65.1205 64.0239 65.4553 63.6121C65.4878 63.4281 65.5967 63.2879 65.6293 63.1139C65.7694 62.8323 65.889 62.5626 65.9328 62.2372C65.9753 62.1402 65.9208 61.9881 65.9859 61.8805C65.9653 61.4475 66.0185 60.9387 65.9328 60.5156C65.9209 60.0613 65.6944 59.7152 65.6718 59.2822C65.9753 58.9461 66.0623 58.513 66.2138 58.1019C66.2244 57.7439 66.3539 57.4092 66.2994 57.0512C66.419 56.8346 66.603 56.7695 66.6794 56.5205C66.8195 55.9366 66.961 55.2213 66.7976 54.593C66.8195 54.3552 66.6468 54.1706 66.6794 53.9434C66.8946 53.9547 67.1111 54.0298 67.3502 54.0623C67.9353 54.041 68.5411 54.2144 69.1156 53.9972C69.3753 53.7913 69.6563 54.0842 69.9704 54.0623C70.2846 53.976 70.5111 54.2144 70.8578 54.1274C71.0418 54.0736 71.0318 53.8783 71.0743 53.7056C70.62 53.4672 70.5762 53.0129 70.3065 52.6442C70.003 52.0597 70.4792 51.454 70.5436 50.8469C70.5436 50.7712 70.6406 50.7387 70.62 50.641C70.8797 50.208 70.9986 49.6992 71.1932 49.2555C71.2151 49.1579 71.3227 49.0603 71.3128 48.9633C71.5074 48.671 71.6269 48.335 71.7458 47.9995C71.886 47.6748 71.9404 47.2636 72.0374 46.9275C72.1995 46.3862 72.1789 45.8987 72.1344 45.3036C72.1237 44.8054 71.9617 44.3398 71.7883 43.9181C71.7133 43.8523 71.6914 43.7341 71.6688 43.6577C71.7352 43.7334 71.8853 43.582 71.9942 43.6577C72.8165 43.6358 73.3917 43.0081 73.856 42.3692C73.8354 42.3047 73.8998 42.2828 73.9324 42.2397C73.9649 42.0338 74.1269 41.8604 74.1708 41.6332C74.0512 41.244 74.5168 41.1245 74.7001 40.886C74.993 40.2258 75.2421 39.5112 75.1452 38.6988C75.1983 38.5255 75.3823 38.5149 75.5138 38.3741C75.5669 38.3415 75.6646 38.309 75.729 38.3634C75.8054 38.3203 75.913 38.4172 76.0106 38.4498C76.4437 38.8397 76.8229 39.5543 77.5376 39.294C77.9932 39.3265 78.4263 38.9911 78.7079 38.6557C78.7185 38.4717 78.945 38.4285 78.945 38.2439C78.9669 38.125 78.9776 37.9735 79.0971 37.8978C79.2167 38.0061 79.3581 38.1795 79.4551 38.3203C79.9519 38.7101 80.4295 39.3165 80.9821 39.5224C81.2192 39.7171 81.5985 39.6194 81.8801 39.7496C82.173 39.6526 82.4652 39.6526 82.7468 39.555C82.9209 39.7715 83.2025 39.9555 83.4941 39.9987C83.6561 40.0744 83.8726 40.1069 84.0247 40.172C84.3283 40.1827 84.588 40.0531 84.9015 40.0312C85.031 39.8685 85.2801 39.8685 85.4421 39.7609C85.5086 39.6745 85.5617 39.5224 85.6587 39.5005C85.7782 39.6307 85.9516 39.7715 86.1688 39.7715C86.2983 39.901 86.3959 39.7064 86.4929 39.6745C86.4079 38.9831 86.0838 38.3661 86.0937 37.6189ZM70.361 21.4312C71.0431 21.7022 72.5276 21.4637 73.8055 22.1239C74.9638 22.719 76.1328 22.99 77.2055 23.7804C77.8218 24.2354 78.4714 24.6904 79.0998 25.134C79.576 25.6322 80.28 26.2711 80.8326 26.661C81.3959 27.1705 81.6875 27.8738 82.2181 28.3613C82.3151 28.6968 82.6512 28.9027 82.6838 29.2607C82.8458 29.347 82.7708 29.5423 82.9222 29.6393C83.0949 29.9308 83.2138 30.2563 83.2138 30.603C81.0266 28.7838 79.295 26.5096 76.6197 25.3081C72.1257 22.5683 62.76 23.987 60.5283 20.6521V20.5113C62.8038 21.9512 64.9571 21.4962 67.5568 21.378C68.033 21.4106 68.466 21.4537 68.8878 21.378C69.2245 21.2365 70.0143 21.3016 70.361 21.4312ZM69.376 20.6082C68.0761 20.7816 60.5183 21.3448 60.6598 19.1895C62.3913 18.7239 64.1574 18.356 65.9653 18.5506C66.5717 18.4104 69.0625 20.0995 69.376 20.6082ZM66.2151 17.6851C65.62 17.9016 64.8933 17.7177 64.265 17.7821C63.3657 17.8684 62.479 18.1394 61.5916 18.1939C61.3532 18.2158 59.783 18.5838 59.7186 18.692C59.6748 18.7677 59.9458 19.428 59.9664 19.6119C59.5121 20.1645 57.91 20.8248 57.1841 20.7384C56.3073 20.8141 55.5169 20.2941 54.6508 20.3372C52.8648 20.4243 51.6633 21.4092 50.1144 21.7015C50.7321 20.7597 51.8904 19.7634 52.7572 19.0487C56.47 15.9954 56.7955 18.5937 60.6611 16.916C62.934 15.9197 64.4171 15.7357 66.2151 17.6851ZM73.4913 31.0248C73.3392 31.1656 73.1008 31.1549 72.9387 31.2958C72.7222 30.6568 72.2885 30.7219 71.9318 30.3108C72.4406 30.2782 73.9025 30.4728 74.2266 30.8846C73.9675 30.8733 73.7504 31.0354 73.4913 31.0248ZM76.8575 34.3816C74.7998 34.3816 74.032 36.1895 72.3429 36.8066C72.2991 35.5399 71.2271 34.4892 72.3854 32.7464C72.6139 32.4216 72.96 32.1506 73.3166 31.9666C75.3969 30.862 76.2736 32.7463 76.8575 34.3816ZM69.6031 29.2706C69.5925 29.2706 69.4736 29.2275 69.4736 29.26C68.9104 29.0322 67.4591 29.0435 66.8753 29.2055C63.5178 30.1155 60.5615 27.9389 58.4507 25.5784C58.1591 25.243 57.8004 25.1347 57.5195 24.8531C58.6028 24.5608 59.696 24.0733 60.8325 24.0089C62.0247 23.9438 63.3013 24.4094 64.4815 24.5715C65.705 24.7342 66.8959 24.6691 68.1207 24.7554C69.0625 24.8205 70.5675 25.156 71.3148 25.7298C71.6608 26.0008 72.1696 26.2499 72.4632 26.5747C73.134 27.3219 73.5996 28.1554 74.4763 28.7187C73.2522 30.0066 71.1407 29.6499 69.6031 29.2706ZM60.0427 28.2418C60.4333 28.5885 60.9095 28.7937 61.3426 29.0973C62.4352 29.6818 65.792 30.5917 66.8859 29.9302C66.8859 29.974 66.951 29.9089 66.9623 29.8877C68.7809 29.3463 71.3041 30.0936 72.2021 31.8145C71.3367 32.6481 70.5456 36.3948 71.791 37.0337C69.8104 38.5388 69.2146 34.6519 66.5824 34.9873C66.2476 34.5649 64.7738 33.3846 64.2225 33.5474C63.9409 33.6337 63.735 34.0342 63.4647 34.1644C62.825 34.4786 60.7454 34.3158 60.1942 33.8396C59.9876 33.6663 60.0853 33.2332 60.0527 32.9841C59.9557 32.3233 58.6672 28.469 58.3431 27.8738C57.833 26.9426 57.1628 26.3362 56.5777 25.4701C57.7254 25.7298 59.1215 27.4082 60.0427 28.2418ZM60.8119 36.59C60.3562 36.5037 60.1178 36.0706 59.7286 35.886C59.7505 35.5718 59.9557 34.9873 60.0647 34.6838C61.3751 35.334 63.4647 35.4197 64.5586 34.3265C64.7957 34.4128 65.8146 35.2039 65.9866 35.4091C65.976 35.6037 66.2031 35.7013 66.2476 35.8853C66.3878 35.9936 66.4097 36.1995 66.5498 36.3078C66.6481 36.6 66.7019 36.9248 66.7019 37.2389L66.6149 37.3359C66.1713 36.8491 65.9016 36.3403 65.3589 35.8959C65.1424 35.7226 64.8933 35.6469 64.7858 35.3546L64.4397 35.2357C64.1581 35.3546 64.1687 35.6794 64.0067 35.8853C64.2106 36.8066 61.4502 37.132 60.8119 36.59ZM60.8119 60.7036C60.9317 60.7148 61.0514 60.6802 61.1466 60.6066C61.6773 60.1084 61.9158 59.4363 62.4039 58.96C62.5766 59.1015 62.3375 59.1985 62.3169 59.3506C62.2406 59.6747 62.0254 59.9238 61.9158 60.2273C61.7318 60.6059 61.4282 60.942 61.3306 61.3857C60.7355 62.1874 60.0202 62.9771 59.447 63.713C59.2085 64.0059 58.9488 64.3081 58.7217 64.6236C58.6459 64.7095 58.5806 64.804 58.5271 64.9052C58.375 65.0779 58.2235 65.2074 58.094 65.3914C58.0502 65.5535 58.1365 65.6525 58.2235 65.77C58.353 65.8139 58.4945 65.8245 58.6566 65.7919C59.5333 64.7956 60.3131 63.6918 61.1579 62.6629C61.4821 62.4789 61.6016 62.0665 61.8181 61.8068C62.0552 61.385 62.4458 60.9945 62.6404 60.4963C62.7374 60.5289 62.7274 60.6703 62.7168 60.7673C62.6504 61.0383 62.4883 61.1565 62.3913 61.395C62.1423 61.828 61.8062 62.2511 61.5471 62.6842C61.136 63.2899 60.6159 63.7117 60.2812 64.3393C59.8156 64.9139 59.437 65.4877 58.9594 65.9307C58.5922 66.3213 58.2561 66.8194 57.8662 67.1336C57.2824 67.7719 56.6534 68.4866 56.0045 68.9847C55.7979 69.2119 55.5169 69.3633 55.3223 69.5699C54.9862 70.0135 54.4662 70.2301 54.0876 70.6412C53.8179 70.7382 53.6014 70.5117 53.3404 70.4466C53.1896 70.3171 52.8967 70.3065 52.8861 70.0454C53.3623 69.6768 53.893 69.2657 54.3367 68.8652C54.7272 68.4215 55.2785 67.9353 55.669 67.4371C55.6797 67.2957 55.853 67.1661 55.766 67.0041C55.679 66.8952 55.5714 66.7876 55.4406 66.8845C54.8999 67.3608 54.3161 68.0648 53.7635 68.541C53.5689 68.6606 53.4174 68.8446 53.2328 68.9316C53.2221 69.0392 53.0707 69.0611 53.0056 69.1142C52.7565 69.3633 52.453 69.5699 52.1714 69.7758C51.8798 69.8727 51.5211 69.6775 51.2621 69.5692C51.0336 69.5041 50.6876 69.4497 50.5694 69.2657C51.2402 68.8645 51.7164 68.3238 52.3129 67.8695C53.0481 67.3594 53.5463 66.5046 54.2616 65.9739C55.5176 64.6847 56.4694 63.4507 57.5308 62.0638C58.2899 60.9393 58.9721 59.953 59.6203 58.7727C59.6748 58.6326 59.7293 58.4586 59.8588 58.3291C59.9239 58.1451 60.0208 57.983 60.0653 57.7658C60.2055 57.5274 60.2493 57.2677 60.422 57.0292C60.4971 56.911 60.519 56.7377 60.693 56.6945C60.8331 56.7915 60.8551 56.8997 60.9952 57.0292C61.2987 57.4092 61.6893 57.7233 61.9264 58.1451C61.8839 58.3942 61.6893 58.6107 61.5803 58.8498C61.2424 59.3841 60.9282 59.933 60.6385 60.495C60.681 60.574 60.7249 60.661 60.8119 60.7036ZM60.6379 68.8353C60.6598 69.6369 60.4432 70.4267 60.2918 71.2184C60.2444 71.2592 60.2077 71.3111 60.1851 71.3695C60.1625 71.4279 60.1547 71.491 60.1623 71.5531C60.1503 71.6402 60.0859 71.7165 60.0534 71.8022C59.9239 72.1709 59.6748 72.5169 59.2856 72.6258C58.6679 72.6909 57.9532 72.6909 57.4225 72.4518C57.1515 72.3767 56.935 72.2246 56.7078 72.1821C56.1446 71.8567 55.3874 71.4675 54.8674 71.1208C55.2685 70.7408 55.669 70.4931 56.0157 70.1125C57.0665 69.3122 57.9539 68.2614 58.8525 67.3521C59.4476 66.6375 60.0653 66.0198 60.6166 65.2626C60.8657 64.9059 61.2343 64.526 61.4289 64.1574C61.4083 64.3958 61.2463 64.4609 61.2343 64.6993C61.1048 65.0354 60.9746 65.3815 60.8982 65.7282C60.8331 66.2044 60.7255 66.745 60.7255 67.2445C60.6159 67.7533 60.7249 68.3059 60.6379 68.8353ZM32.6807 69.3009C32.8434 69.5938 33.0267 69.8428 33.3196 70.0806C33.839 70.5907 34.3591 71.1208 34.9004 71.5531C34.9004 71.6727 34.7489 71.7371 34.6513 71.7816C34.3697 71.7816 34.1425 71.5531 33.9041 71.4343C33.5036 71.0231 33.0274 70.9255 32.7132 70.4499C32.5073 70.2228 32.3014 70.0268 32.1068 69.8548C32.1068 69.7472 32.0636 69.8003 32.0091 69.7147C31.869 69.4968 31.6306 69.3347 31.4247 69.1182C31.23 68.9236 31.056 68.642 30.8402 68.4474C30.8515 68.3504 30.7319 68.3179 30.7213 68.2309C30.4835 67.9167 30.2231 67.7546 30.0391 67.4185C29.7901 67.1801 29.638 66.8454 29.4108 66.5843C29.2481 66.2057 28.9559 65.8491 28.7719 65.4804C28.7287 65.339 28.6417 65.242 28.6204 65.1018C28.4909 65.0148 28.5341 64.8408 28.4039 64.7438C28.3388 64.3872 28.0466 64.1055 27.9602 63.715C27.8328 63.4272 27.7384 63.126 27.6786 62.817C27.5923 62.4916 27.4295 62.1123 27.3538 61.8533C27.4408 61.6467 27.5923 61.4747 27.7005 61.3007H27.8088C27.9602 61.9064 28.2956 62.4045 28.4365 62.9791C28.74 63.6174 29.0103 64.2669 29.3132 64.8847C29.4865 64.9391 29.5516 65.2632 29.7788 65.1663C29.9196 65.1238 29.9847 64.9823 30.0279 64.8408C29.9847 64.5931 29.909 64.3546 29.7901 64.1587C29.7469 63.8671 29.5629 63.618 29.4434 63.3583C29.4434 63.2062 29.27 63.1744 29.2919 63.0223C29.2488 62.8276 29.108 62.6211 29.0754 62.3946C28.9346 62.0585 28.7832 61.6255 28.6317 61.2907C28.5992 61.0091 28.4909 60.76 28.4584 60.4784C28.8589 60.1423 29.27 59.7312 29.6486 59.417C29.7675 59.5791 29.7243 59.8182 29.8871 59.9683C30.1468 61.1811 30.8289 62.1993 31.327 63.2932C32.2264 64.6681 33.1788 66.1081 34.4129 67.3109C35.095 68.0894 35.8309 68.8366 36.6651 69.4643C36.9793 69.7147 37.3579 69.9518 37.6501 70.1909C37.6614 70.2334 37.6501 70.2878 37.607 70.2878C37.239 70.4718 36.8491 70.699 36.4705 70.883C36.4274 70.883 36.3729 70.8936 36.3835 70.9374C36.2753 70.883 36.2865 71.0882 36.1776 71.0344C36.0481 71.1314 35.8635 71.0344 35.712 70.9693C35.2252 70.6658 34.9216 70.3297 34.4454 69.9186C34.2923 69.7457 34.1088 69.6023 33.9041 69.4955C33.7527 69.3334 33.5467 69.2258 33.4059 69.1063C33.2113 69.0412 33.0267 68.9767 32.8215 68.9867C32.7132 69.0631 32.6481 69.1707 32.6807 69.3009ZM28.4577 68.11C28.4464 67.6118 28.3488 67.2007 28.4033 66.6806L28.4577 66.6056C29.021 67.3634 29.5297 68.1751 30.2225 68.9223C30.5366 69.3128 30.8727 69.7565 31.2945 70.0806C31.879 70.7628 32.5511 71.4781 33.3628 71.9762C33.4929 72.1164 33.6663 72.1928 33.7852 72.2904C33.5906 72.5614 33.2658 72.659 32.9835 72.7666C32.8866 72.8961 32.7019 72.93 32.5618 72.9938C31.9334 73.2223 31.4572 73.5789 30.8182 73.741L30.6555 73.8606C30.1793 74.0552 29.551 74.0771 29.1073 73.818C28.9778 73.7742 28.9877 73.656 28.8695 73.644C28.7938 73.5789 28.7174 73.5039 28.6317 73.4388C28.2631 72.6696 28.3501 71.8029 28.3607 70.883C28.4471 70.0262 28.3169 68.9767 28.4577 68.11ZM25.8694 61.6235C25.9451 61.3538 26.0427 61.1047 26.0753 60.8337C26.2812 60.4326 26.3456 60.1304 26.6385 59.7624C26.6668 59.6945 26.7116 59.6347 26.7687 59.5884C27.4614 58.6246 28.2631 57.8243 29.3132 57.174L29.4108 57.2285V57.8993C29.3896 58.0188 29.3532 58.1351 29.3026 58.2454V58.3218C29.2481 58.3643 29.1943 58.4294 29.2056 58.5164C28.5128 59.4256 27.3977 59.9889 26.7913 61.0071C26.5854 61.2123 26.4445 61.5159 26.3795 61.8074C26.2499 61.9164 26.3469 62.1435 26.2174 62.2305C26.2068 62.3275 26.1848 62.4032 26.1848 62.5341C26.0985 62.5666 26.1417 62.6198 26.0766 62.6636C25.7073 62.5341 25.9457 61.9921 25.8694 61.6235ZM37.2171 68.7821C36.2321 68.013 35.4091 67.0712 34.543 66.1944C33.6444 65.0361 32.7564 64.0179 32.0636 62.7725C31.6624 61.8852 31.2513 61.2356 30.9265 60.3482C30.8402 60.0121 30.7206 59.676 30.5805 59.3519C30.3965 58.8099 30.1474 58.2261 30.3427 57.6084C30.3533 57.3487 30.3427 57.0983 30.2989 56.8612C30.3746 56.6991 30.18 56.6228 30.2231 56.4175L30.2989 56.4826L30.3102 56.4707C30.3533 56.5145 30.3214 56.6121 30.3646 56.6991C30.4009 56.7299 30.4303 56.768 30.4509 56.8109C30.4715 56.8538 30.4829 56.9006 30.4842 56.9482C30.7439 57.7486 31.3071 58.4207 31.6319 59.2104C31.9673 59.8926 32.3791 60.4983 32.8228 61.1061C32.9749 61.2787 33.0931 61.4953 33.2665 61.6467C33.5155 61.6793 33.57 61.9708 33.7533 62.1023C34.7496 63.1956 35.9299 63.8784 37.0563 64.7658C37.4781 65.2214 38.0307 65.5349 38.3768 66.0111C38.9075 66.4442 39.2867 66.9749 39.8606 67.3641C40.9213 68.4899 42.611 68.1658 44.0722 68.2734C45.3063 68.2202 46.4872 67.9917 47.548 67.5155C48.0242 67.4936 48.3602 67.212 48.7714 67.028C49.1726 66.7039 49.5186 66.3572 49.8002 65.9241L49.9198 65.8816C50.4285 65.4585 50.8941 64.9072 51.3491 64.4622C51.9466 63.9569 52.5314 63.4369 53.1032 62.9027C53.622 62.6211 53.9906 62.113 54.3911 61.7118C55.0945 61.1386 55.6039 60.2825 56.1891 59.5791C56.4382 59.1779 56.7623 58.7774 56.9689 58.3337C57.1741 58.0421 57.2385 57.6303 57.5308 57.4789C57.6722 57.5646 57.5852 57.7605 57.7267 57.8681C57.8237 57.9877 57.8237 58.2042 57.9864 58.2912C58.0628 58.4858 58.0953 58.7023 58.2248 58.8644C58.2574 59.1354 58.5935 59.4276 58.2574 59.6335C57.7267 60.5647 57.0326 61.3757 56.4388 62.2644C56.0377 62.7732 55.6152 63.2182 55.1935 63.7369C54.5277 64.5468 53.8036 65.3069 53.0269 66.0111C52.3766 66.8879 51.4793 67.5055 50.6557 68.2309C50.396 68.4148 50.224 68.6094 49.8979 68.7396C49.6382 68.8811 49.4103 69.1408 49.0756 69.1846C47.9704 69.2703 46.8233 69.5413 45.8376 70.1265C45.5016 70.0501 45.2525 69.9199 44.9284 69.8335C44.3651 69.7153 43.7806 69.704 43.315 69.975C43.0766 69.975 42.9252 69.7366 42.7199 69.6609C42.0697 69.4118 41.345 69.2703 40.6729 69.4118C40.186 69.4649 39.6553 69.5519 39.1897 69.7153C38.8975 69.8555 38.6703 69.5519 38.3887 69.5413C37.9537 69.3228 37.6289 69.0312 37.2171 68.7821ZM59.8807 56.6008C59.8156 56.557 59.8687 56.6214 59.8262 56.654C59.7392 56.8061 59.6422 56.9575 59.6097 57.1521C59.4802 57.4131 59.3726 57.6622 59.2411 57.8993C59.2085 58.0614 59.0358 58.1604 58.9594 58.3224C58.7755 58.1604 58.5921 57.997 58.5583 57.7698C58.4353 57.5061 58.3553 57.2245 58.3212 56.9356C58.1372 56.6214 58.3862 56.2648 58.2341 55.9287C58.3756 55.5601 58.4952 55.1815 58.6898 54.8135C58.7648 54.6189 58.808 54.3804 58.9594 54.2396L58.9714 54.3047C59.0464 54.326 59.0465 54.4342 59.1116 54.4993C59.3281 55.0406 59.7293 55.5175 60.0534 56.0037C60.0527 56.2203 59.9013 56.3843 59.8807 56.6008ZM59.1979 48.3708C59.1653 49.0749 58.9913 49.8865 58.8943 50.6344C58.7974 51.0887 58.7104 51.5111 58.5702 51.9661C58.4832 52.5938 58.2242 53.1683 58.1146 53.796L57.8655 54.7597C57.7785 54.9437 57.6815 55.1496 57.6284 55.3555C57.4869 55.6251 57.3355 55.9831 57.1728 56.2428C57.1402 56.3624 57.0652 56.4594 57.0107 56.557C56.7616 57.0126 56.3385 57.4238 56.221 57.9438C56.1771 58.0295 56.1014 58.0946 56.0901 58.181C55.9932 58.246 55.9606 58.343 55.8849 58.4407C55.863 58.539 55.7554 58.6572 55.7009 58.7336C54.9862 59.6648 54.413 60.6066 53.4812 61.3538C53.2746 61.6135 53.0049 61.8519 52.799 62.0671C52.6695 62.1555 52.5719 62.2305 52.4749 62.2631C51.9004 62.8582 51.2721 63.2919 50.655 63.8771C49.8427 64.526 49.0424 65.3821 48.2307 66.0749C47.6781 66.5511 47.0179 66.8971 46.2601 67.0273C44.7112 67.5049 43.0759 67.4073 41.4952 67.3203C40.7592 67.2233 40.2717 66.7025 39.7736 66.227C39.4707 65.869 39.0051 65.5017 38.7016 65.0786C38.2685 64.6243 37.6076 64.1912 37.1752 63.7462C36.9916 63.6416 36.8144 63.526 36.6446 63.4002C36.4387 63.173 36.1896 63.0541 35.9518 62.8595C35.0857 62.2319 34.371 61.5391 33.6557 60.7268C33.396 60.6398 33.3528 60.3808 33.1688 60.2067C33.0931 59.9902 32.8872 59.8707 32.8334 59.6116C32.7364 59.417 32.5631 59.1885 32.4655 58.9614C32.4548 58.8538 32.3685 58.8093 32.3246 58.7017C32.0649 58.2035 31.794 57.6184 31.5017 57.0983C31.2958 56.7416 31.2526 56.3305 31.0574 55.9619C30.9385 55.6258 30.7545 55.3116 30.6569 54.9769C30.5054 54.6521 30.3646 54.316 30.2564 53.9806C29.8671 52.5732 29.3902 51.1219 29.2494 49.6062C29.1737 49.5411 29.2607 49.3897 29.1631 49.3027C29.0767 48.5774 28.9897 48.0148 28.9685 47.3214C28.8602 46.5848 28.8928 45.5779 28.9359 44.8526C29.4992 44.6467 30.073 44.387 30.4848 43.8782C30.7226 43.7268 30.8747 43.4777 31.1344 43.3044C31.2971 43.2499 31.4698 43.2286 31.6432 43.2074C31.6007 43.4345 31.4054 43.6298 31.2971 43.835C31.0374 44.3332 30.5825 44.7663 30.5931 45.3946C30.7233 45.5786 30.8535 45.7194 31.0799 45.7406C31.3616 45.7838 31.5894 45.8163 31.8816 45.7732C31.7734 45.8383 31.8385 45.9359 31.8385 46.0222C31.9793 46.163 32.1739 46.0767 32.3472 46.0767C32.3253 46.1531 32.3147 46.2713 32.3472 46.3477C33.289 47.4629 34.5776 48.0155 36.1046 48.0155C36.1803 48.1237 36.3317 48.0261 36.44 48.0261C36.5157 47.9829 36.5808 48.0042 36.6671 48.0042C37.8693 47.7664 39.0496 47.3001 40.2292 46.9322C40.4783 46.7482 40.9007 46.618 40.8144 46.2394C40.3488 45.5467 39.5803 45.2212 38.952 44.7882C38.5189 44.6474 38.042 44.4421 37.5983 44.387C36.786 44.2575 35.7579 44.3113 34.9017 44.5497C34.0462 44.8639 33.2671 45.2969 32.4655 45.5885C32.4004 45.5998 32.314 45.643 32.2596 45.6317C32.227 45.5666 32.3459 45.5234 32.4004 45.4909C33.0068 45.0797 32.9848 45.0904 33.57 44.6786C33.6238 44.646 34.4142 44.1479 34.5012 44.126C35.2272 43.7686 35.6489 43.5734 36.699 43.671C37.0238 43.8012 37.3599 43.855 37.6521 44.0064C37.6927 44.0128 37.7342 44.0082 37.7723 43.993C37.8104 43.9778 37.8437 43.9526 37.8687 43.9201C37.8906 43.584 37.7604 43.4644 37.4901 43.2379C36.9813 43.1084 36.6133 42.9563 35.8987 42.9995C35.4224 43.0971 34.9456 43.1403 34.5019 43.3787C34.2309 43.4651 34.0037 43.5953 33.7978 43.7467C33.3648 43.9632 33.2891 44.1585 32.8666 44.3531C32.6933 44.5265 32.2489 44.7975 32.0762 44.9595C31.8491 45.0353 31.513 45.1867 31.3078 45.1541C31.2965 44.9482 31.5024 44.8506 31.5455 44.6341C31.6 44.5696 31.6976 44.5371 31.6538 44.4069C31.8272 44.2004 32.0331 43.952 32.1626 43.7142C32.5744 43.3568 32.8341 43.0427 33.4079 42.7504C34.2741 42.3825 35.2159 42.415 35.8987 42.3931C37.4363 42.5339 38.3462 42.7504 39.3525 42.7072C40.0452 42.5777 40.7818 42.5339 41.3338 42.0683C41.4307 41.9713 41.4208 41.8192 41.4746 41.7003C41.345 41.5376 41.2042 41.5376 41.0521 41.6246C40.1316 42.0789 39.8068 41.9707 39.0164 42.0251C38.2366 42.0577 37.6628 41.9713 37.0896 41.9494C36.2879 41.8524 35.6708 41.6034 34.8698 41.7435C34.6208 41.7003 34.0469 42.0039 33.8304 41.9381C33.841 41.0939 34.5557 40.368 35.0326 39.632C35.5201 39.2747 36.0395 38.8955 36.624 38.6683C36.982 38.3867 37.4688 38.2133 37.696 37.7916C38.0427 37.5312 38.2698 37.1314 38.5295 36.7846C38.6159 36.5894 38.6159 36.4054 38.6159 36.1669L38.6484 36.07C39.2548 35.7013 39.8074 35.3015 40.3919 34.9003C40.4358 34.8459 40.5653 34.7595 40.5759 34.6838C40.8582 34.4566 41.2042 34.1857 41.3988 33.8821C41.5722 33.6875 41.6592 33.9366 41.8213 33.9904C41.9076 34.2069 42.1567 34.2288 42.3413 34.3152C42.6655 34.4454 43.0228 34.4879 43.3589 34.5855C44.3977 34.64 45.5567 34.7589 46.6074 34.802H46.6945C47.3653 34.8884 48.1125 34.8997 48.7946 35.0405C49.8235 35.2351 50.8523 35.3108 51.8805 35.6356C52.7027 35.8521 53.515 36.1118 54.3167 36.426C54.6628 36.5993 55.0952 36.7939 55.3768 37.0649C56.029 37.4792 56.6322 37.966 57.1748 38.5162C57.2943 38.6895 57.4238 38.841 57.5434 39.025C57.825 39.3172 57.999 39.6314 58.2036 39.9342C58.3331 40.1833 58.5603 40.4111 58.5941 40.7034C58.7562 40.8229 58.6147 41.0607 58.7768 41.1909C58.7562 41.3423 58.9289 41.3642 59.0152 41.44L59.2424 41.4725C59.2749 42.2848 59.4058 43.1941 59.3839 44.0609C59.5034 45.3926 59.2969 46.6698 59.2424 48.0128C59.1979 48.1224 59.1979 48.2951 59.1979 48.3708ZM28.7174 42.7185C28.9014 42.0577 30.1687 39.4487 30.8727 39.3723C31.0241 39.3511 30.9484 39.6002 30.9265 39.6646C30.8061 40.0402 30.7121 40.4237 30.6449 40.8123C30.5586 41.3105 30.5586 41.798 30.6343 42.2955C30.7206 42.8594 29.822 43.3137 29.7788 43.5627C29.5948 43.6823 28.9778 44.1366 28.9346 43.7255L28.8801 43.5734C28.9778 43.2273 28.5985 43.1091 28.7174 42.7185ZM27.8838 47.6781C27.8407 47.6674 27.9051 47.526 27.8407 47.4835C27.725 47.1288 27.5875 46.7817 27.4289 46.444C27.31 46.4553 27.3638 46.2919 27.2668 46.2494C27.2555 46.0654 27.397 45.9784 27.4614 45.827C27.5265 45.8376 27.5371 45.7725 27.5909 45.7619L27.6886 45.7293C27.6886 45.7725 27.6773 45.8263 27.6992 45.8595C27.7318 45.8376 27.7317 45.8163 27.7643 45.7725C27.6886 45.7725 27.7317 45.7293 27.7317 45.6968C27.7317 45.6862 27.7211 45.6862 27.7317 45.6755V45.6968C27.7594 45.7081 27.7884 45.7154 27.8181 45.7187C27.8287 45.7732 27.8832 45.7406 27.927 45.7732C28.0672 45.8602 27.9589 46.1092 28.0459 46.2607C28.0134 46.8671 28.0672 47.3221 28.1216 47.8953C28.1973 48.0148 28.1435 48.2745 28.1761 48.4479C28.1761 48.5455 28.0678 48.513 28.0247 48.5023C27.8407 48.2739 28.014 47.8946 27.8838 47.6781ZM27.6892 43.6717C27.3644 43.8231 27.2343 44.2561 26.8338 44.2561C23.7047 44.2781 25.5233 41.1922 27.0177 41.3005C27.397 41.333 27.852 41.4732 28.2199 41.3975L28.285 41.5163C27.9921 42.0258 27.8619 43.4658 27.6892 43.6717ZM28.2843 36.6013C27.8838 37.1752 27.5591 37.7384 27.2124 38.3442C27.2124 38.3229 27.1253 38.3442 27.1147 38.3442C27.1253 38.1383 27.0496 37.846 27.1904 37.6627C27.6454 34.0674 32.8859 34.1544 35.528 34.0355C36.2753 34.003 37.1307 33.7758 37.8454 33.8834C38.8417 34.0136 39.6427 33.5155 40.5633 33.3202C40.5201 33.5912 40.2598 33.7639 40.1083 33.9698L39.9888 34.0674C39.8267 34.1651 39.3717 34.4792 39.296 34.5868C35.9936 38.0088 30.6881 33.1249 28.2843 36.6013ZM37.5312 36.6664C36.8923 37.6952 35.9285 37.9875 34.998 38.6264C33.9798 38.3448 32.8972 42.3944 31.5436 42.3081L31.4247 42.1885C31.1862 40.1202 32.3452 37.0669 34.6839 36.699C35.637 36.5475 36.4705 36.8829 37.4774 36.515L37.5312 36.6664ZM28.7174 34.349C26.6604 35.7458 22.7403 37.6514 20.5963 35.334C22.2203 35.1281 22.838 35.1932 24.278 34.2514C26.1941 32.9841 29.183 30.158 31.7495 31.4034L31.8252 31.4578C32.6587 31.5335 34.3046 32.6162 35.1169 33.0605C33.742 33.7639 30.9371 32.8334 28.7174 34.349ZM27.6779 40.4776C27.407 40.2936 27.7211 39.4162 27.8188 39.1565C28.837 36.4492 29.6599 36.2872 32.3233 36.1895V36.2221C32.6049 36.2114 32.8759 36.2978 33.1356 36.3516C33.0486 36.4924 32.8434 36.5787 32.6913 36.6551C32.3014 36.861 32.15 37.2728 31.7926 37.5C30.5366 38.2904 29.8658 39.2973 28.8589 40.3155C28.4577 40.1634 28.0466 40.7266 27.6779 40.4776ZM32.7776 46.0641C32.9297 46.0322 33.1237 45.8801 33.2213 46.0209V46.4108C33.1781 46.4002 33.113 46.4002 33.0911 46.3457C32.9673 46.2758 32.8604 46.1797 32.7776 46.0641ZM38.3974 46.1843C38.4193 46.3895 38.4086 46.5629 38.3216 46.7143C38.2672 46.79 38.2459 46.8332 38.2346 46.8545C38.0832 47.0285 37.9318 47.0929 37.7478 47.1361C37.5532 47.1906 37.3473 47.2331 37.1846 47.2769C36.3829 47.5798 35.257 47.3745 34.4773 47.1142C34.369 47.0604 34.2608 47.0172 34.1525 46.9627C34.0904 46.9356 34.035 46.895 33.9904 46.8438C34.0307 46.7478 34.0385 46.6412 34.0124 46.5403C33.9692 46.3889 33.9473 46.2374 33.9034 46.0853C33.9034 46.0202 33.9147 45.9664 33.936 45.9014C33.9579 45.8363 33.9904 45.7718 34.0117 45.7174C34.7044 45.3282 35.4623 44.9814 36.3071 44.9383C36.6967 44.9197 37.0868 44.9562 37.4662 45.0465C37.8016 45.1223 38.137 45.2305 38.4624 45.3282C38.3938 45.3742 38.3439 45.4432 38.3216 45.5228C38.3329 45.7506 38.3761 45.9777 38.3974 46.1843ZM38.9931 45.8695C38.9931 45.7831 38.9606 45.6529 38.9068 45.5453C39.2904 45.7661 39.6467 46.0314 39.9682 46.3357C39.9468 46.356 39.9208 46.3708 39.8925 46.3789C39.8606 46.4008 39.828 46.4115 39.7842 46.4334C39.7516 46.444 39.7085 46.4659 39.6646 46.4878C39.5708 46.53 39.4729 46.5625 39.3724 46.5848L39.1127 46.6499C39.0801 46.531 39.0908 46.4121 39.0908 46.3039C39.0901 46.1617 39.0802 46.0103 38.9931 45.8695ZM49.5605 31.9666C52.3753 33.3202 55.3642 32.4428 57.5188 35.0637C58.2879 35.9949 58.8512 37.2615 58.7642 38.5175L58.7967 38.7015L58.8073 38.8855L58.7104 39.005C58.2448 38.6802 57.9525 38.1602 57.5301 37.771C54.694 35.1614 51.6407 34.5981 47.884 34.1219C47.0823 34.0249 42.2424 33.8728 42.1447 33.1369C42.1334 33.0824 43.3469 30.7983 43.4871 30.419C43.5741 30.2131 43.693 30.0291 43.7255 29.8126C43.8012 29.5522 43.9314 29.3258 43.9527 29.0541L44.1147 28.6649C45.1761 29.1843 46.3345 31.5448 48.9009 31.242C48.9328 31.6205 49.3765 31.685 49.5605 31.9666ZM49.3114 30.1049C52.9824 30.3539 53.5237 28.8701 57.5088 30.6243C58.2235 30.9384 59.0239 31.6093 59.2085 32.3996C59.3925 33.1469 59.5446 35.0093 58.9488 35.5937C58.6778 35.0305 58.0395 34.4135 57.6384 33.9153C55.9274 31.685 49.68 32.6706 49.3114 30.1049ZM56.7616 26.8556C57.0213 27.1266 57.3249 27.3757 57.5195 27.7111C57.726 28.0578 58.5051 29.8119 58.3862 30.1474C56.5557 29.4001 55.0613 28.5885 52.9937 28.9996C50.7314 29.4433 47.3533 29.8119 46.27 27.1592C46.0103 26.5202 45.5228 24.236 45.4903 24.1597C45.5122 23.7479 45.5009 23.3261 45.5773 22.9143C45.837 23.2178 45.999 23.6071 46.367 23.8023C46.8107 24.2679 47.4058 24.6366 48.0135 24.7986C50.677 25.5565 54.0225 23.6509 56.1771 26.0984C56.383 26.3362 56.5451 26.6178 56.7616 26.8556ZM45.9233 21.8861C45.934 21.7234 45.7287 21.6045 45.7938 21.4531C46.28 20.3811 46.8977 19.6126 47.2012 18.421C47.7645 16.1581 47.3533 15.9742 47.2012 13.9172C48.3158 13.4077 50.5362 15.6819 50.6544 16.7539C50.5574 17.4035 50.4717 18.0531 50.4491 18.7027C50.3947 20.6627 47.9485 24.084 45.9233 21.8861ZM59.609 14.4691C60.2041 14.9241 60.8544 15.2163 61.4495 15.6494L61.3419 15.7357C59.7604 16.4285 57.7134 17.371 55.9493 16.6782C54.4443 16.9704 53.4911 17.2733 52.3972 18.421C51.996 18.7246 51.6938 19.1357 51.2282 19.331C51.4979 17.6307 51.4009 15.7683 51.996 14.1337C53.8173 9.23924 56.9562 12.4878 59.609 14.4691ZM47.6768 9.0878C47.7844 8.90382 47.8389 8.69792 47.9584 8.52457C48.1324 8.58966 48.24 8.80619 48.3596 8.947C49.6475 10.3006 51.8028 9.70484 52.712 11.3075C52.7014 11.3188 52.637 11.4271 52.6695 11.4377C51.9442 11.9903 51.3697 12.8996 51.2176 13.7983L50.839 14.7733C50.6663 14.8165 50.5793 14.665 50.4717 14.5568C49.8215 13.8959 48.3596 13.0949 47.4178 13.0085C46.9621 12.9654 46.4866 13.0949 46.0309 12.9654C43.1078 12.1086 47.1567 9.91074 47.6768 9.0878ZM44.5909 10.4521L44.6235 10.5278C44.3957 11.1667 44.1579 11.2099 44.1579 12.0222C44.1579 12.802 45.4458 14.1549 46.2475 13.9278C47.2863 15.3352 46.1618 18.9411 45.4352 20.3379C44.9158 20.9443 43.7029 20.6521 43.2593 20.1001C43.1835 19.9161 43.0208 19.7753 42.9238 19.5907C42.5778 18.7684 42.0139 18.3134 41.1591 18.075C40.5639 17.8047 39.9682 18.1507 39.5564 17.371C39.2422 16.8183 39.0363 16.1581 38.6252 15.6387C37.8461 14.6424 35.5825 14.5993 35.4098 14.0799C38.6139 12.0647 40.552 9.8131 44.5909 10.4521ZM35.0193 15.3246C35.0731 15.1951 35.1926 15.2595 35.2896 15.3033C35.8309 15.5198 36.3184 15.5849 36.8923 15.7257C38.2891 16.0505 38.5275 17.707 39.6102 18.7571C39.935 19.0713 40.4657 18.9517 40.8662 18.9949L40.7798 19.2114C39.8918 19.8391 38.2891 20.2728 37.694 18.9079C37.2829 17.9873 35.4636 18.3991 35.0957 16.5693C35.0299 16.2558 34.8898 15.6381 35.0193 15.3246ZM34.1638 14.7726L34.1744 15.2163C34.1744 15.3133 34.0768 15.3465 34.0343 15.4003C33.9473 15.3571 33.8065 15.2807 33.6876 15.2269C33.5574 15.1838 33.4498 15.1074 33.3628 15.0642C33.6012 14.9453 33.8935 14.8802 34.1638 14.7726ZM27.1479 17.2514C27.5053 17.0787 27.4833 16.5155 27.2668 16.2558C27.2994 15.8333 27.2774 15.4973 27.3532 15.0755L27.3645 14.9892C27.6567 14.036 28.1548 13.7332 28.8695 13.1593C29.1186 13.3971 29.1837 13.7551 29.454 13.9822C30.3746 14.7507 31.3921 14.9785 32.3127 15.6062C32.5511 15.8015 33.8503 16.3421 34.1644 16.4079C34.2727 16.9054 34.3272 17.4686 34.6513 17.8797C35.4742 18.8541 35.8103 18.9086 36.8498 19.3848C37.5644 20.7165 39.2861 21.3123 40.5739 20.4242C40.7473 20.3047 41.5702 19.6339 41.6353 19.6119C41.8957 19.8936 42.4689 19.9586 42.437 20.4349C43.0102 21.5175 43.8982 21.8317 45.0672 21.7015C45.0964 21.8361 45.0815 21.9765 45.0247 22.102C45.014 22.2973 44.9596 22.4706 44.9164 22.6546C44.5478 24.3762 45.2193 27.5165 46.454 28.8263C47.1574 29.5735 47.7419 29.7136 48.6957 30.0059C48.5987 30.1899 48.8033 30.4389 48.6087 30.5366C46.2375 30.2012 45.0247 28.2199 44.7643 28.1548C44.5039 27.8838 44.2555 27.5809 44.3313 27.191C44.6886 23.9106 40.0652 23.4556 38.4405 25.6641C38.2127 25.9782 36.8378 25.4475 36.4373 25.3067C36.0906 24.5921 34.3258 23.8668 33.6118 23.4769C33.6876 20.7809 29.8326 16.8721 27.1041 18.7126C26.9958 18.9617 26.5847 19.3077 26.422 19.6226C26.422 19.6226 25.1441 18.9404 24.7761 18.8754L24.6785 18.7126C25.5339 17.9016 26.1184 17.707 27.1479 17.2514ZM34.9329 26.2605C35.7559 26.1091 36.6651 26.2393 37.4343 26.5753C37.8022 26.7268 38.0188 27.4521 38.4737 26.9758C38.6365 26.8025 38.766 26.5966 38.9068 26.402C39.5995 25.4708 41.798 24.7016 42.7398 25.5684C42.87 25.688 43.2493 26.0446 43.1842 26.2505C43.1729 26.2831 43.1297 26.2831 43.0972 26.2831L43.0646 26.3369C42.7399 26.2399 42.3932 26.3588 42.0684 26.4458C38.3761 27.4527 40.0977 31.8271 33.8503 29.3583C33.5149 29.2281 32.0962 28.5785 31.8903 28.3839C32.8859 27.6035 33.6225 26.5096 34.9329 26.2605ZM31.8358 27.2893C30.8508 27.8738 27.927 26.228 26.6817 26.0114C27.0928 25.3406 28.5766 24.5064 29.367 24.5927C30.439 24.7123 32.4309 23.9544 33.2326 24.3224C33.8709 24.6033 34.4886 24.9069 35.0731 25.2968C32.5724 26.0114 33.2439 26.4551 31.8358 27.2893ZM26.422 21.7128L26.2054 21.7672C25.3499 21.5833 24.5483 21.204 23.6828 21.1064C21.5382 20.8679 19.0375 21.1389 17.0343 21.9399C16.0811 22.3185 15.1825 22.9249 14.2294 23.3148C15.0423 21.4099 25.2198 16.9811 26.422 21.7128ZM23.4451 21.9081C24.0833 21.9619 26.2274 22.731 26.422 22.7197L26.4545 22.9143C24.1159 26.942 19.341 25.9457 15.4103 25.7298C14.5116 25.6866 13.6342 25.7192 12.7363 25.7192C15.8646 22.9143 19.157 21.5501 23.4451 21.9081ZM3.91114 35.9836C3.91114 34.3378 5.10203 32.6381 6.01198 31.3602C7.23608 29.6598 9.79057 27.6241 11.74 26.8556C15.941 25.1991 23.6396 29.7575 27.0071 23.4237C26.9852 22.8392 27.397 22.2328 27.2675 21.5613C27.1805 21.0306 26.867 20.6408 26.78 20.1758C27.3751 20.1214 27.3977 19.2984 28.0472 19.2121C30.516 18.8548 32.1506 21.2585 32.8002 23.3268C31.8584 23.3268 30.9597 23.7386 30.0391 23.7598C28.3714 23.7924 26.8451 24.1065 25.7837 25.6116C25.6429 25.6767 24.8956 26.5753 24.8631 26.7268C24.6034 26.9108 24.9282 27.377 25.253 27.3113C25.9138 27.1924 26.3356 26.8676 27.0503 27.0403C28.101 27.2787 29.0103 27.9283 30.0604 28.1887C30.0604 28.4484 30.1793 28.8382 30.4503 28.9571C31.0461 29.2062 31.7501 29.2387 32.3452 29.5961C33.9911 30.5924 37.2071 31.8809 38.853 30.3865C39.4481 29.8452 42.7399 25.8932 43.5741 27.7443L43.4771 28.1016C42.8375 30.7332 40.6722 33.2996 37.6515 32.8984C33.8509 32.4116 32.2815 28.8057 27.5923 30.8952C24.8312 32.1406 23.5859 34.9342 20.1321 34.284C19.5582 34.187 18.8761 33.9698 18.4536 33.548C19.2985 31.2413 20.1321 29.4008 22.4707 28.2637C23.0014 28.0146 23.8781 27.5597 24.4845 27.646C24.6253 27.5597 24.6253 27.3319 24.5928 27.191L24.3224 26.9533C23.196 27.0396 22.7735 27.4514 21.843 27.6786C21.4531 28.0904 20.6953 28.1548 20.1971 28.4909C20.067 28.5885 19.1902 28.9996 19.0494 28.9996C17.458 28.9996 16.5806 28.0146 14.426 28.4364C13.787 28.5659 12.9209 28.6961 12.3577 29.0315C10.9177 29.8976 9.49899 30.6123 8.10219 31.576C6.7479 32.4973 4.13829 35.8534 3.91114 35.9836ZM8.29613 39.0914C7.92817 39.1239 7.44065 39.1565 7.25667 38.7878C6.9538 38.3867 6.92125 37.8128 6.87807 37.3153C7.15969 37.1632 7.25667 36.8491 7.51703 36.6651C7.67976 36.5243 7.78736 36.329 7.90625 36.1457C8.11281 36.0155 8.0909 35.7884 8.29613 35.6907C8.01451 36.3622 7.9926 37.0769 7.9926 37.7696C8.01518 38.2465 8.1985 38.6258 8.29613 39.0914ZM9.0759 38.0087C8.59968 34.9661 10.8951 35.4861 11.3388 35.0637C11.74 35.4529 11.8801 35.973 12.3896 36.3303C10.9928 35.5512 9.55279 37.6302 10.5703 37.9111C11.1117 38.0626 11.285 36.9693 11.9127 37.316C12.7462 37.7809 11.4364 39.3405 10.4076 39.2428C9.83375 39.189 9.17354 38.5932 9.0759 38.0087ZM10.9602 33.9698C10.3326 34.1219 9.67167 34.2733 9.20607 34.7389C9.11973 34.6958 9.11973 34.8359 9.10843 34.7934C9.35751 34.3823 9.73676 34.0249 10.0616 33.6782C10.3538 33.5049 10.5923 33.1801 10.8739 32.9635L10.8845 32.9742C10.8732 33.3096 10.8732 33.6344 10.9602 33.9698ZM10.126 40.2717C12.3783 40.5314 13.6449 38.3335 12.4972 36.4492C13.3526 36.9255 14.9766 37.5106 15.2044 38.5175C16.1569 42.7624 10.1805 43.1735 10.126 40.2717ZM15.7783 45.9346C14.3058 46.357 11.9884 44.7649 12.2594 43.1516C15.7026 43.7255 17.3484 38.4418 15.0204 36.7421C14.1869 36.1357 13.0391 35.9298 12.3896 35.0743C10.029 31.9772 14.2845 31.3715 14.3602 31.1005C14.4034 30.949 14.3277 30.6349 14.2088 30.5372C13.3646 29.8232 9.61721 32.7902 8.90321 33.4066C8.81686 33.6775 8.5027 33.7858 8.40506 34.0455C7.09461 35.1826 6.08769 37.6514 3.99813 37.7384C5.55766 34.3816 12.2919 28.5892 16.1901 29.26C17.197 29.4334 18.3879 29.9421 19.3842 29.9202V30.0285C18.9943 30.4834 17.7928 32.8872 17.814 33.4604C17.0349 34.0887 18.8322 34.8352 19.2002 34.976C19.341 35.334 19.6877 35.5174 19.9155 35.799C17.7602 36.254 17.2302 32.9841 16.0499 34.2295C15.5737 34.7383 15.7683 35.1062 15.6169 35.7126C15.5412 36.2433 16.0605 37.0012 16.3096 37.4236C16.9592 37.9975 17.2083 38.8416 17.6845 39.5351C17.7277 40.997 18.5832 40.9425 17.7064 43.3787C17.6307 43.5953 17.468 43.8012 17.468 44.039C17.0236 44.646 16.5474 45.718 15.7783 45.9346ZM19.3297 49.9303C18.5287 49.1512 16.742 47.5047 17.0993 46.1624C17.2076 45.7944 17.998 45.0147 18.2252 44.3432C18.7665 42.773 19.167 41.6034 18.6476 39.9362C18.1388 38.3342 16.9804 37.2622 16.4604 35.7571C16.5793 35.4868 16.4929 35.162 16.6882 34.9236L16.7852 34.8047C17.2621 35.2922 17.3697 35.8767 18.0193 36.2772C18.7339 36.7209 20.0444 37.057 20.7584 36.4506C22.2854 37.3499 25.079 37.5551 26.6272 36.6027H26.6923C26.4107 38.1615 26.1941 38.7141 26.6704 40.3168C24.3749 40.9445 23.465 44.5072 25.5226 45.1462C25.7066 45.4816 26.151 45.3839 26.4538 45.4922C26.4758 45.6868 26.151 46.1099 26.0533 46.272C25.4469 47.3008 25.5007 49.4986 23.7572 49.5418C22.4255 49.5743 22.7184 46.1205 20.9317 46.7701C18.9179 47.4954 20.5532 49.9423 22.2741 50.0831C22.4581 50.105 22.6208 50.0399 22.8048 50.0619C22.8479 51.015 21.8091 51.8266 20.9317 51.2853C19.8498 51.3271 19.8816 50.4717 19.3297 49.9303ZM21.9612 49.0855C21.9174 49.1512 21.8091 49.1287 21.7547 49.1074C21.3322 48.8696 21.0945 48.4359 20.9105 47.9816C20.965 47.7432 21.127 47.6455 21.3223 47.5047C21.7015 47.5804 21.6145 48.068 21.7553 48.3489C21.7985 48.598 21.8636 48.847 21.9612 49.0855ZM21.3761 54.1307C21.3363 54.228 21.2892 54.3221 21.2353 54.4123C21.1921 54.4987 21.1702 54.575 21.0945 54.5963C21.0838 54.5644 20.9317 54.4562 20.9317 54.326C20.7259 53.7847 20.7916 53.0268 21.0838 52.453C21.0944 52.342 21.1441 52.2384 21.224 52.1607C21.7009 52.0963 22.2854 52.2364 22.751 52.0312C23.1083 51.8253 23.3354 51.5224 23.5201 51.1319C23.5307 51.0236 23.6064 50.9804 23.639 50.8828C23.7147 50.8722 23.7253 50.7745 23.7579 50.6988C23.7692 50.5587 23.7041 50.3634 23.8236 50.2983C24.3862 50.2226 24.9926 50.1688 25.3832 49.757C26.0108 49.2044 26.3901 48.3927 26.6392 47.6243C26.7255 47.5486 26.7368 47.4077 26.78 47.2882C26.8125 47.2231 26.867 47.3427 26.867 47.2556C26.8882 47.4503 27.0071 47.5479 27.029 47.7432C27.0722 48.3496 26.9965 48.7932 26.758 49.2588C26.4545 49.757 25.8381 50.1362 25.4914 50.6444C25.2424 50.926 24.8744 51.0668 24.5928 51.2621C23.9967 51.742 23.3865 52.204 22.7629 52.6476C22.2967 53.1245 21.7773 53.612 21.3761 54.1307ZM23.0326 55.485C22.9024 55.7221 22.8924 56.0256 22.751 56.2428C22.7297 56.3398 22.7078 56.47 22.654 56.5244C22.5132 56.567 22.3505 56.4819 22.2422 56.4169C22.1771 56.2873 22.112 56.2754 22.0908 56.1027C21.918 55.7931 21.8495 55.436 21.8955 55.0845C22.1771 54.2615 22.8705 53.8072 23.4444 53.2115C24.0501 52.7565 24.6898 52.2803 25.2629 51.804C25.5226 51.7283 25.6415 51.5118 25.88 51.3922C26.3894 50.9266 26.7567 50.5368 27.2336 50.0167C27.4282 49.8002 27.5797 49.5079 27.6992 49.2695C28.0565 49.2482 28.1542 49.5617 28.3056 49.7789C28.5115 50.2983 28.5759 50.9153 28.2837 51.4029C28.2405 51.468 28.1429 51.4892 28.1535 51.5649C27.6667 52.16 26.8656 52.3341 26.1828 52.7127C25.5984 52.9511 24.97 53.2108 24.5695 53.6658C23.9644 54.2177 23.2279 54.6401 23.0326 55.485ZM23.6715 58.6791C23.6284 58.5389 23.6064 58.3875 23.5201 58.2779C23.4875 57.8562 23.3467 57.4557 23.4444 57.0545C23.4763 56.7184 23.6602 56.4594 23.6822 56.1346C23.7147 56.102 23.7572 56.102 23.7572 56.0582C23.8442 55.94 23.8548 55.756 23.9412 55.6251C24.5476 54.7922 25.4031 53.958 26.3887 53.5469C26.9732 53.3304 27.4388 53.0162 28.0127 52.789C28.0778 52.6369 28.2837 52.6589 28.3481 52.54C28.5321 52.4098 28.5972 52.2152 28.7812 52.1175C28.8569 52.1826 28.8894 52.3234 28.9652 52.4423C29.0522 52.9949 29.2468 53.5143 29.4088 54.045C29.4846 54.4024 29.6905 54.7597 29.539 55.1496C29.5065 55.4744 29.4633 55.8217 29.2468 56.0489C29.0628 56.3631 28.8243 56.5251 28.4889 56.6766C28.4996 56.7735 28.3481 56.7636 28.3049 56.8386C27.0754 57.6647 26.0677 58.7802 25.3705 60.0872V60.1842C25.338 60.2386 25.2842 60.3256 25.2517 60.3907C25.141 60.6624 25.061 60.9455 25.0132 61.2349C24.97 61.2455 24.97 61.3 24.9262 61.3C24.9481 61.3425 24.8611 61.3106 24.9156 61.3751C24.7528 61.2349 24.7635 61.0184 24.6884 60.7799C24.5689 60.4233 24.7316 59.8056 24.2334 59.6329C23.9663 59.3693 23.7726 59.0405 23.6715 58.6791ZM40.6284 71.3805C40.1302 71.423 39.6753 71.6946 39.2316 71.8786C38.8636 72.1157 38.3874 72.2246 38.0081 72.4737C37.4343 72.6683 36.9361 73.0469 36.4712 73.3611C36.0488 73.5351 35.6914 73.8167 35.2365 73.9462C35.2584 73.9887 35.182 73.9887 35.1501 73.9887C34.739 74.1727 34.4142 74.4118 33.9918 74.552C33.8512 74.6635 33.6891 74.7447 33.5155 74.7904C33.3634 74.8123 33.2233 74.8874 33.0606 74.9199C32.941 74.985 32.757 74.9093 32.6488 74.9963C32.2157 75.0289 31.8258 75.2016 31.4147 75.2985C31.3064 75.3424 31.1543 75.4619 31.2201 75.6021C31.2307 75.6346 31.2746 75.6565 31.3064 75.6346C31.5555 75.8412 31.9016 75.8956 32.2483 75.8412C32.844 75.7442 33.5481 75.6572 34.0349 75.3855C34.8147 74.9638 35.6157 74.6177 36.4167 74.2372C36.5575 74.2166 36.6983 74.0425 36.8498 74.0425C36.9468 73.9456 37.0989 73.9024 37.2178 73.7716C38.0081 73.1983 39.037 72.8623 39.9031 72.3754C40.109 72.3648 40.271 72.1914 40.4876 72.2233C40.5201 72.2884 40.3899 72.3309 40.4444 72.4299C40.3474 72.6125 40.2498 72.8297 40.3361 72.9812V73.2741C39.8705 73.4036 39.4262 73.6414 38.9606 73.7177C38.5056 73.9017 38.0513 74.1395 37.6183 74.368C37.5751 74.4756 37.3692 74.4756 37.3154 74.5732C36.6113 74.8987 36.0913 75.3424 35.4205 75.6785C35.3773 75.808 35.2258 75.7641 35.1714 75.8405C34.9223 75.97 34.6194 76.1866 34.3697 76.2417C33.9798 76.4788 33.6338 76.5658 33.1901 76.7179C32.1393 77.0095 31.0242 77.0201 29.909 76.8049C29.4653 76.7611 29.0103 76.4688 28.5554 76.2948C28.014 75.8511 27.2668 75.6021 26.964 74.9093C26.78 74.7472 26.6498 74.4875 26.4333 74.3687C26.422 74.2491 26.3137 74.2166 26.3031 74.1302C25.9138 73.7397 25.9026 73.0795 25.7398 72.5607C25.7617 71.9105 25.4801 71.2184 25.6747 70.5901C25.7073 70.2214 25.7292 69.7778 25.8375 69.4098C25.9564 68.8897 26.0215 68.3484 26.1078 67.8403C26.1835 67.8184 26.1184 67.6988 26.1623 67.6444C26.1623 67.4072 26.2811 67.2113 26.2599 66.9735C26.3356 66.8646 26.3356 66.745 26.3462 66.6049C26.3788 66.5943 26.422 66.583 26.422 66.5504C26.5521 66.6594 26.7361 66.8965 26.9633 66.8434C27.1034 66.7889 27.2124 66.6049 27.2124 66.4422C27.2011 66.4096 27.1473 66.3552 27.2124 66.3452C27.1579 66.2688 27.2011 66.1068 27.1147 66.0842C27.0065 65.2619 26.054 64.7638 25.328 64.3407C24.5376 63.9734 23.9093 63.2913 23.9419 62.3056C23.9419 62.1548 23.9532 61.9595 23.9963 61.7869C24.007 61.8294 24.0827 61.7749 24.0827 61.8519C24.1584 62.1555 24.4287 62.5772 24.7323 62.8688C24.97 63.0209 25.0896 63.2594 25.3712 63.3344C25.8587 63.7456 26.5409 63.8764 26.8656 64.4828C27.1253 64.8189 27.2987 65.1649 27.4501 65.5542C27.5697 66.0523 27.5796 66.496 27.6341 66.9735C27.6666 67.4498 27.7424 67.9904 27.6341 68.5105C27.6341 68.63 27.6447 68.7376 27.6228 68.8671C27.4607 68.9336 27.6447 69.0837 27.6341 69.2032C27.6016 69.4742 27.6228 69.8103 27.569 70.08C27.6773 71.0012 27.3306 71.9975 27.6879 72.8523C27.666 73.0795 27.8719 73.1983 27.8174 73.4581C27.9582 73.7071 28.012 74 28.283 74.1727C28.3375 74.2697 28.3375 74.4218 28.4889 74.3892C28.6184 74.4763 28.651 74.6277 28.8244 74.6277C29.2036 74.6702 29.5829 74.8223 29.9727 74.8117C31.3695 74.5626 32.5823 73.7609 33.8702 73.2302C34.8014 72.657 35.7326 72.0719 36.7183 71.6388C37.4874 71.1301 38.3748 70.8916 39.2196 70.5024C39.6633 70.3284 40.1289 70.2859 40.5839 70.1338C41.0601 70.1663 41.634 69.9923 42.0889 70.2533C42.3706 70.3078 42.6083 70.4585 42.9013 70.5555C42.8793 70.881 42.9663 71.2602 42.9982 71.5412C42.1547 71.694 41.4726 71.1858 40.6284 71.3805ZM42.2092 74.5639C42.0033 74.455 41.798 74.2823 41.6791 74.0764C41.3752 73.7545 41.1915 73.3377 41.1591 72.8961C41.7655 72.4199 42.6316 72.485 43.4007 72.572C43.5741 72.7992 43.5953 73.1027 43.8232 73.2867C43.8557 73.3737 43.9527 73.4594 44.0071 73.5358C44.2449 73.8818 44.5485 74.1535 44.8626 74.4557C44.0928 74.9206 42.9776 74.8993 42.2092 74.5639ZM48.9002 73.7397C48.7926 73.8592 48.7382 74.0007 48.695 74.1521C48.4566 74.4218 48.1318 74.6064 47.7518 74.5852C46.5829 74.5513 45.554 74.0326 44.7856 73.1877C44.3638 72.7972 44.1034 72.3654 43.9301 71.8009C43.8218 71.4768 43.5834 71.0656 43.8112 70.7515C44.2549 70.6425 44.7099 70.6545 45.111 70.8591C45.2186 70.8265 45.208 70.9461 45.3163 70.9242C46.0754 71.2602 46.5085 72.2346 47.2763 72.6026C47.3414 72.6896 47.4178 72.744 47.5147 72.7972C47.9803 73.0356 48.4672 73.2847 48.9653 73.4693C49.0092 73.5351 48.8903 73.6427 48.9002 73.7397ZM64.0053 64.2437C63.6267 64.7312 63.4965 65.2619 63.2687 65.8145C63.2262 66.2462 62.9771 66.6474 63.1505 67.113C63.2475 68.1744 63.0741 69.1162 63.0635 70.2214C62.9765 70.9893 62.76 71.694 62.5979 72.4086C62.3595 72.9493 62.2399 73.5344 61.84 74C61.666 74.6177 61.2004 75.0495 60.7142 75.4725C60.4213 75.711 60.064 75.8511 59.783 76.0783C58.992 76.4469 58.007 76.6734 57.0539 76.522C56.2416 76.5658 55.4738 76.2849 54.6176 76.1872C53.9793 75.9381 53.2753 75.6672 52.6689 75.3749C52.2677 75.0933 51.7815 74.8117 51.478 74.4656C50.8928 74.01 50.4272 73.3279 49.7019 73.0462C49.1387 72.6132 48.6731 72.2459 48.0235 72.0294C47.9265 71.9749 47.8714 71.8773 47.8169 71.8553C47.8389 71.7803 47.991 71.8447 48.1098 71.8447C48.2938 71.7358 48.4991 71.9417 48.7276 71.8979C48.7807 71.9962 48.8351 71.9317 48.9002 71.9742C49.3765 72.1144 49.777 72.2884 50.2107 72.5268C50.3077 72.5694 50.3947 72.754 50.5362 72.764C50.7308 73.0456 51.0449 73.2296 51.369 73.4036C51.7051 73.6952 52.0412 73.9017 52.4092 74.1289C52.7552 74.4205 53.2215 74.6596 53.5781 74.9086C53.8491 74.9631 54.0218 75.1796 54.3147 75.2228C55.4392 75.6784 56.6746 76.057 57.9844 75.97C58.3424 76.0026 58.7316 76.0125 59.0677 75.8405C59.3374 75.537 59.8149 75.428 59.8149 74.9844C59.522 74.7473 59.2517 75.1365 58.9262 75.0388C58.0063 75.2009 57.097 75.1039 56.2409 74.8987C55.8842 74.8867 55.5588 74.7147 55.2021 74.6277C54.8986 74.4756 54.5299 74.3892 54.1952 74.1946C53.6192 73.8972 53.0685 73.5531 52.5487 73.1658C52.1594 72.8842 51.747 72.657 51.4003 72.3535C51.0761 72.0938 50.74 71.7903 50.3714 71.6501C49.6787 71.2702 48.877 70.9886 48.0547 71.0211C47.6436 71.0211 47.2531 70.9886 46.9183 71.1732C46.7662 71.0982 46.6041 70.9786 46.5277 70.8491C46.5277 70.8597 46.4952 70.7946 46.5277 70.7621C46.8857 70.6219 47.2424 70.4586 47.633 70.416C47.9571 70.2214 48.3908 70.2321 48.7368 70.1344C49.6362 70.0255 50.4153 70.3184 51.2382 70.5237C52.1594 70.8816 53.0787 71.3034 53.9454 71.7159C55.3416 72.3216 56.5218 73.3179 58.0927 73.5776C58.0807 73.6214 58.1133 73.6427 58.1352 73.654C58.2547 73.654 58.3517 73.654 58.4493 73.6646C58.6234 73.6752 58.7529 73.7722 58.905 73.6646C59.0451 73.7071 59.2397 73.6101 59.3812 73.5676C59.6728 73.5025 60.052 73.5026 60.2141 73.1891C60.3775 72.7454 60.6917 72.3767 60.8962 71.9543C61.0158 71.7816 60.9288 71.4781 61.1347 71.316C61.4488 70.2653 61.4708 69.0744 61.5677 67.9379C61.4927 67.742 61.5352 67.4929 61.5677 67.2558C61.6222 67.0068 61.5896 66.7683 61.5896 66.5086C61.6753 66.314 61.7079 66.1074 61.7623 65.9135C61.8593 65.1988 62.2386 64.5931 62.5421 63.9634C62.7692 63.4447 62.8882 62.8814 63.0622 62.3507C63.0728 62.2312 63.0728 62.1442 63.2129 62.0678C63.387 61.8201 63.5816 61.484 63.8632 61.3751C64.2537 61.0078 64.5898 60.7261 64.9564 60.3801C64.989 60.4771 65.0328 60.6172 65.0328 60.7148C65.2733 62.0671 64.6761 63.2049 64.0053 64.2437ZM64.9372 58.8631C64.7207 59.1447 64.536 59.5133 64.3195 59.7843C64.081 59.967 63.832 60.1629 63.6048 60.3681C63.5503 60.2811 63.6267 60.1954 63.5829 60.054C63.5404 59.7079 63.4102 59.3718 63.3338 59.0152C63.0741 58.1059 62.3495 57.4132 61.7643 56.7191C60.9746 55.8862 60.1829 55.0088 59.7186 53.9474C59.4901 53.5469 59.3932 53.0813 59.3281 52.5725C59.5446 51.6088 59.7717 50.645 59.9132 49.6381C59.9664 49.2157 60.0972 48.7826 60.0653 48.3602C60.0534 48.3383 60.1404 48.3057 60.0653 48.2951C60.1078 48.2951 60.1404 48.2519 60.1078 48.2081L60.1404 48.2513V48.3482C60.1623 48.673 60.2599 48.9221 60.3024 49.2037C60.422 49.5066 60.335 49.7344 60.5296 50.0154C60.5415 50.2644 60.6711 50.4703 60.7362 50.7081C60.9308 51.2607 61.3964 51.7589 61.8075 52.2026C62.0785 52.4948 62.3495 52.809 62.6743 53.0255C63.2269 53.6638 63.9196 54.2815 64.4829 54.9855C64.8615 55.408 65.1331 55.8948 65.327 56.4255C65.6844 57.2165 65.5323 58.2779 64.9372 58.8631ZM64.9372 47.3639C64.8933 47.526 65.0554 47.8401 64.7851 47.8401C64.0159 47.8401 63.1711 47.1148 62.5541 46.6924C62.1323 46.9309 61.6773 48.2519 61.7099 48.7388C61.7099 49.1506 61.5046 49.6049 61.5478 50.0599C61.5053 50.0811 61.5272 50.1462 61.4827 50.1681C60.5289 48.8577 61.6242 45.6636 60.6604 44.4288C61.2987 43.0646 61.5272 43.5408 62.0566 42.9131C63.7456 42.9131 64.6668 43.7035 65.4566 45.0897C65.175 45.3932 65.1105 45.8588 64.7313 46.0641C64.6436 46.4653 64.7412 47.0066 64.9372 47.3639ZM65.9866 55.756C65.966 55.7341 65.9116 55.7341 65.879 55.7221C65.5549 54.7697 63.832 53.1025 63.0741 52.3228C63.0316 51.9336 62.2193 50.5474 62.5009 50.2545C63.832 51.7815 66.5067 53.3191 65.9866 55.756ZM65.966 52.615C65.4785 51.5111 63.6918 50.742 62.8576 49.0529C62.8795 48.782 62.75 48.6305 62.8576 48.3602C62.9546 48.1111 62.6191 48.1224 62.738 47.8946C63.28 48.0029 63.6918 48.4685 64.2431 48.6093C64.6662 48.7282 65.0773 48.6524 65.5104 48.7175C66.0411 48.3715 65.6944 47.7651 65.8465 47.3207C67.7952 47.6781 67.406 50.3521 67.7082 51.7057C67.8603 52.3879 68.2502 52.7452 68.4674 53.3191C67.7195 53.4924 66.2901 53.3622 65.966 52.615ZM71.2822 46.4978C71.0551 47.7212 70.3298 48.6737 70.102 49.8002C69.9399 50.9479 68.933 51.8359 69.5613 53.07C68.4454 52.9398 68.468 49.8433 68.3159 49.0529C68.2189 48.5548 68.0562 48.0998 67.7527 47.6887C67.5255 47.3745 66.7564 46.8007 66.3778 46.6705C66.0636 46.5516 65.7927 46.5948 65.5655 46.3889C65.7176 45.999 66.0198 45.6848 66.2038 45.3062C66.864 43.9307 65.695 43.5083 67.4711 42.415C69.6031 41.7654 71.7259 44.3319 71.2822 46.4978ZM67.2213 41.6146C66.8959 41.8743 66.5937 41.8637 66.3446 42.2423C66.2031 42.4482 66.0517 42.7079 65.879 42.87C65.9116 42.9782 65.8465 43.0759 65.7495 43.1084L65.6299 43.303L65.5004 43.5408C65.3264 43.5196 65.0993 43.3137 64.9804 43.1948C64.6343 42.5996 62.469 41.9494 61.8294 42.1015C61.4402 42.1991 60.693 42.957 60.3569 43.2061L60.2373 43.1629L60.2048 42.9683L60.1942 43.0659C60.0746 41.7661 59.9232 38.5507 59.5665 37.4349C59.6522 37.3485 59.7286 37.2184 59.7286 37.0888C59.9451 37.1426 60.0972 37.3492 60.3343 37.3379C61.5916 38.1283 63.7788 37.7497 64.6011 36.4824C64.7632 36.5256 64.9903 36.6126 65.0667 36.786C65.6399 37.1539 65.889 37.8467 66.2031 38.4318C66.15 38.6915 66.3771 38.8868 66.3552 39.1359L66.5937 39.3418C67.0374 39.201 67.0699 38.649 67.3734 38.3455C67.5787 37.3499 67.4917 36.8086 67.1669 35.8442C67.752 35.801 68.9104 36.6671 68.8885 37.2735C68.8459 38.3448 69.9286 41.3231 71.0551 41.5615C71.1627 41.7023 71.3792 41.6372 71.4549 41.8106C71.7378 41.9408 72.0726 41.8976 72.3761 41.9946C72.6146 41.8863 72.8962 42.0165 73.134 41.8757C71.5313 44.397 69.3116 40.6184 67.2213 41.6146ZM77.4532 38.4637C76.8694 38.6477 76.5765 37.5106 75.8625 37.4243C75.4839 37.3811 74.7028 37.7278 74.5733 38.0958C74.3681 38.6909 74.5952 39.7635 74.1841 40.2723C72.8843 41.8531 70.806 41.3875 70.1239 39.5138C69.8628 38.7991 69.6138 38.6371 69.6038 37.8135C71.0657 38.0845 71.3367 38.4093 72.7992 37.5644C73.9901 36.8717 75.9814 34.5755 77.4433 35.4749C77.6817 35.4423 78.2669 36.677 78.3851 36.9042C78.2224 37.5 78.5259 38.3442 77.4532 38.4637ZM84.2532 39.3836C83.0623 39.2315 83.4409 38.8317 82.0767 38.9612L81.8289 38.9937C80.0635 38.9287 77.3131 33.5693 76.5765 32.118C75.9707 30.9271 74.2598 30.3851 73.838 29.9195C74.1077 29.8113 75.6021 28.6742 75.5377 28.4902C73.8161 27.4939 73.8593 26.7899 72.6033 25.8049C75.0396 26.2379 77.7142 30.0278 78.8832 32.1499C79.3608 32.9948 80.4647 34.1531 80.7888 34.9654C81.4709 35.4636 82.0236 36.2646 82.6844 36.8384C83.3991 37.3691 84.0918 37.943 84.7846 38.4843C85.2389 38.8529 84.6863 39.4381 84.2532 39.3836ZM85.2821 37.9437C85.0981 37.9005 83.864 36.7959 83.68 36.59C83.5386 36.4273 83.2689 36.4818 83.16 36.2759C82.9873 36.2214 82.8684 36.07 82.7057 35.9836C82.5536 35.7346 82.2607 35.6157 82.1311 35.334C81.1787 34.7602 80.9622 33.5905 80.1605 32.9954C80.106 32.8659 79.1536 31.317 79.0566 31.2087C79.0021 30.8946 78.5804 30.8189 78.6235 30.4615C78.2875 30.1905 78.32 29.5742 77.8338 29.4546C76.3719 27.4733 75.0176 26.0008 72.5814 25.2968C71.9106 25.1015 71.4124 24.9613 70.7522 24.6684C69.4198 24.2354 68.3159 24.062 66.9291 24.0401C64.7857 23.9969 62.3176 23.2823 60.5841 23.4124C59.3932 23.4995 56.2861 24.7123 55.8636 24.6791C55.5176 24.863 55.2579 24.517 54.9544 24.3974C53.4274 23.8342 47.277 24.885 46.8658 23.1415C47.1694 23.2929 47.5479 23.2603 47.8727 23.2504C49.9523 23.2072 51.9123 21.5175 54.0331 21.1064C55.8749 20.7597 56.8925 22.4813 59.6203 20.7922C66.0417 26.6497 72.6684 20.3047 81.9917 30.2882C83.9623 32.3777 85.1632 34.6732 85.3591 37.597L85.2821 37.9437ZM55.1662 95.5132L57.3355 99.2573C57.6623 99.8019 57.9844 100.325 58.262 100.88L54.3586 101.745L54.3792 101.613L54.7578 98.6682L55.1662 95.5132ZM65.1185 106.368C64.3361 105.048 63.5836 103.745 62.8031 102.424L61.0802 99.5336L58.8047 95.6587L57.1289 92.8618L56.5518 91.8808L56.4402 91.7253L54.1075 92.2427L54.1035 92.3464C53.9348 93.6721 53.7581 94.9733 53.5901 96.299L53.0103 100.78L52.53 104.544C52.3421 106.132 52.1216 107.699 51.9084 109.293L53.4055 108.961C53.5184 108.189 53.6246 107.393 53.6984 106.68L54.1135 103.549L54.154 103.385L59.0903 102.292C60.0414 103.91 60.9128 105.521 61.8766 107.084L65.1185 106.368ZM32.5917 93.1221C33.6583 93.419 34.9542 93.51 35.5061 94.5907C35.7406 95.0317 35.8601 95.5232 35.8754 96.0174C35.8863 96.4159 35.847 96.8142 35.7585 97.2029C35.621 97.6878 35.4277 98.081 35.2531 98.5054C34.8227 99.2593 34.0316 100.007 33.1004 100.128C32.4017 100.252 31.7129 99.9906 30.9717 99.8464L32.5425 93.1108L32.5917 93.1221ZM35.105 101.517C35.7911 101.339 36.4632 101.107 37.0285 100.669C38.4126 99.6956 39.0469 97.8293 38.9167 96.1476C38.6756 93.8215 36.4759 92.723 34.3929 92.2454L29.6612 91.1608L26.0474 106.922L29.185 107.642L30.7027 101.023L32.0503 101.332L32.0444 101.357L33.0028 105.731L33.6457 108.666L36.7834 109.384C36.2447 106.783 35.6263 104.192 35.0817 101.615C35.0824 101.615 35.0505 101.529 35.105 101.517ZM20.7996 95.134L23.1083 89.9958L27.8799 92.1398L28.5188 90.7184L20.8348 87.2653L14.2048 102.015L21.8218 105.438L22.4607 104.015L17.7576 101.902L20.1599 96.5573L23.8768 98.2285L24.5151 96.8051L20.7996 95.134ZM6.55396 97.276C8.23504 95.9762 10.0735 94.5415 11.7898 93.2364L14.7787 90.8964L19.7063 87.0694L19.865 86.9345L18.6204 86.0379L15.2994 88.6674L11.827 91.4656L8.39643 94.2014C8.3765 94.1875 8.35326 94.2626 8.34064 94.1922L9.71486 90.7815C10.4355 89.0068 11.1422 87.252 11.8828 85.4926L13.2324 82.1563L10.5597 80.2302C10.2734 81.0166 9.94268 81.8621 9.62586 82.6883L8.55317 85.5112L8.30742 86.1089L6.59714 90.5484L5.18903 94.3091C4.98695 94.8281 4.79586 95.3514 4.61585 95.8785L6.55396 97.276ZM65.788 87.9501C64.7007 88.421 63.6387 89.05 62.8589 89.9015C61.9895 90.7981 61.4854 92.1292 61.5186 93.4104C61.5279 95.4694 62.4006 97.5085 63.4188 99.3895C64.4018 101.146 65.5409 102.71 67.2585 103.583C68.8971 104.411 70.7402 104.204 72.3748 103.367C73.5265 102.749 74.657 102.03 75.3105 100.933C75.9967 99.7342 75.9163 98.3062 75.264 97.0867L73.4282 98.0259C73.9211 99.0441 74.0652 100.1 73.5684 101.117C73.3817 101.523 72.9792 101.842 72.5774 102.105C72.2181 102.288 71.8481 102.449 71.4562 102.509C69.7592 102.782 68.5982 101.342 67.6996 100.136C66.5253 98.3925 65.5396 96.4119 64.7559 94.4386C64.3175 93.1932 63.9123 91.9611 64.1255 90.6646C64.2537 89.9772 64.722 89.5116 65.337 89.1689C65.7183 88.9743 66.0882 88.9264 66.4489 88.9105C66.9663 88.9284 67.4179 89.2061 67.7693 89.5056C68.3598 90.0516 68.8161 90.7224 69.194 91.4603L71.7471 90.1552C71.0936 88.8228 69.9917 87.7189 68.4833 87.531C68.2356 87.4871 67.9891 87.5011 67.7633 87.5037C67.313 87.5077 66.9098 87.6007 66.4947 87.7296L65.788 87.9501ZM49.6488 95.0782C48.9441 94.4233 48.0893 93.8195 47.2344 93.4682C46.5809 93.1905 45.8257 93.166 45.0964 93.166C44.3419 93.1906 43.6378 93.3427 42.9836 93.6435C41.4998 94.222 40.469 95.7324 40.293 97.3404C40.0917 98.9504 40.3428 100.66 41.525 101.717C42.8076 102.924 44.6939 102.798 46.1518 103.604C47.1076 104.057 47.8369 104.987 47.7877 106.043C47.8123 106.471 47.7113 106.873 47.5851 107.25C47.3334 107.853 46.7562 108.256 46.2023 108.482C46.0768 108.531 45.926 108.531 45.825 108.582C45.3979 108.657 44.8945 108.657 44.4674 108.531C43.1849 108.205 42.2038 106.998 41.626 105.865L39.7649 107.677C40.645 108.783 41.9528 109.514 43.3111 109.739C43.9142 109.864 44.6687 109.94 45.3986 109.916C47.3095 109.89 49.1712 108.86 49.8739 107.074C50.5288 105.59 50.5787 103.502 49.7743 102.069C49.0191 100.786 47.5858 100.183 46.2288 99.8312C44.8194 99.4027 42.8827 99.0255 42.5565 97.3158C42.5061 96.7878 42.5313 96.2093 42.7326 95.7563C43.1098 94.8756 43.9899 94.5747 44.8952 94.5488C46.3046 94.4492 47.2344 95.7809 47.888 96.8124L49.6488 95.0782ZM80.7157 86.9837L81.639 88.239L78.3545 90.652L81.8236 95.3744L85.9781 92.3218L86.902 93.5791L80.1731 98.5227L70.5994 85.4892L77.3908 80.5012L78.3127 81.7571L74.0971 84.8549L77.432 89.3954L80.7157 86.9837Z" fill="#222B33"/>
</svg>
