<svg width="115" height="33" viewBox="0 0 115 33" fill="none" xmlns="http://www.w3.org/2000/svg">
<g id="Frame 1">
<path id="Vector" d="M18.1032 15.2997C18.0733 11.69 20.8299 9.93389 20.9559 9.85215C19.3948 7.38504 16.975 7.04803 16.1247 7.02116C14.0924 6.78912 12.1211 8.33925 11.0856 8.33925C10.0297 8.33925 8.43552 7.04327 6.71744 7.08162C4.50627 7.11857 2.43761 8.50635 1.30324 10.6608C-1.03804 15.0545 0.708176 21.5109 2.9511 25.0621C4.07333 26.8026 5.38429 28.7434 7.10056 28.6751C8.77965 28.6012 9.40673 27.516 11.4328 27.516C13.4403 27.516 14.0294 28.6749 15.7795 28.6315C17.5815 28.6012 18.7158 26.8843 19.7988 25.1293C21.0953 23.1369 21.6163 21.1728 21.637 21.0717C21.5956 21.056 18.1383 19.6249 18.1032 15.2997ZM14.7969 4.68477C15.7 3.46073 16.3178 1.79527 16.1463 0.105469C14.8393 0.168168 13.2048 1.08515 12.2636 2.28259C11.4307 3.33757 10.687 5.06684 10.879 6.69283C12.3472 6.81151 13.8546 5.89005 14.7969 4.68477Z" fill="white"/>
<path id="Vector_2" d="M43.4059 27.7882H41.0589L39.7731 23.4513H35.3045L34.0797 27.7882H31.7949L36.2233 13.0233H38.9579L43.4059 27.7885V27.7882ZM39.3858 21.632L38.223 17.7765C38.1001 17.3827 37.8685 16.4549 37.5297 14.9949H37.4883C37.3517 15.623 37.1338 16.5505 36.835 17.7762L35.6921 21.632H39.3858ZM54.7721 22.3341C54.7721 24.1448 54.3143 25.576 53.3975 26.6266C52.5769 27.562 51.5569 28.0292 50.3404 28.0292C49.027 28.0292 48.0824 27.5265 47.5086 26.5191V32.1055H45.3054V20.6412C45.3054 19.5037 45.2775 18.3377 45.2238 17.1417H47.1616L47.2845 18.8293H47.3258C48.0607 17.5579 49.1758 16.9221 50.6725 16.9221C51.8422 16.9221 52.8189 17.4179 53.6 18.4112C54.3804 19.4061 54.7721 20.7133 54.7721 22.3341ZM52.5273 22.4206C52.5273 21.3844 52.3104 20.53 51.874 19.8567C51.3978 19.1566 50.7579 18.8058 49.9561 18.8058C49.4123 18.8058 48.9183 19.0013 48.4773 19.3862C48.0349 19.7744 47.7454 20.2818 47.6101 20.9096C47.5496 21.1445 47.5152 21.3862 47.5076 21.6298V23.4059C47.5076 24.1795 47.7289 24.8328 48.1713 25.3674C48.6136 25.8999 49.1882 26.1674 49.8949 26.1674C50.7249 26.1674 51.371 25.8225 51.8329 25.1378C52.2957 24.451 52.5273 23.5456 52.5273 22.4206ZM66.1786 22.3341C66.1786 24.1448 65.7207 25.576 64.804 26.6266C63.9823 27.562 62.9634 28.0292 61.7458 28.0292C60.4325 28.0292 59.4879 27.5265 58.9141 26.5191V32.1055H56.7109V20.6412C56.7109 19.5037 56.683 18.3377 56.6293 17.1417H58.567L58.6899 18.8293H58.7313C59.4649 17.5579 60.5802 16.9221 62.0776 16.9221C63.2464 16.9221 64.223 17.4179 65.0065 18.4112C65.7858 19.4061 66.1786 20.7133 66.1786 22.3341ZM63.9328 22.4206C63.9328 21.3844 63.7146 20.53 63.2784 19.8567C62.802 19.1566 62.1644 18.8058 61.3623 18.8058C60.8188 18.8058 60.3248 19.0013 59.8814 19.3862C59.4391 19.7744 59.1506 20.2818 59.0156 20.9096C58.9484 21.2025 58.9123 21.4409 58.9123 21.6298V23.4059C58.9123 24.1795 59.1344 24.8328 59.5746 25.3674C60.017 25.899 60.5915 26.1674 61.3004 26.1674C62.1313 26.1674 62.7774 25.8225 63.2381 25.1378C63.7011 24.451 63.9328 23.5456 63.9328 22.4206ZM78.9314 23.6468C78.9314 24.9038 78.5221 25.9256 77.709 26.7146C76.814 27.5753 75.5644 28.0068 73.9626 28.0068C72.4827 28.0068 71.2961 27.7009 70.4011 27.0872L70.9106 25.1157C71.8769 25.7304 72.9385 26.0363 74.0938 26.0363C74.9248 26.0363 75.5709 25.8347 76.0315 25.434C76.4938 25.0325 76.7272 24.4953 76.7272 23.8254C76.7272 23.2251 76.5338 22.7226 76.1545 22.313C75.7733 21.9048 75.1427 21.5241 74.257 21.1747C71.849 20.2106 70.6441 18.8005 70.6441 16.9454C70.6441 15.7336 71.0699 14.742 71.9195 13.9664C72.7691 13.1919 73.8955 12.8045 75.2969 12.8045C76.5482 12.8045 77.591 13.0388 78.4189 13.5061L77.866 15.4341C77.0867 14.9816 76.2071 14.7553 75.2233 14.7553C74.446 14.7553 73.8366 14.9605 73.4002 15.3687C73.0335 15.7339 72.8476 16.1787 72.8476 16.7069C72.8476 17.2892 73.0593 17.7731 73.481 18.1525C73.8469 18.5019 74.5144 18.8826 75.4797 19.2908C76.6639 19.8035 77.5342 20.4002 78.0912 21.086C78.6526 21.7717 78.9314 22.6272 78.9314 23.6468ZM86.2349 18.917H83.8063V24.0861C83.8063 25.4007 84.2342 26.0565 85.092 26.0565C85.4858 26.0565 85.8125 26.021 86.0707 25.9467L86.1316 27.743C85.6978 27.9172 85.1261 28.0048 84.4183 28.0048C83.548 28.0048 82.8679 27.7197 82.377 27.1494C81.8882 26.579 81.6423 25.6239 81.6423 24.2793V18.9123H80.1955V17.1373H81.6423V15.1879L83.8063 14.4866V17.1376H86.2349V18.917ZM97.1712 22.3776C97.1712 24.0137 96.735 25.3575 95.865 26.4081C94.9545 27.4899 93.7432 28.0292 92.2333 28.0292C90.7761 28.0292 89.6175 27.5109 88.7537 26.4758C87.8896 25.4387 87.4576 24.1315 87.4576 22.5548C87.4576 20.9049 87.9041 19.5536 88.794 18.503C89.6859 17.4512 90.8866 16.9252 92.3965 16.9252C93.8516 16.9252 95.0206 17.4445 95.9053 18.4808C96.7505 19.486 97.1712 20.7843 97.1712 22.3774V22.3776ZM94.8874 22.4317C94.8874 21.4565 94.6911 20.6201 94.2971 19.92C93.8351 19.0745 93.1738 18.6519 92.317 18.6519C91.4343 18.6519 90.7573 19.0745 90.2966 19.92C89.9018 20.6201 89.7052 21.4709 89.7052 22.4761C89.7052 23.4524 89.9018 24.2913 90.2966 24.9892C90.773 25.8347 91.4375 26.2573 92.2984 26.2573C93.1407 26.2573 93.8013 25.8258 94.2785 24.9679C94.6839 24.2513 94.8874 23.4095 94.8874 22.4317ZM104.336 19.222C104.107 19.1776 103.874 19.1557 103.642 19.1566C102.867 19.1566 102.267 19.4694 101.846 20.0996C101.48 20.6542 101.296 21.3558 101.296 22.2021V27.7885H99.0924V20.4945C99.0944 19.377 99.073 18.2595 99.0283 17.1428H100.947L101.028 19.1799H101.089C101.323 18.4797 101.689 17.9151 102.191 17.4922C102.651 17.1229 103.209 16.923 103.783 16.9221C103.987 16.9221 104.171 16.9376 104.334 16.9654L104.336 19.222ZM114.19 21.9614C114.196 22.321 114.169 22.6803 114.11 23.0343H107.5C107.525 24.0861 107.845 24.8916 108.459 25.4462C109.016 25.9412 109.736 26.1896 110.621 26.1896C111.599 26.1896 112.492 26.0233 113.295 25.6872L113.641 27.3279C112.702 27.7674 111.594 27.986 110.316 27.986C108.778 27.986 107.571 27.4999 106.693 26.5301C105.816 25.5596 105.377 24.2547 105.377 22.6203C105.377 21.0161 105.785 19.6793 106.603 18.6131C107.458 17.4745 108.615 16.9055 110.07 16.9055C111.499 16.9055 112.581 17.4745 113.316 18.6131C113.898 19.5148 114.19 20.6334 114.19 21.9614H114.19ZM112.089 21.3478C112.105 20.6456 111.96 20.0409 111.662 19.5292C111.28 18.8704 110.693 18.5421 109.907 18.5421C109.186 18.5421 108.599 18.8626 108.153 19.506C107.786 20.0176 107.568 20.6323 107.501 21.3455L112.09 21.3478H112.089ZM34.669 7.80322C34.056 7.80322 33.5258 7.77105 33.0845 7.7167V0.578259C33.7017 0.475659 34.3256 0.425469 34.95 0.42741C37.477 0.42741 38.6406 1.76204 38.6406 3.93771C38.6406 6.44724 37.266 7.80322 34.669 7.80322ZM35.0388 1.34249C34.6979 1.34249 34.4074 1.36467 34.1668 1.41819V6.8446C34.2969 6.86679 34.5469 6.87677 34.8983 6.87677C36.5541 6.87677 37.4966 5.86464 37.4966 3.96987C37.4966 2.28003 36.6439 1.34249 35.0388 1.34249ZM42.2671 7.85757C40.843 7.85757 39.9198 6.71594 39.9198 5.16585C39.9198 3.5506 40.8624 2.39871 42.3477 2.39871C43.7512 2.39871 44.6947 3.48627 44.6947 5.08044C44.6947 6.71594 43.7222 7.85757 42.2671 7.85757ZM42.3084 3.2489C41.526 3.2489 41.0248 4.0342 41.0248 5.13257C41.0248 6.20987 41.5363 6.99545 42.2979 6.99545C43.0596 6.99545 43.5712 6.15552 43.5712 5.11039C43.5712 4.04557 43.0702 3.24862 42.3084 3.24862V3.2489ZM52.8158 2.50658L51.2912 7.73888H50.298L49.6667 5.46672C49.5096 4.91089 49.3789 4.34689 49.2749 3.77687H49.2543C49.1747 4.34699 49.0239 4.9185 48.8636 5.46672L48.1919 7.73888H47.1884L45.754 2.5063H46.8669L47.4188 4.99393C47.5492 5.58651 47.6587 6.14554 47.7496 6.67379H47.7702C47.8498 6.23316 47.9799 5.68301 48.1713 5.00502L48.8636 2.50769H49.7462L50.4088 4.95178C50.5624 5.51981 50.693 6.09472 50.8003 6.6749H50.8292C50.8997 6.13694 51.01 5.56543 51.16 4.95178L51.7521 2.50769L52.8158 2.50658ZM58.4273 7.73888H57.3443V4.73438C57.3443 3.80904 57.0138 3.34512 56.3615 3.34512C55.7198 3.34512 55.2785 3.9377 55.2785 4.62679V7.73888H54.1952V4.00176C54.1952 3.53923 54.1849 3.04315 54.1549 2.50519H55.1078L55.1584 3.31268H55.1886C55.4799 2.75365 56.071 2.39843 56.7336 2.39843C57.7567 2.39843 58.4284 3.23864 58.4284 4.60543L58.4273 7.73861V7.73888ZM61.4143 7.73888H60.3299V0.105469H61.4143V7.73888ZM65.3631 7.85757C63.94 7.85757 63.0158 6.71594 63.0158 5.16585C63.0158 3.5506 63.9583 2.39871 65.4426 2.39871C66.8471 2.39871 67.7897 3.48627 67.7897 5.08044C67.7907 6.71594 66.8172 7.85757 65.3631 7.85757ZM65.4034 3.2489C64.6209 3.2489 64.12 4.0342 64.12 5.13257C64.12 6.20987 64.6323 6.99545 65.392 6.99545C66.1545 6.99545 66.6651 6.15552 66.6651 5.11039C66.6664 4.04557 66.1659 3.24862 65.4034 3.24862V3.2489ZM72.06 7.73888L71.9815 7.13632H71.9526C71.6218 7.62131 71.1391 7.85729 70.5271 7.85729C69.6541 7.85729 69.0338 7.20065 69.0338 6.31746C69.0338 5.02609 70.0768 4.35809 71.8821 4.35809V4.26159C71.8821 3.57278 71.5422 3.22755 70.8703 3.22755C70.39 3.22755 69.9681 3.35732 69.5973 3.61576L69.377 2.85154C69.8276 2.54984 70.3898 2.39871 71.0503 2.39871C72.3234 2.39871 72.9664 3.11996 72.9664 4.56356V6.49077C72.9664 7.01874 72.9881 7.42803 73.0366 7.73999L72.06 7.73888ZM71.911 5.13257C70.7081 5.13257 70.1047 5.44564 70.1047 6.18769C70.1047 6.73673 70.4156 7.00543 70.8476 7.00543C71.3984 7.00543 71.911 6.554 71.911 5.94034V5.13257ZM78.2257 7.73888L78.1751 6.89867H78.1451C77.834 7.53368 77.3111 7.85757 76.5803 7.85757C75.4053 7.85757 74.5351 6.7481 74.5351 5.1872C74.5351 3.5506 75.4373 2.3976 76.6691 2.3976C77.3214 2.3976 77.7834 2.63413 78.0436 3.10887H78.0653V0.105746H79.1496V6.32828C79.1496 6.83434 79.161 7.30796 79.1899 7.73861H78.2257V7.73888ZM78.0656 4.66006C78.0656 3.92772 77.6137 3.30297 76.9245 3.30297C76.1214 3.30297 75.6308 4.06748 75.6308 5.14367C75.6308 6.19878 76.14 6.92114 76.9028 6.92114C77.5837 6.92114 78.0653 6.2853 78.0653 5.53188V4.66006H78.0656ZM86.0232 7.85729C84.6001 7.85729 83.6772 6.71594 83.6772 5.16585C83.6772 3.5506 84.6197 2.39871 86.1037 2.39871C87.5085 2.39871 88.451 3.48627 88.451 5.08044C88.4518 6.71594 87.4793 7.85757 86.0232 7.85757V7.85729ZM86.0634 3.24862C85.2821 3.24862 84.7808 4.0342 84.7808 5.13257C84.7808 6.20987 85.2924 6.99545 86.0531 6.99545C86.8159 6.99545 87.3262 6.15552 87.3262 5.11039C87.3285 4.04557 86.8273 3.24862 86.0634 3.24862ZM94.2754 7.73888H93.1913V4.73438C93.1913 3.80904 92.8608 3.34512 92.2085 3.34512C91.5668 3.34512 91.1265 3.9377 91.1265 4.62679V7.73888H90.0422V4.00176C90.0422 3.53923 90.0319 3.04315 90.002 2.50519H90.9548L91.0054 3.31268H91.0354C91.3259 2.75365 91.918 2.3976 92.5796 2.3976C93.6027 2.3976 94.2754 3.23725 94.2754 4.60433V7.73861V7.73888ZM101.563 3.3784H100.371V5.91926C100.371 6.5662 100.58 6.88897 101.001 6.88897C101.192 6.88897 101.353 6.86679 101.482 6.83462L101.512 7.71781C101.302 7.80433 101.021 7.84758 100.672 7.84758C99.818 7.84758 99.3075 7.34152 99.3075 6.01687V3.3784H98.5963V2.50658H99.3075V1.54769L100.371 1.20245V2.50519H101.562V3.37812L101.563 3.3784ZM107.296 7.73888H106.214V4.75656C106.214 3.82013 105.884 3.34623 105.231 3.34623C104.67 3.34623 104.147 3.7558 104.147 4.58464V7.73888H103.065V0.105469H104.147V3.24862H104.169C104.51 2.6785 105.004 2.3976 105.634 2.3976C106.666 2.3976 107.296 3.25861 107.296 4.62679V7.73888ZM113.17 5.40211H109.92C109.941 6.39289 110.552 6.95219 111.456 6.95219C111.936 6.95219 112.379 6.86568 112.769 6.70485L112.938 7.51261C112.477 7.72779 111.934 7.83538 111.303 7.83538C109.779 7.83538 108.876 6.80107 108.876 5.19829C108.876 3.59386 109.8 2.38762 111.181 2.38762C112.426 2.38762 113.208 3.3784 113.208 4.87497C113.215 5.05164 113.202 5.22858 113.17 5.40211ZM112.177 4.57355C112.177 3.76578 111.798 3.19538 111.106 3.19538C110.483 3.19538 109.991 3.77687 109.921 4.57355H112.177Z" fill="white"/>
</g>
</svg>
