<svg width="127" height="32" viewBox="0 0 127 32" fill="none" xmlns="http://www.w3.org/2000/svg">
<g id="Frame 273">
<path id="Vector" d="M67.4118 7.10547C66.4146 7.10547 65.574 6.76262 64.9092 6.08773C64.2499 5.43173 63.8818 4.52737 63.8983 3.60412C63.8983 2.61877 64.2389 1.78461 64.9092 1.12321C65.5713 0.448315 66.4119 0.105469 67.4091 0.105469C68.3953 0.105469 69.2359 0.448315 69.9117 1.12321C70.5819 1.8062 70.9226 2.64037 70.9226 3.60412C70.9116 4.59216 70.5709 5.42633 69.9117 6.08503C69.2496 6.76532 68.409 7.10547 67.4118 7.10547ZM37.7406 7.10547C36.7654 7.10547 35.9193 6.76802 35.2271 6.10123C34.5403 5.43713 34.1914 4.59756 34.1914 3.60682C34.1914 2.61607 34.5403 1.77651 35.2271 1.11241C35.9056 0.445616 36.7517 0.108168 37.7406 0.108168C38.2241 0.108168 38.6939 0.202654 39.1444 0.394324C39.5867 0.580594 39.9465 0.834354 40.213 1.14481L40.2789 1.22309L39.5345 1.94118L39.4576 1.85209C39.0372 1.36077 38.4741 1.12051 37.7296 1.12051C37.0648 1.12051 36.4852 1.35267 36.0072 1.8116C35.5265 2.27323 35.282 2.87793 35.282 3.60952C35.282 4.3411 35.5265 4.94581 36.0072 5.40744C36.4852 5.86636 37.0648 6.09853 37.7296 6.09853C38.4384 6.09853 39.0345 5.86636 39.4988 5.40744C39.7735 5.13748 39.9438 4.75954 40.0042 4.28171H37.617V3.27207H41.0289L41.0426 3.36386C41.0673 3.53393 41.0921 3.7094 41.0921 3.87138C41.0921 4.80273 40.8064 5.55591 40.2405 6.11203C39.5977 6.77072 38.757 7.10547 37.7406 7.10547ZM77.1914 6.96239H76.1393L72.917 1.89529L72.9444 2.80774V6.95969H71.8923V0.251246H73.0928L73.1257 0.302538L76.1558 5.07539L76.1283 4.16563V0.251246H77.1914V6.96239ZM59.5057 6.96239H58.4399V1.26089H56.5911V0.251246H61.3518V1.26089H59.503V6.96239H59.5057ZM55.723 6.96239H54.6599V0.251246H55.723V6.96239ZM49.7481 6.96239H48.685V1.26089H46.8362V0.251246H51.5969V1.26089H49.7481V6.96239ZM46.1632 6.95159H42.0865V0.251246H46.1632V1.26089H43.1524V3.102H45.8692V4.10084H43.1524V5.94195H46.1632V6.95159ZM65.6894 5.39394C66.1646 5.86097 66.7415 6.09583 67.4118 6.09583C68.1013 6.09583 68.6645 5.86636 69.1342 5.39394C69.6012 4.93501 69.8375 4.333 69.8375 3.60682C69.8375 2.88063 69.6012 2.27593 69.137 1.8197C68.6617 1.35267 68.0821 1.11781 67.4146 1.11781C66.725 1.11781 66.1619 1.34727 65.6949 1.8197C65.2279 2.27863 64.9916 2.88063 64.9916 3.60682C64.9916 4.333 65.2251 4.93771 65.6894 5.39394Z" fill="white"/>
<path id="Vector_2" fill-rule="evenodd" clip-rule="evenodd" d="M63.5758 17.3735C61.0174 17.3735 58.9437 19.3678 58.9437 22.1186C58.9437 24.8445 61.0309 26.8638 63.5758 26.8638C66.1341 26.8638 68.2078 24.8556 68.2078 22.1186C68.2078 19.3678 66.1341 17.3735 63.5758 17.3735ZM63.5758 24.9835C62.1761 24.9835 60.9714 23.7931 60.9714 22.1075C60.9714 20.3969 62.1788 19.2315 63.5758 19.2315C64.9754 19.2315 66.1801 20.3969 66.1801 22.1075C66.1828 23.8042 64.9754 24.9835 63.5758 24.9835ZM53.4696 17.3735C50.9113 17.3735 48.8376 19.3678 48.8376 22.1186C48.8376 24.8445 50.9248 26.8638 53.4696 26.8638C56.028 26.8638 58.1017 24.8556 58.1017 22.1186C58.1017 19.3678 56.0253 17.3735 53.4696 17.3735ZM53.4696 24.9835C52.07 24.9835 50.8653 23.7931 50.8653 22.1075C50.8653 20.3969 52.0727 19.2315 53.4696 19.2315C54.8693 19.2315 56.074 20.3969 56.074 22.1075C56.074 23.8042 54.8693 24.9835 53.4696 24.9835ZM41.4441 18.8226V20.8308H46.1357C45.9922 21.9573 45.6295 22.789 45.0745 23.3592C44.3869 24.0657 43.3256 24.8333 41.4549 24.8333C38.5717 24.8333 36.3166 22.4413 36.3166 19.4791C36.3166 16.5168 38.5717 14.1248 41.4549 14.1248C43.0116 14.1248 44.1459 14.7562 44.9879 15.5628L46.374 14.1387C45.2044 12.9872 43.6478 12.1055 41.4658 12.1055C37.5105 12.1055 34.1914 15.4154 34.1914 19.4679C34.1914 23.5316 37.5078 26.8304 41.4658 26.8304C43.6018 26.8304 45.2044 26.1128 46.4714 24.761C47.7628 23.4343 48.1716 21.5624 48.1716 20.052C48.1716 19.582 48.1364 19.1592 48.0633 18.8004H41.4414C41.4441 18.7976 41.4441 18.8226 41.4441 18.8226ZM90.6319 20.3858C90.2447 19.3205 89.0752 17.3624 86.6766 17.3624C84.2996 17.3624 82.3234 19.2844 82.3234 22.1075C82.3234 24.7721 84.278 26.8526 86.9067 26.8526C89.0184 26.8526 90.2474 25.5259 90.7537 24.7471L89.1862 23.6679C88.6664 24.4606 87.9436 24.9807 86.9175 24.9807C85.8807 24.9807 85.1551 24.4968 84.6732 23.5427L90.8484 20.9143C90.8484 20.9171 90.6319 20.3858 90.6319 20.3858ZM84.3348 21.9712C84.2861 20.1383 85.7209 19.2065 86.747 19.2065C87.5564 19.2065 88.2305 19.6154 88.4607 20.2106L84.3348 21.9712ZM79.3183 26.5689H81.346V12.6284H79.3183V26.5689ZM75.9884 18.4277H75.9153C75.4578 17.8686 74.5888 17.3624 73.4788 17.3624C71.175 17.3624 69.0525 19.4457 69.0525 22.1214C69.0525 24.786 71.1641 26.8443 73.4788 26.8443C74.5752 26.8443 75.4578 26.3353 75.9153 25.7651H75.9884V26.4466C75.9884 28.2573 75.0463 29.2336 73.5275 29.2336C72.2849 29.2336 71.5134 28.3157 71.1993 27.548L69.4369 28.3046C69.9432 29.5562 71.2941 31.1055 73.5248 31.1055C75.9018 31.1055 77.916 29.6675 77.916 26.1601V17.6461H75.9993V18.4277C76.002 18.4277 75.9884 18.4277 75.9884 18.4277ZM73.6602 24.9835C72.2606 24.9835 71.091 23.7819 71.091 22.1214C71.091 20.447 72.2606 19.2343 73.6602 19.2343C75.0463 19.2343 76.1211 20.4609 76.1211 22.1214C76.1346 23.7819 75.049 24.9835 73.6602 24.9835ZM100.126 12.6284H95.2775V26.5689H97.3052V21.2898H100.129C102.373 21.2898 104.58 19.6181 104.58 16.9646C104.58 14.3111 102.381 12.6284 100.126 12.6284ZM100.186 19.3428H97.3025V14.5587H100.186C101.704 14.5587 102.563 15.8465 102.563 16.9507C102.563 18.0438 101.694 19.3428 100.186 19.3428ZM112.707 17.3485C111.234 17.3485 109.715 18.0188 109.087 19.4791L110.885 20.2467C111.272 19.4791 111.981 19.2176 112.731 19.2176C113.781 19.2176 114.843 19.8629 114.867 21.0144V21.1618C114.504 20.9504 113.708 20.6278 112.755 20.6278C110.814 20.6278 108.846 21.7181 108.846 23.7625C108.846 25.6344 110.438 26.836 112.211 26.836C113.573 26.836 114.323 26.2046 114.791 25.4731H114.864V26.5523H116.819V21.2119C116.819 18.7253 115.021 17.3485 112.707 17.3485ZM112.452 24.9835C111.789 24.9835 110.86 24.6498 110.86 23.7931C110.86 22.7139 112.019 22.305 113.007 22.305C113.901 22.305 114.323 22.5025 114.854 22.7751C114.707 24.0267 113.679 24.9724 112.452 24.9835ZM123.95 17.6461L121.622 23.6929H121.549L119.136 17.6461H116.954L120.574 26.0989L118.511 30.7967H120.623L126.191 17.6461H123.95ZM105.698 26.5689H107.725V12.6284H105.698V26.5689Z" fill="white"/>
<path id="Vector_3" fill-rule="evenodd" clip-rule="evenodd" d="M0.685428 2.18071C0.372277 2.52904 0.191406 3.06128 0.191406 3.75794V28.4669C0.191406 29.1636 0.372277 29.6958 0.696226 30.0302L0.779913 30.1055L14.1914 16.2615V15.9522L0.769115 2.10547L0.685428 2.18071Z" fill="url(#paint0_linear_4422_36426)"/>
<path id="Vector_4" fill-rule="evenodd" clip-rule="evenodd" d="M18.6657 20.1055L14.1914 15.7577V15.4533L18.6657 11.1055L18.7629 11.1632L24.0553 14.0862C25.5701 14.9154 25.5701 16.2851 24.0553 17.1247L18.7629 20.0477L18.6657 20.1055Z" fill="url(#paint1_linear_4422_36426)"/>
<path id="Vector_5" fill-rule="evenodd" clip-rule="evenodd" d="M20.1914 20.0287L15.1316 15.1055L0.191406 29.6425C0.738328 30.2125 1.65584 30.2764 2.68095 29.721L20.1914 20.0287Z" fill="url(#paint2_linear_4422_36426)"/>
<path id="Vector_6" fill-rule="evenodd" clip-rule="evenodd" d="M20.1914 10.1794L2.68095 0.495934C1.65584 -0.074364 0.735339 0.00419787 0.191406 0.574496L15.1316 15.1055L20.1914 10.1794Z" fill="url(#paint3_linear_4422_36426)"/>
<path id="Vector_7" opacity="0.2" fill-rule="evenodd" clip-rule="evenodd" d="M20.0719 20.1055L2.68095 29.5525C1.70964 30.0868 0.842931 30.0497 0.284054 29.5639L0.191406 29.6525L0.284054 29.7296C0.842931 30.2126 1.70964 30.2526 2.68095 29.7182L20.1914 20.2083L20.0719 20.1055Z" fill="white"/>
<path id="Vector_8" opacity="0.12" fill-rule="evenodd" clip-rule="evenodd" d="M23.9914 16.6442L18.1914 19.9991L18.2958 20.1055L23.9769 16.8155C24.7914 16.3429 25.1914 15.7227 25.1914 15.1055C25.1421 15.6725 24.7276 16.21 23.9914 16.6442Z" fill="white"/>
<path id="Vector_9" opacity="0.25" fill-rule="evenodd" clip-rule="evenodd" d="M2.93617 0.669588L24.0595 13.59C24.7457 14.006 25.132 14.5499 25.1914 15.1055C25.1914 14.4976 24.8186 13.8867 24.0595 13.4213L2.93617 0.500883C1.4206 -0.43281 0.191406 0.346722 0.191406 2.2112V2.3799C0.191406 0.512518 1.4206 -0.25247 2.93617 0.669588Z" fill="white"/>
</g>
<defs>
<linearGradient id="paint0_linear_4422_36426" x1="12.9884" y1="3.49135" x2="-8.58242" y2="9.05939" gradientUnits="userSpaceOnUse">
<stop stop-color="#00A0FF"/>
<stop offset="0.00657" stop-color="#00A1FF"/>
<stop offset="0.2601" stop-color="#00BEFF"/>
<stop offset="0.5122" stop-color="#00D2FF"/>
<stop offset="0.7604" stop-color="#00DFFF"/>
<stop offset="1" stop-color="#00E3FF"/>
</linearGradient>
<linearGradient id="paint1_linear_4422_36426" x1="26.0308" y1="15.6055" x2="-0.169281" y2="15.6055" gradientUnits="userSpaceOnUse">
<stop stop-color="#FFE000"/>
<stop offset="0.4087" stop-color="#FFBD00"/>
<stop offset="0.7754" stop-color="#FFA500"/>
<stop offset="1" stop-color="#FF9C00"/>
</linearGradient>
<linearGradient id="paint2_linear_4422_36426" x1="17.4401" y1="17.7844" x2="-0.89101" y2="49.4929" gradientUnits="userSpaceOnUse">
<stop stop-color="#FF3A44"/>
<stop offset="1" stop-color="#C31162"/>
</linearGradient>
<linearGradient id="paint3_linear_4422_36426" x1="-3.57071" y1="-8.0216" x2="4.61452" y2="6.14372" gradientUnits="userSpaceOnUse">
<stop stop-color="#32A071"/>
<stop offset="0.0685" stop-color="#2DA771"/>
<stop offset="0.4762" stop-color="#15CF74"/>
<stop offset="0.8009" stop-color="#06E775"/>
<stop offset="1" stop-color="#00F076"/>
</linearGradient>
</defs>
</svg>
