<svg width="71" height="71" viewBox="0 0 71 71" fill="none" xmlns="http://www.w3.org/2000/svg">
<g clip-path="url(#clip0_4877_10064)">
<path d="M65.8208 70.4546C64.5146 70.0859 63.613 69.1625 62.6943 68.2359C59.0617 64.5796 55.4212 60.9312 51.7589 57.3031C50.5574 56.1124 50.0824 54.7796 50.6027 53.1296C50.6605 52.9484 50.6183 52.6406 50.4949 52.5109C49.4949 51.4578 48.4637 50.4328 47.4075 49.364C43.5108 52.4218 39.2063 53.6046 34.4034 52.5406C30.638 51.7062 27.6397 49.6546 25.421 46.5031C21.0587 40.3078 22.0805 31.8125 27.7725 26.7562C33.441 21.7203 41.9953 21.7453 47.6638 26.8046C53.2385 31.7796 54.7056 40.7187 49.1043 47.6421C50.1543 48.6953 51.2058 49.7687 52.287 50.8078C52.4026 50.9187 52.7213 50.8906 52.9166 50.8312C54.4728 50.3687 55.7696 50.7781 56.8993 51.9109C60.8132 55.839 64.7396 59.7531 68.6597 63.6749C71.1752 66.1921 70.5205 69.1437 67.1816 70.3531C67.1379 70.3687 67.1051 70.4203 67.0676 70.4562H65.8176L65.8208 70.4546ZM37.7142 25.4281C30.7926 25.4234 25.1804 30.9984 25.1663 37.8921C25.1523 44.8593 30.7317 50.475 37.6705 50.4796C44.592 50.4843 50.2043 44.9093 50.2199 38.0125C50.2355 31.0484 44.6545 25.4328 37.7126 25.4265L37.7142 25.4281Z" fill="white"/>
<path d="M28.9432 0.45459C28.9354 0.557715 28.9089 0.663965 28.9198 0.763965C29.1745 3.00146 28.5683 5.0499 27.6777 7.08115C26.5746 9.5999 25.5965 12.1733 24.5981 14.7374C24.4013 15.2421 24.1763 15.4452 23.6029 15.4437C16.3751 15.4218 9.14726 15.4202 1.92102 15.4405C1.13824 15.4421 0.563265 15.2108 0.191406 14.5187C0.191406 14.3108 0.191406 14.1015 0.191406 13.8937C2.64598 9.80772 5.09275 5.72021 7.56764 1.64834C7.8395 1.1999 8.27229 0.849902 8.63009 0.45459C15.4017 0.45459 22.1732 0.45459 28.9432 0.45459Z" fill="white"/>
<path d="M51.7583 0.45459C52.1005 0.832715 52.5145 1.16553 52.7739 1.59365C55.1191 5.46084 57.4346 9.34521 59.7657 13.2202C60.0704 13.7249 60.4454 14.303 59.9657 14.7812C59.6111 15.1343 58.9939 15.3983 58.4908 15.4015C51.2583 15.4405 44.0258 15.4202 36.7949 15.4421C36.2308 15.4437 35.9918 15.2593 35.7918 14.7468C34.5044 11.4577 33.1607 8.19209 31.8826 4.8999C31.6373 4.26709 31.5467 3.55615 31.4857 2.87178C31.4139 2.07178 31.4529 1.26084 31.4451 0.456152C38.2167 0.456152 44.9883 0.456152 51.7583 0.456152V0.45459Z" fill="white"/>
<path d="M20.1159 37.928C19.1534 37.928 18.2222 37.928 17.291 37.928C14.688 37.928 12.085 37.928 9.48198 37.928C8.35703 37.928 7.87581 37.5015 7.73831 36.3874C7.71644 36.2077 7.72112 36.0233 7.72112 35.8421C7.72112 30.1421 7.72112 24.4405 7.72112 18.7405C7.72112 18.5124 7.73987 18.2858 7.75394 17.9843H8.71796C13.9771 17.9843 19.2347 17.9843 24.4938 17.9843C25.9969 17.9843 26.0812 17.9249 26.6578 16.4921C27.3656 14.7327 28.0749 12.9749 28.8671 11.0093C28.8952 11.3608 28.9171 11.514 28.9171 11.6671C28.9186 15.1546 28.9311 18.6437 28.8983 22.1312C28.8952 22.453 28.7046 22.9046 28.4514 23.0718C23.2173 26.5343 20.4206 31.3655 20.1643 37.6483C20.1628 37.6999 20.1471 37.7515 20.1159 37.9312V37.928Z" fill="white"/>
<path d="M31.4883 21.5606V11.0591C31.6445 11.3794 31.7523 11.5653 31.832 11.7638C32.5023 13.4278 33.1648 15.0935 33.8351 16.7575C34.2647 17.8216 34.5006 17.9794 35.6381 17.9794C40.9769 17.9794 46.3142 17.9794 51.653 17.9794C51.9608 17.9794 52.267 17.9794 52.6217 17.9794V28.7575C50.3124 25.2013 47.2751 22.7044 43.3487 21.3653C39.4161 20.0231 35.4834 20.1153 31.4883 21.5606Z" fill="white"/>
</g>
<defs>
<clipPath id="clip0_4877_10064">
<rect width="70" height="70" fill="white" transform="translate(0.191406 0.45459)"/>
</clipPath>
</defs>
</svg>
