<svg width="70" height="70" viewBox="0 0 70 70" fill="none" xmlns="http://www.w3.org/2000/svg">
<g clip-path="url(#clip0_4877_10048)">
<path d="M69.1914 31.2637C68.837 32.482 68.6092 33.7541 68.1052 34.9064C66.8424 37.7917 64.7212 39.8981 61.848 41.2094C61.4451 41.3927 61.3548 41.6096 61.3629 42.018C61.4922 48.0474 57.1663 52.4165 51.618 53.3571C48.4577 53.8935 45.4996 53.3248 42.8299 51.4812C42.7598 51.4327 42.6736 51.4044 42.7127 51.4233C41.8609 52.3855 41.0416 53.3005 40.2384 54.2291C40.1346 54.349 40.0416 54.539 40.0524 54.6886C40.1036 55.3827 40.1588 56.0794 40.2882 56.7613C40.3273 56.9716 40.5658 57.2047 40.7734 57.3125C42.0887 57.9904 43.4215 58.6359 44.749 59.2895C45.7894 59.803 46.0912 60.2922 45.7557 60.9283C45.4241 61.5563 44.8878 61.6088 43.8811 61.1143C42.6385 60.5038 41.3946 59.8933 40.1494 59.2828C38.3179 63.3177 31.205 63.3244 29.3601 59.2774C28.1135 59.8812 26.8669 60.4849 25.6217 61.09C24.4923 61.6398 23.3724 62.2099 22.235 62.7409C20.8833 63.3716 20.2472 64.4187 20.2742 65.8998C20.2904 66.7758 20.2472 67.6531 20.2877 68.5264C20.316 69.1476 20.1408 69.6207 19.599 69.9414H18.9252C18.3929 69.6126 18.2217 69.1342 18.246 68.5169C18.2837 67.552 18.2352 66.5857 18.2608 65.6195C18.316 63.5279 19.2634 61.97 21.1461 61.0361C23.6366 59.7989 26.1378 58.5847 28.6485 57.388C29.0744 57.1858 29.1957 56.9028 29.29 56.477C29.5797 55.1711 29.4652 54.0754 28.2846 53.1712C27.7052 52.7264 27.3629 51.9718 26.8723 51.302C26.7295 51.3869 26.561 51.4799 26.402 51.585C21.9924 54.531 15.6396 54.0943 11.6694 50.581C11.2974 50.2521 11.0454 49.8532 11.2624 49.4058C11.4079 49.108 11.7664 48.7724 12.0683 48.7306C12.3823 48.6862 12.7974 48.9058 13.0763 49.1255C15.273 50.864 17.7716 51.6227 20.5478 51.4543C22.5234 51.3343 24.2969 50.647 25.9303 49.3384C25.7106 49.2697 25.5786 49.2172 25.4424 49.1889C23.0867 48.6956 21.4817 46.7536 21.4466 44.3508C21.4264 42.9088 22.049 42.0355 23.4237 41.5827C23.5894 41.5288 23.7552 41.4762 23.8306 41.452C23.4668 40.2027 23.0086 39.0073 22.7795 37.7688C22.1986 34.6395 23.6824 31.5197 26.3252 30.3823C27.1823 30.013 28.189 29.9969 29.1256 29.8109C29.3493 29.7664 29.6323 29.7503 29.7765 29.6087C32.682 26.7571 36.0795 26.5267 39.7006 27.8164C43.0064 28.9942 45.3689 31.1545 46.2004 34.6881C46.7395 36.9818 46.3581 39.1892 45.3541 41.3374C45.4538 41.3859 45.5427 41.4533 45.6425 41.4776C47.5898 41.9533 48.389 43.1796 47.9833 45.1782C47.5494 47.317 46.2516 48.6687 44.1304 49.2158C43.9795 49.2549 43.8285 49.298 43.5819 49.3654C44.6169 50.2346 45.7435 50.7683 46.9672 51.1241C52.06 52.6038 57.5975 49.7104 58.9667 44.7618C59.278 43.6392 59.2861 42.4169 59.3131 41.2363C59.3373 40.1959 59.3764 40.018 60.3643 39.6421C64.5663 38.041 67.2804 34.0681 67.1591 29.6923C67.0473 25.6399 64.4221 21.977 60.5704 20.4986C59.5786 20.1186 59.4519 19.8962 59.6109 18.8329C60.5799 12.3385 55.7108 6.80506 49.2043 7.02068C47.7259 7.0692 46.3298 7.46541 45.0104 8.1352C44.1317 8.58127 43.7557 8.47615 43.214 7.65408C39.1023 1.41174 30.2671 1.39961 26.181 7.63117C25.6203 8.48559 25.2592 8.58127 24.3333 8.11902C17.4293 4.67307 9.4835 9.685 9.63309 17.3976C9.64252 17.9111 9.71395 18.4272 9.78807 18.9367C9.91879 19.8369 9.76381 20.1401 8.89861 20.4689C6.51596 21.3746 4.69258 22.9325 3.46621 25.1642C0.493281 30.571 3.01609 37.4103 8.78541 39.6138C9.90801 40.0423 9.98752 40.1515 9.91475 41.3414C9.82984 42.7228 9.95113 44.0718 10.4174 45.3871C10.6613 46.0744 10.4107 46.6081 9.81771 46.8075C9.25844 46.9962 8.68973 46.7415 8.54418 46.0555C8.25848 44.7038 8.06981 43.3306 7.88383 41.96C7.83936 41.6298 7.83262 41.4075 7.4701 41.2363C3.36109 39.3011 0.956875 36.0869 0.297871 31.5817C0.281699 31.4739 0.227793 31.3715 0.191406 31.265C0.191406 30.4564 0.191406 29.6478 0.191406 28.8392C0.225098 28.7584 0.279004 28.6802 0.291133 28.5953C0.928574 24.1507 3.25867 20.9352 7.2949 18.9677C7.64125 18.7992 7.70729 18.6092 7.66686 18.2359C6.9243 11.4383 12.4362 5.16361 19.2756 4.98707C21.1879 4.93721 23.0126 5.31186 24.7821 6.07328C26.0691 4.3065 27.6472 2.90764 29.6363 2.08826C30.8668 1.58154 32.1955 1.31605 33.4799 0.941406C34.2885 0.941406 35.0971 0.941406 35.9056 0.941406C36.7318 1.13547 37.574 1.27428 38.3799 1.53168C40.9378 2.34836 42.997 3.88064 44.594 6.0598C44.7193 6.01533 44.8231 5.98434 44.9228 5.94256C47.0238 5.07871 49.1922 4.81861 51.4509 5.11105C57.5827 5.90348 62.3952 11.9504 61.7308 18.1038C61.6796 18.5768 61.7591 18.7979 62.2146 19.0202C65.6107 20.6846 67.8101 23.3556 68.7925 27.0132C68.9542 27.6142 69.062 28.2288 69.1941 28.8365V31.2623L69.1914 31.2637ZM31.0271 36.2581C30.4679 37.5505 29.6269 38.537 28.4814 39.2795C28.2159 39.452 28.0232 39.7741 27.8642 40.0639C27.251 41.177 26.7874 42.3279 26.9855 43.65C27.1108 44.4909 27.1364 45.3494 27.2928 46.1849C27.7429 48.5864 28.5973 50.8101 30.4261 52.5256C32.054 54.0539 33.9731 54.7129 36.1819 54.1294C38.5605 53.5 40.1063 51.8747 41.1521 49.7239C42.2356 47.4975 42.559 45.1014 42.5833 42.6635C42.5914 41.9155 42.4148 41.1555 42.241 40.421C42.0887 39.7809 41.6453 39.4129 40.9499 39.3267C40.2626 39.2431 39.5807 39.0909 38.9028 38.9399C36.2129 38.3362 33.5122 37.7607 31.0271 36.2581ZM43.9821 39.3065C44.5468 37.4548 44.5913 35.7851 43.9296 34.1477C42.8299 31.4267 40.613 30.0548 37.8988 29.381C35.1065 28.6883 32.643 29.2071 30.7643 31.5602C30.3991 32.017 29.9301 32.0291 29.4221 31.9159C28.1499 31.6343 27.0664 32.0359 26.1446 32.8876C24.4411 34.4617 24.1864 38.068 25.5449 39.824C26.1028 39.1151 26.5704 38.2459 27.282 37.6839C28.1957 36.9616 28.879 36.1557 29.3412 35.0964C29.8142 34.0129 31.0083 33.7649 32.0015 34.3902C32.7346 34.8525 33.4987 35.3322 34.3181 35.5762C36.3544 36.184 38.415 36.7284 40.4931 37.1664C41.8879 37.4615 43.2261 37.7216 43.9835 39.3065H43.9821ZM31.4072 55.6145C31.3263 56.2789 31.2387 56.8314 31.1956 57.3866C31.1053 58.5497 31.5352 59.3273 32.5998 59.8232C33.9731 60.462 35.3895 60.4566 36.7776 59.8852C37.5525 59.5658 38.2115 59.0092 38.2802 58.1278C38.3436 57.3206 38.1967 56.4958 38.136 55.5983C35.8437 56.5659 33.6658 56.605 31.4072 55.6145ZM25.3171 46.9463C25.1756 45.7456 25.0395 44.596 24.9034 43.4478C23.9951 43.3602 23.5369 43.5853 23.4749 44.1459C23.3428 45.3453 24.0786 46.4935 25.3171 46.9463ZM44.2247 46.9679C45.2961 46.5164 45.8406 45.7793 46.0036 44.7618C46.1748 43.6971 45.7476 43.3077 44.6263 43.468C44.497 44.596 44.3676 45.724 44.2247 46.9679Z" fill="white"/>
<path d="M27.9541 69.9415C27.4446 69.6382 27.2075 69.207 27.2641 68.6005C27.2991 68.2219 27.2614 67.8378 27.2762 67.4577C27.3287 66.0804 28.3974 64.9632 29.7693 64.9524C33.0886 64.9268 36.4093 64.9322 39.7299 64.9511C40.8552 64.9578 41.8578 65.699 42.095 66.7974C42.2567 67.5494 42.246 68.3566 42.188 69.1302C42.1664 69.4159 41.7851 69.6733 41.5667 69.9442H40.8929C40.3633 69.6167 40.1463 69.1437 40.2177 68.5251C40.2406 68.3256 40.2231 68.1221 40.2204 67.92C40.2137 67.0763 40.1005 66.9672 39.2312 66.9618C38.9401 66.9605 38.6477 66.9618 38.3566 66.9618C35.6667 66.9618 32.9754 66.9605 30.2855 66.9618C29.3826 66.9618 29.2963 67.0548 29.2923 67.9779C29.2923 68.1572 29.2748 68.3391 29.295 68.5156C29.3637 69.1302 29.1481 69.6059 28.6279 69.9428H27.9541V69.9415Z" fill="white"/>
<path d="M49.7847 69.9416C49.2443 69.6235 49.0678 69.1545 49.0947 68.5346C49.1352 67.5966 49.1015 66.6546 49.1069 65.7153C49.1109 64.9242 48.8778 64.2248 48.3764 63.6062C47.8764 62.989 47.8738 62.4055 48.3427 62.0093C48.8454 61.5861 49.4141 61.7033 49.9559 62.3529C50.7133 63.2639 51.096 64.3205 51.1203 65.4997C51.1405 66.5064 51.0987 67.5144 51.1364 68.5211C51.1593 69.137 50.9841 69.61 50.4586 69.9416H49.7847Z" fill="white"/>
<path d="M8.7799 35.4318C8.96723 34.3105 9.19229 33.0747 9.36344 31.8308C9.39578 31.595 9.28662 31.2608 9.12086 31.0883C8.32979 30.2608 7.50502 29.4657 6.67486 28.676C6.19106 28.2164 5.97004 27.68 6.16815 27.0386C6.3649 26.3998 6.83524 26.0669 7.50637 25.978C8.63975 25.827 9.77447 25.672 10.8971 25.4591C11.1693 25.4079 11.4927 25.1694 11.6262 24.9254C12.1639 23.9416 12.6423 22.9269 13.1288 21.9161C13.4158 21.3191 13.8565 20.931 14.5277 20.9202C15.2284 20.9081 15.6907 21.2962 15.9899 21.9215C16.4737 22.9336 16.9534 23.947 17.4912 24.9295C17.6232 25.1707 17.9507 25.4012 18.2243 25.4537C19.3698 25.6707 20.5274 25.8243 21.6824 25.9901C22.2982 26.0777 22.7362 26.4038 22.9289 26.9793C23.1284 27.5763 22.9977 28.1315 22.53 28.5857C21.7093 29.3848 20.9061 30.2015 20.0638 30.9764C19.7377 31.2756 19.6663 31.5761 19.7431 31.9872C19.9479 33.0895 20.1177 34.1987 20.3199 35.301C20.4371 35.9398 20.2646 36.4641 19.7552 36.8522C19.2418 37.2444 18.6838 37.2592 18.1124 36.9587C17.1003 36.425 16.0761 35.9156 15.0802 35.3536C14.6948 35.1366 14.3996 35.1595 14.0277 35.3644C13.0075 35.9277 11.9806 36.4856 10.9294 36.9883C9.83781 37.5112 8.726 36.7457 8.78125 35.4291L8.7799 35.4318ZM10.951 34.704C11.8809 34.2175 12.7231 33.8119 13.529 33.3442C14.2204 32.9426 14.8632 32.9292 15.5586 33.3213C16.3739 33.7822 17.2135 34.1987 18.1542 34.6932C17.9871 33.6731 17.886 32.7634 17.6785 31.878C17.479 31.0303 17.7203 30.4117 18.3442 29.839C19.01 29.2285 19.6137 28.5493 20.3145 27.8283C19.3698 27.6935 18.514 27.5372 17.6515 27.4577C16.727 27.3714 16.1314 26.9456 15.7715 26.0763C15.436 25.265 14.998 24.4955 14.556 23.6115C14.1678 24.3945 13.7811 25.0346 13.5263 25.7232C13.0924 26.8971 12.3148 27.4712 11.0561 27.5143C10.3203 27.5385 9.58984 27.7232 8.88906 27.8296C9.59524 28.5789 10.2367 29.2986 10.9213 29.9751C11.4334 30.4818 11.6005 31.0478 11.4644 31.7459C11.2812 32.6879 11.1343 33.6353 10.9496 34.7027L10.951 34.704Z" fill="white"/>
<path d="M34.6852 7.00734C39.2471 6.99791 43.1162 10.5908 43.4342 15.1324C43.755 19.709 40.5112 23.7358 35.9466 24.4245C31.2204 25.1374 26.7071 21.8033 26.0508 17.1134C25.9322 16.2644 26.2004 15.7604 26.8297 15.6512C27.447 15.5447 27.8823 15.9544 28.0426 16.7913C28.6329 19.8761 30.68 21.9165 33.692 22.4178C37.2175 23.0054 40.7093 20.5068 41.3063 16.9706C41.9289 13.2861 39.5381 9.78756 35.9682 9.1582C33.0761 8.64744 30.4563 9.82664 28.8876 12.3468C28.4388 13.0678 27.8917 13.2699 27.3405 12.9168C26.8068 12.5745 26.7395 12.0287 27.1451 11.3239C28.6599 8.69057 31.5856 7.01408 34.6825 7.00734H34.6852Z" fill="white"/>
<path d="M47.2188 28.1764C47.3104 26.3113 48.1715 24.7264 49.9437 23.7453C51.6984 22.7737 53.4773 22.8572 55.1726 23.9461C55.4893 24.1496 55.6861 24.1456 56.0001 23.9421C57.8625 22.7332 60.0848 22.7939 61.799 24.0674C63.5658 25.3787 64.3407 27.6589 63.7356 29.7599C63.5402 30.4405 63.0887 30.776 62.5281 30.6615C61.9284 30.5389 61.6724 30.0389 61.7573 29.3152C61.8233 28.7438 61.9069 28.1441 61.8058 27.5902C61.5861 26.3894 60.8179 25.5835 59.6563 25.2264C58.469 24.8612 57.4421 25.2507 56.5715 26.0781C55.7359 26.8719 55.4165 26.8881 54.6187 26.0943C53.5999 25.0809 52.1754 24.8369 50.972 25.469C49.7146 26.1307 48.9249 27.6158 49.3386 28.9823C49.6297 29.9432 50.1256 30.8946 50.7361 31.6951C51.9207 33.249 53.5231 34.3527 55.2279 35.2853C55.4246 35.3931 55.8114 35.3689 55.9987 35.2408C57.0742 34.5117 58.1294 33.7503 59.1644 32.9646C59.7951 32.4849 60.3584 32.4229 60.7721 32.877C61.1926 33.3379 61.1441 33.9902 60.5201 34.4511C59.1145 35.4861 57.6806 36.4874 56.2117 37.4294C55.9192 37.6167 55.3438 37.6235 55.023 37.4631C52.7145 36.3082 50.6378 34.8271 48.9963 32.8056C47.9397 31.5051 47.2417 30.0456 47.2201 28.1764H47.2188Z" fill="white"/>
<path d="M37.3922 17.5431C37.3639 18.225 36.9582 18.9204 36.213 19.4608C35.9799 19.6292 35.7696 19.9284 35.7022 20.2047C35.5661 20.764 35.2683 21.1117 34.7077 21.1251C34.1794 21.1386 33.798 20.8421 33.7225 20.3004C33.674 19.9527 33.5379 19.7909 33.1942 19.7505C32.9975 19.7276 32.8034 19.6467 32.6201 19.5659C32.0892 19.3314 31.8762 18.9001 32.0366 18.3597C32.197 17.8166 32.6188 17.5754 33.1862 17.663C33.4732 17.7075 33.7495 17.8409 34.0365 17.8571C34.3627 17.8759 34.7131 17.8625 35.0176 17.7587C35.1726 17.7061 35.3276 17.4312 35.337 17.2493C35.3438 17.1118 35.1456 16.8975 34.9893 16.8342C34.6187 16.6819 34.2171 16.6078 33.833 16.4825C32.8223 16.1536 32.1862 15.4731 32.0595 14.4111C31.9396 13.4071 32.3762 12.6052 33.1956 12.0527C33.5258 11.8303 33.6848 11.608 33.7239 11.2145C33.7751 10.7024 34.1363 10.4166 34.6376 10.3883C35.1416 10.36 35.585 10.6161 35.62 11.112C35.6591 11.6915 35.9879 11.9058 36.4098 12.1443C36.9165 12.4314 37.1307 12.8856 36.9259 13.457C36.7291 14.0082 36.085 14.2292 35.5216 13.9623C35.2993 13.8572 35.0769 13.6362 34.868 13.6524C34.6025 13.6726 34.3505 13.8788 34.0918 14.0055C34.2522 14.2022 34.3748 14.4771 34.581 14.5769C34.9597 14.7588 35.399 14.81 35.7952 14.9609C36.8046 15.3477 37.4003 16.2412 37.3908 17.5417L37.3922 17.5431Z" fill="white"/>
</g>
<defs>
<clipPath id="clip0_4877_10048">
<rect width="69" height="69" fill="white" transform="translate(0.191406 0.941406)"/>
</clipPath>
</defs>
</svg>
