<svg width="74" height="73" viewBox="0 0 74 73" fill="none" xmlns="http://www.w3.org/2000/svg">
<g clip-path="url(#clip0_4877_10077)">
<path d="M66.7754 0.45459C67.5724 0.658684 68.4279 0.743724 69.1579 1.08813C71.3664 2.1327 72.44 3.97664 72.4457 6.37191C72.4671 17.5914 72.4614 28.811 72.4514 40.0319C72.4486 43.4746 69.8551 45.8004 66.9693 45.8486C65.4038 45.8755 63.8354 45.8826 62.2713 45.816C61.5214 45.7848 61.0765 45.1782 61.0409 44.4086C61.011 43.7581 61.433 43.2365 62.1616 43.065C62.4353 43.0012 62.7233 42.97 63.0042 42.9686C64.2161 42.9573 65.428 42.9757 66.6399 42.9601C68.3637 42.9388 69.4402 41.9084 69.4915 40.1963C69.5286 38.9689 69.5043 37.7401 69.5043 36.5113C69.5043 26.6382 69.5043 16.7651 69.5029 6.89065C69.5029 6.46546 69.5072 6.03601 69.4459 5.6179C69.2862 4.51522 68.2397 3.56136 67.1119 3.46357C66.8053 3.43664 66.4945 3.44089 66.1865 3.44089C46.2741 3.44089 26.3616 3.43805 6.45059 3.45081C5.87029 3.45081 5.24152 3.49049 4.71826 3.70876C3.49779 4.22042 3.0943 5.27916 3.0943 6.53065C3.0943 9.46026 3.0943 12.3884 3.0943 15.3181C3.0943 23.4436 3.07861 31.5691 3.11996 39.6946C3.12424 40.433 3.35379 41.2451 3.72021 41.8872C4.21068 42.7461 5.13602 42.9743 6.12693 42.97C10.4984 42.9544 14.8712 42.9615 19.2427 42.9672C19.5721 42.9672 19.9085 42.9969 20.2279 43.0706C20.9194 43.2308 21.3372 43.7439 21.3272 44.3604C21.3144 45.1229 20.8638 45.6884 20.1395 45.8203C19.8843 45.867 19.6205 45.884 19.361 45.884C15.0124 45.8883 10.6638 45.884 6.31656 45.8883C3.82145 45.8911 1.89949 44.916 0.765996 42.644C0.50793 42.1253 0.379609 41.5428 0.191406 40.9886C0.191406 29.1313 0.191406 17.274 0.191406 5.41522C0.228477 5.3316 0.282656 5.25223 0.301191 5.16577C0.814473 2.80451 2.25309 1.31632 4.58994 0.685613C4.97062 0.582149 5.36414 0.529708 5.75195 0.45459C26.0936 0.45459 46.4338 0.45459 66.7754 0.45459Z" fill="white"/>
<path d="M53.3723 72.4547C51.7426 72.1585 51.0454 71.0175 50.5164 69.5775C47.8089 62.2046 45.04 54.853 42.2982 47.4928C41.2859 44.7772 42.3239 42.3437 44.8276 41.4805C45.8955 41.112 46.9277 41.2254 47.9571 41.6067C55.6849 44.4768 63.4112 47.3497 71.1418 50.2127C72.2311 50.6166 72.8898 51.3749 73.1906 52.4705V53.4626C72.7729 54.6744 71.8475 55.3235 70.6998 55.7856C69.3824 56.3157 68.0992 56.9294 66.8017 57.5076C66.555 57.6182 66.3112 57.7372 65.9947 57.886C67.7171 59.5939 69.3752 61.2139 71.0078 62.8608C72.7401 64.6084 72.733 66.8194 71.0135 68.5783C70.4845 69.1197 69.9427 69.6498 69.4023 70.1813C67.5559 71.9955 65.3317 72.0082 63.4939 70.2026C62.0752 68.8093 60.6651 67.4076 59.2707 65.9903C59.0283 65.7437 58.8801 65.4035 58.689 65.1059C57.7808 66.7812 57.0921 68.2268 56.5104 69.715C55.9529 71.1423 55.1659 72.2464 53.5148 72.4547H53.3723ZM53.5148 69.2133C53.6703 68.8816 53.7415 68.7342 53.8086 68.584C54.7082 66.5317 55.6136 64.4808 56.5033 62.4257C56.787 61.7709 57.2176 61.2168 57.959 61.2848C58.4252 61.3273 58.9471 61.6249 59.295 61.9608C61.4065 64.0018 63.4725 66.0895 65.5598 68.1545C66.2186 68.8051 66.6534 68.7994 67.3207 68.1545C67.814 67.6769 68.2988 67.1894 68.7821 66.7032C69.5563 65.9251 69.5592 65.5212 68.7821 64.7459C66.7361 62.7064 64.6787 60.6768 62.6384 58.6301C61.6532 57.6408 61.8599 56.5552 63.1289 55.9741C64.0756 55.5404 65.0337 55.1279 65.9862 54.7042C67.2722 54.1316 68.5583 53.5547 69.9769 52.9212C69.619 52.7752 69.4109 52.6816 69.197 52.6023C64.3764 50.8207 59.5559 49.0419 54.7339 47.2618C52.1789 46.3193 49.6239 45.3768 47.0689 44.4328C46.4145 44.1919 45.77 44.087 45.2139 44.6412C44.6536 45.1996 44.7919 45.8416 45.0272 46.4865C45.0357 46.5092 45.0471 46.529 45.0557 46.5517C47.2485 52.4265 49.4414 58.3013 51.6342 64.1775C52.2416 65.8046 52.8476 67.4317 53.5134 69.2175L53.5148 69.2133Z" fill="white"/>
<path d="M25.4504 21.547C26.8106 22.0587 27.572 22.9856 27.7202 24.3066C27.9213 26.1066 27.9441 27.9052 26.7079 29.4274C25.7184 30.6448 24.3069 30.8631 22.8583 30.8957C21.3399 30.9311 19.82 30.9283 18.3001 30.8971C16.9185 30.8688 16.582 30.5003 16.582 29.1524C16.582 24.5277 16.582 19.9015 16.582 15.2768C16.582 13.9601 16.9413 13.5859 18.2702 13.6015C20.1893 13.6228 22.1255 13.5307 24.0232 13.7546C26.39 14.0338 27.5449 15.7034 27.3752 18.103C27.2754 19.5146 26.8448 20.7278 25.4504 21.5485V21.547ZM19.8 22.8538V28.0356C20.8964 28.0356 21.9601 28.0979 23.0123 28.0157C23.8236 27.9519 24.431 27.29 24.5194 26.4538C24.5935 25.7579 24.5935 25.0422 24.5208 24.3448C24.4338 23.5086 23.8991 22.9417 23.0451 22.8737C21.9929 22.79 20.9278 22.8538 19.8 22.8538ZM19.7843 20.2488C20.7895 20.2488 21.7377 20.3041 22.6772 20.2332C23.6297 20.1609 24.0945 19.5217 24.1643 18.3992C24.2285 17.3603 23.8207 16.6034 22.894 16.4872C21.8802 16.3596 20.8366 16.4589 19.7843 16.4589V20.2488Z" fill="white"/>
<path d="M41.2776 20.5024C41.2776 22.3676 41.3261 24.2356 41.2634 26.0994C41.2064 27.8115 40.5662 29.2614 39.0221 30.2068C37.0516 31.4129 32.7001 31.3818 31.0249 29.304C30.1394 28.2055 29.8543 26.937 29.84 25.6047C29.803 22.0147 29.8315 18.4246 29.8215 14.8359C29.8201 14.2194 30.1081 13.824 30.6869 13.7162C31.1418 13.6312 31.6337 13.6043 32.0856 13.6851C32.7073 13.7956 33.0352 14.1882 33.0309 14.8884C33.0081 18.2418 33.0209 21.5951 33.0209 24.9499C33.0209 25.2093 33.0167 25.4701 33.0252 25.7295C33.0979 27.8569 35.2466 28.9978 37.073 27.8668C37.8586 27.3806 38.0953 26.6025 38.0967 25.7323C38.101 22.2372 38.1039 18.7421 38.101 15.2469C38.101 14.6673 38.0625 14.0706 38.7184 13.797C39.4541 13.4895 40.2254 13.4512 40.887 13.9331C41.1194 14.1032 41.2719 14.5269 41.2776 14.8373C41.3133 16.7266 41.2948 18.6159 41.2948 20.5052C41.2891 20.5052 41.2848 20.5052 41.2791 20.5052L41.2776 20.5024Z" fill="white"/>
<path d="M49.3928 20.9237C50.5562 18.7424 51.6983 16.7298 52.712 14.6535C53.3351 13.3793 54.1249 13.3637 55.3354 14.0015C56.0726 14.3898 56.1667 14.8576 55.7461 15.5889C54.3303 18.0451 52.9187 20.5042 51.4773 22.9462C51.1279 23.5387 50.9569 24.1269 50.9725 24.8157C51.0082 26.3733 50.9882 27.9324 50.9825 29.4914C50.9782 30.4354 50.4863 30.8605 49.4142 30.8691C48.3234 30.879 47.793 30.4269 47.7902 29.4687C47.7845 27.8161 47.8159 26.1621 47.7717 24.5095C47.7588 24.0404 47.6319 23.5245 47.4024 23.1177C45.9937 20.6303 44.5394 18.1684 43.1037 15.6966C42.5747 14.7853 42.7372 14.3048 43.7125 13.8654C44.9187 13.3212 45.4619 13.4998 46.0736 14.652C47.1571 16.693 48.2365 18.7354 49.3956 20.9237H49.3928Z" fill="white"/>
<path d="M46.6991 33.5647C46.6991 34.4137 46.7148 35.2641 46.6948 36.113C46.672 37.0839 46.1145 37.7175 45.2847 37.7614C44.4449 37.8053 43.7705 37.2427 43.7392 36.2704C43.6793 34.4094 43.6779 32.5428 43.7363 30.6819C43.7677 29.6827 44.395 29.1526 45.2676 29.1823C46.1074 29.2107 46.672 29.8315 46.6948 30.8038C46.7162 31.7236 46.6991 32.6434 46.6991 33.5647Z" fill="white"/>
<path d="M57.6913 33.0843C57.5516 33.3125 57.3848 33.7405 57.0882 34.0466C55.8692 35.3038 54.6216 36.5326 53.3655 37.7544C52.6298 38.4701 51.7772 38.5169 51.1512 37.923C50.5096 37.3136 50.5396 36.4178 51.2767 35.6709C52.5228 34.4066 53.7875 33.1608 55.0522 31.9164C55.5498 31.4274 56.1472 31.2418 56.8059 31.5309C57.3748 31.7803 57.6585 32.2566 57.6913 33.0843Z" fill="white"/>
<path d="M34.1249 45.823C33.0613 45.823 31.9919 45.8825 30.9354 45.8017C30.2639 45.7507 29.8305 45.0746 29.8262 44.3617C29.8233 43.7664 30.2782 43.2364 30.944 43.0776C31.1493 43.028 31.3632 42.9841 31.5742 42.9841C33.2809 42.977 34.9875 42.9557 36.6942 42.9883C38.0444 43.0138 38.7416 43.9167 38.2996 44.991C38.0173 45.6784 37.4384 45.8811 36.7569 45.9094C36.7099 45.9108 36.6628 45.9094 36.6143 45.9094C35.7845 45.9094 34.9547 45.9094 34.1249 45.9094C34.1249 45.8811 34.1249 45.8527 34.1249 45.823Z" fill="white"/>
<path d="M35.3778 34.0168C35.6216 33.8311 35.9481 33.7971 36.2247 33.9275C36.5398 34.0763 36.8064 34.1982 37.006 34.3881C38.3249 35.6467 39.618 36.9322 40.8927 38.2362C41.5828 38.942 41.5942 39.7754 40.9953 40.3862C40.4093 40.9843 39.5239 41.0028 38.8324 40.3395C37.4993 39.0625 36.1962 37.7529 34.903 36.4347C34.441 35.9642 34.22 35.3377 34.5922 34.758C34.7789 34.4689 35.0726 34.2464 35.3778 34.0154V34.0168Z" fill="white"/>
<path d="M34.4624 56.1016C33.165 56.0889 32.4892 54.9309 33.0153 54.0096C33.1194 53.8282 33.2605 53.6596 33.4088 53.5108C34.6307 52.2876 35.854 51.0645 37.0887 49.8555C37.8373 49.1227 38.6771 49.0689 39.2887 49.684C39.889 50.2878 39.8234 51.1353 39.0905 51.8723C37.8715 53.0983 36.6539 54.3271 35.4049 55.5205C35.0969 55.8139 34.6663 55.9797 34.4624 56.1016Z" fill="white"/>
<path d="M25.5702 42.9912C26.3188 42.9912 27.0245 43.6517 27.0217 44.3504C27.0174 45.198 26.3829 45.8599 25.5731 45.8613C24.7604 45.8613 24.1302 45.2051 24.1231 44.3533C24.1174 43.6559 24.8231 42.9926 25.5717 42.9912H25.5702Z" fill="white"/>
</g>
<defs>
<clipPath id="clip0_4877_10077">
<rect width="73" height="72" fill="white" transform="translate(0.191406 0.45459)"/>
</clipPath>
</defs>
</svg>
