<svg width="73" height="73" viewBox="0 0 73 73" fill="none" xmlns="http://www.w3.org/2000/svg">
<path fill-rule="evenodd" clip-rule="evenodd" d="M65.2793 29.9531V65.9644H5.68359V29.9531H65.2793Z" fill="#745891"/>
<path fill-rule="evenodd" clip-rule="evenodd" d="M33.0616 8.68262L8.80328 27.667H4.69141C4.07041 27.667 3.56641 28.171 3.56641 28.792V68.167C3.56641 68.788 4.07041 69.292 4.69141 69.292H67.6914C68.3124 69.292 68.8164 68.788 68.8164 68.167V28.792C68.8164 28.171 68.3124 27.667 67.6914 27.667H63.5795L39.3212 8.68262C39.4798 8.29112 39.5664 7.86474 39.5664 7.41699C39.5664 5.55399 38.0544 4.04199 36.1914 4.04199C34.3284 4.04199 32.8164 5.55399 32.8164 7.41699C32.8164 7.86474 32.903 8.29112 33.0616 8.68262ZM9.18802 29.917H9.19141H59.7163H66.5664V67.042H5.81641V29.917H9.18802ZM63.1914 37.8122C63.1914 37.5141 63.0733 37.2272 62.8618 37.0169C62.6514 36.8054 62.3645 36.6872 62.0664 36.6872C61.4645 36.6872 60.8874 36.4476 60.461 36.0224C60.0358 35.596 59.7962 35.0189 59.7962 34.417C59.7962 33.796 59.2921 33.292 58.6712 33.292C49.2909 33.292 23.0919 33.292 13.7117 33.292C13.0907 33.292 12.5867 33.796 12.5867 34.417C12.5867 35.0189 12.347 35.596 11.9218 36.0224C11.4954 36.4476 10.9183 36.6872 10.3164 36.6872C10.0183 36.6872 9.73141 36.8054 9.52103 37.0169C9.30953 37.2272 9.19141 37.5141 9.19141 37.8122V59.1467C9.19141 59.4449 9.30953 59.7317 9.52103 59.9421C9.73141 60.1536 10.0183 60.2717 10.3164 60.2717C10.9183 60.2717 11.4954 60.5114 11.9218 60.9366C12.347 61.363 12.5867 61.9401 12.5867 62.542C12.5867 63.163 13.0907 63.667 13.7117 63.667H58.6712C59.2921 63.667 59.7962 63.163 59.7962 62.542C59.7962 61.9401 60.0358 61.363 60.461 60.9366C60.8874 60.5114 61.4645 60.2717 62.0664 60.2717C62.3645 60.2717 62.6514 60.1536 62.8618 59.9421C63.0733 59.7317 63.1914 59.4449 63.1914 59.1467C63.1914 53.7366 63.1914 43.2224 63.1914 37.8122ZM60.9414 38.7955V58.1635C60.164 58.3637 59.4474 58.7687 58.8703 59.3459C58.2932 59.923 57.8882 60.6396 57.6879 61.417H14.6949C14.4947 60.6396 14.0897 59.923 13.5125 59.3459C12.9354 58.7687 12.2188 58.3637 11.4414 58.1635V38.7955C12.2188 38.5952 12.9354 38.1902 13.5125 37.6131C14.0897 37.036 14.4947 36.3194 14.6949 35.542H57.6879C57.8882 36.3194 58.2932 37.036 58.8703 37.6131C59.4474 38.1902 60.164 38.5952 60.9414 38.7955ZM12.4539 27.667H59.9289L37.826 10.3701C37.3423 10.639 36.7843 10.792 36.1914 10.792C35.5985 10.792 35.0405 10.639 34.5568 10.3701L12.4539 27.667ZM36.1914 6.29199C36.8124 6.29199 37.3164 6.79599 37.3164 7.41699C37.3164 8.03799 36.8124 8.54199 36.1914 8.54199C35.5704 8.54199 35.0664 8.03799 35.0664 7.41699C35.0664 6.79599 35.5704 6.29199 36.1914 6.29199Z" fill="white"/>
<path fill-rule="evenodd" clip-rule="evenodd" d="M58.8428 38.7161V57.2513C58.1004 57.443 57.416 57.8305 56.8649 58.3828C56.3137 58.9352 55.927 59.621 55.7357 60.3649H14.6774C14.4862 59.621 14.0994 58.9352 13.5482 58.3828C12.9971 57.8305 12.3127 57.443 11.5703 57.2513V38.7161C12.3127 38.5245 12.9971 38.1369 13.5482 37.5846C14.0994 37.0323 14.4862 36.3465 14.6774 35.6025H55.7357C55.927 36.3465 56.3137 37.0323 56.8649 37.5846C57.416 38.1369 58.1004 38.5245 58.8428 38.7161Z" fill="white"/>
<path fill-rule="evenodd" clip-rule="evenodd" d="M47.4405 55.792V41.167H49.6905V53.542H55.3155V55.792H47.4405ZM37.3526 55.792V41.167H39.5655V53.542H45.1905V55.792H37.3526ZM27.1916 55.7864V41.167H35.0655V43.417H29.4416V46.792H35.0655V49.042H29.4416V53.542H35.0655V55.7864H27.1916ZM15.9844 52.6262L17.7799 51.7881C17.9497 52.4102 18.2614 52.885 18.7148 53.2112C19.1681 53.5386 19.7475 53.7017 20.4529 53.7017C21.1211 53.7017 21.6521 53.515 22.0447 53.1404C22.4385 52.7657 22.6354 52.264 22.6354 51.6362C22.6354 50.8184 21.9615 50.0882 20.6137 49.447C20.4247 49.3525 20.2796 49.2827 20.1795 49.2377C18.6551 48.4896 17.6393 47.8124 17.1319 47.206C16.6256 46.5996 16.3714 45.8594 16.3714 44.9841C16.3714 43.8479 16.7539 42.9276 17.52 42.2234C18.285 41.5191 19.2885 41.167 20.5294 41.167C21.5498 41.167 22.4025 41.365 23.0899 41.7621C23.7761 42.1581 24.252 42.7274 24.5164 43.4699L22.7591 44.3845C22.4813 43.9457 22.1775 43.6262 21.8467 43.4226C21.516 43.2201 21.1369 43.1177 20.7083 43.1177C20.1041 43.1177 19.6237 43.2764 19.2671 43.5936C18.9116 43.9109 18.7339 44.3361 18.7339 44.8694C18.7339 45.7064 19.5146 46.4871 21.0773 47.2105C21.1965 47.2679 21.291 47.3117 21.3607 47.3444C22.7276 47.9789 23.6659 48.5987 24.1755 49.2051C24.6863 49.8104 24.9416 50.5675 24.9416 51.4742C24.9416 52.7939 24.5287 53.8424 23.703 54.6197C22.8784 55.3971 21.7635 55.7864 20.3584 55.7864C19.1805 55.7864 18.2152 55.513 17.4626 54.9674C16.71 54.4217 16.2173 53.641 15.9844 52.6262Z" fill="#745891"/>
</svg>
