<svg width="63" height="63" viewBox="0 0 63 63" fill="none" xmlns="http://www.w3.org/2000/svg">
<g clip-path="url(#clip0_4437_47622)">
<path d="M52.8586 6.25317C51.6016 4.99355 49.9301 4.2998 48.1516 4.2998H45.1475V3.69434C45.1475 2.02506 43.7894 0.666992 42.1201 0.666992H20.3232C18.654 0.666992 17.2959 2.02506 17.2959 3.69434V4.2998H14.281C10.6166 4.2998 7.63202 7.28428 7.6279 10.9526L7.57813 55.9994C7.57619 57.7798 8.26727 59.454 9.52411 60.7136C10.7811 61.9732 12.4528 62.667 14.2313 62.667H48.1017C51.7662 62.667 54.7508 59.6825 54.7548 56.0142L54.8047 10.9673C54.8068 9.18691 54.1155 7.51266 52.8586 6.25317ZM20.9287 4.2998H41.5147V7.93262H20.9287V4.2998ZM51.1259 56.0101C51.1239 57.6777 49.7673 59.0342 48.1017 59.0342H14.2313C13.4228 59.0342 12.663 58.7189 12.0917 58.1463C11.5203 57.5737 11.2062 56.8127 11.2071 56.0036L11.2568 10.9567C11.2587 9.28911 12.6153 7.93262 14.281 7.93262H17.2959V8.53809C17.2959 10.2074 18.654 11.5654 20.3232 11.5654H42.1201C43.7894 11.5654 45.1475 10.2074 45.1475 8.53809V7.93262H48.1516C48.96 7.93262 49.7198 8.24795 50.2912 8.82048C50.8625 9.39301 51.1767 10.1541 51.1758 10.9632L51.1259 56.0101Z" fill="white"/>
<path d="M31.8086 24.8857H44.7137C45.7168 24.8857 46.5301 24.0725 46.5301 23.0693C46.5301 22.0662 45.7168 21.2529 44.7137 21.2529H31.8086C30.8055 21.2529 29.9922 22.0662 29.9922 23.0693C29.9922 24.0725 30.8055 24.8857 31.8086 24.8857Z" fill="white"/>
<path d="M31.8086 36.9951H44.7137C45.7168 36.9951 46.5301 36.1819 46.5301 35.1787C46.5301 34.1756 45.7168 33.3623 44.7137 33.3623H31.8086C30.8055 33.3623 29.9922 34.1756 29.9922 35.1787C29.9922 36.1819 30.8055 36.9951 31.8086 36.9951Z" fill="white"/>
<path d="M44.7656 45.4717H31.8086C30.8055 45.4717 29.9922 46.2849 29.9922 47.2881C29.9922 48.2912 30.8055 49.1045 31.8086 49.1045H44.7656C45.7688 49.1045 46.582 48.2912 46.582 47.2881C46.582 46.2849 45.7689 45.4717 44.7656 45.4717Z" fill="white"/>
<path d="M24.0781 18.1233L19.8892 22.3122L18.9016 21.3244C18.1922 20.6151 17.0422 20.6151 16.3328 21.3244C15.6234 22.0337 15.6234 23.1838 16.3328 23.8932L18.6049 26.1654C18.9455 26.506 19.4075 26.6975 19.8893 26.6975C20.371 26.6975 20.833 26.5062 21.1736 26.1654L26.647 20.6922C27.3563 19.983 27.3563 18.8328 26.647 18.1234C25.9376 17.414 24.7876 17.414 24.0781 18.1233Z" fill="white"/>
<path d="M24.0781 31.1579L19.8892 35.3468L18.9016 34.3591C18.1922 33.6498 17.0422 33.6498 16.3328 34.3591C15.6234 35.0684 15.6234 36.2184 16.3328 36.9279L18.6049 39.2001C18.9455 39.5407 19.4075 39.7322 19.8893 39.7322C20.371 39.7322 20.8331 39.5409 21.1736 39.2001L26.647 33.7268C27.3563 33.0175 27.3563 31.8674 26.647 31.158C25.9376 30.4486 24.7875 30.4487 24.0781 31.1579Z" fill="white"/>
<path d="M24.0781 43.2673L19.8892 47.4561L18.9016 46.4685C18.1922 45.7591 17.0422 45.7591 16.3328 46.4685C15.6234 47.1778 15.6234 48.3278 16.3328 49.0373L18.6049 51.3095C18.9455 51.6501 19.4075 51.8416 19.8893 51.8416C20.371 51.8416 20.8331 51.6502 21.1736 51.3095L26.647 45.8362C27.3563 45.1269 27.3563 43.9768 26.647 43.2674C25.9376 42.558 24.7875 42.558 24.0781 43.2673Z" fill="white"/>
</g>
<defs>
<clipPath id="clip0_4437_47622">
<rect width="62" height="62" fill="white" transform="translate(0.191406 0.666992)"/>
</clipPath>
</defs>
</svg>
