<svg width="73" height="73" viewBox="0 0 73 73" fill="none" xmlns="http://www.w3.org/2000/svg">
<g clip-path="url(#clip0_4437_47654)">
<path d="M69.0368 41.9703C67.6307 41.1338 65.8362 41.3587 64.68 42.5162L54.2549 52.9521C52.9781 54.2301 51.2458 54.9483 49.4393 54.9483H47.3835L46.4437 54.6929L46.434 54.6552C46.9917 53.4585 46.7853 51.9123 45.4977 50.9714L34.842 43.1842C31.5463 40.7757 27.28 40.1343 23.4218 41.4675L12.1328 45.3686L22.6685 64.2207H46.9643C52.5503 64.2207 57.8504 61.7501 61.4421 57.4718L69.9468 47.3413C71.3645 45.6531 70.9312 43.0971 69.0368 41.9703Z" fill="#9AA264"/>
<path d="M21.1191 67.5147L14.6311 71.2607L1.59766 48.6861L8.08569 44.9401C9.56816 44.0843 11.4638 44.5922 12.3196 46.0746L22.2537 63.2809C23.1094 64.7633 22.6014 66.6589 21.1191 67.5147Z" fill="#E4E9DF"/>
<path d="M14.6312 72.6669C14.5094 72.6669 14.3871 72.6512 14.2673 72.619C13.907 72.5224 13.5999 72.2868 13.4134 71.9638L0.380091 49.3892C-0.00831649 48.7166 0.222168 47.8567 0.894779 47.4683L7.38281 43.7223C9.53452 42.4802 12.2957 43.2201 13.5376 45.3716L23.4716 62.5779C24.0733 63.6201 24.2332 64.8344 23.9217 65.9969C23.6103 67.1595 22.8647 68.1312 21.8224 68.7328L15.3343 72.4788C15.1189 72.6031 14.876 72.6669 14.6312 72.6669ZM3.51871 49.2008L15.1459 69.3397L20.4162 66.2969C20.8079 66.0708 21.088 65.7057 21.205 65.2686C21.3221 64.8318 21.262 64.3755 21.0358 63.9839L11.1019 46.7777C10.6352 45.9691 9.59752 45.6912 8.78892 46.1579L3.51871 49.2008Z" fill="white"/>
<path d="M16.2695 65.0728C15.8997 65.0728 15.5369 64.9223 15.2753 64.6606C15.0138 64.3992 14.8633 64.0364 14.8633 63.6665C14.8633 63.2967 15.0138 62.9338 15.2753 62.6723C15.5369 62.4107 15.8997 62.2603 16.2695 62.2603C16.6408 62.2603 17.0022 62.4106 17.2638 62.6723C17.5267 62.9338 17.6758 63.2967 17.6758 63.6665C17.6758 64.0364 17.5267 64.3992 17.2638 64.6606C17.0022 64.9223 16.6394 65.0728 16.2695 65.0728Z" fill="white"/>
<path d="M28.7383 65.627C28.3684 65.627 28.0056 65.4766 27.7441 65.2149C27.4825 64.9534 27.332 64.5906 27.332 64.2207C27.332 63.8509 27.4825 63.488 27.7441 63.2266C28.0056 62.9651 28.3684 62.8145 28.7383 62.8145C29.1081 62.8145 29.4709 62.9649 29.7325 63.2266C29.9941 63.488 30.1445 63.8509 30.1445 64.2207C30.1445 64.5906 29.9941 64.9534 29.7325 65.2149C29.4709 65.4765 29.1081 65.627 28.7383 65.627Z" fill="white"/>
<path d="M46.9656 65.6266H34.6445C33.8679 65.6266 33.2383 64.9969 33.2383 64.2204C33.2383 63.4439 33.8679 62.8141 34.6445 62.8141H46.9656C52.149 62.8141 57.0333 60.5373 60.3663 56.5674L68.871 46.4369C69.2808 45.9487 69.4548 45.3084 69.3483 44.6801C69.2419 44.0516 68.8665 43.5045 68.3188 43.1786C67.4646 42.6706 66.378 42.8065 65.6759 43.5097L55.2508 53.9456C53.6993 55.4988 51.6357 56.3542 49.4403 56.3542H47.3845C46.6078 56.3542 45.9782 55.7245 45.9782 54.948C45.9782 54.1715 46.6078 53.5417 47.3845 53.5417H49.4403C50.8839 53.5417 52.2408 52.9792 53.2609 51.9579L63.686 41.5219C65.2989 39.9074 67.7954 39.5948 69.7567 40.7613C71.0147 41.5096 71.8766 42.7666 72.1212 44.2098C72.3659 45.6532 71.9663 47.124 71.025 48.2451L62.5203 58.3756C58.6517 62.9839 52.9822 65.6266 46.9656 65.6266Z" fill="white"/>
<path d="M43.7371 57.7714C43.0614 57.7714 42.3844 57.6122 41.7796 57.3109L32.0375 52.4585C31.8674 52.3736 31.6768 52.3289 31.4868 52.3289H28.8936C28.1169 52.3289 27.4873 51.6992 27.4873 50.9226C27.4873 50.1461 28.1169 49.5164 28.8936 49.5164H31.4868C32.1098 49.5164 32.7337 49.6632 33.2915 49.9411L43.0336 54.7935C43.2508 54.9018 43.4943 54.959 43.7371 54.959C44.7995 54.959 45.1541 54.1259 45.2374 53.8705C45.3207 53.6153 45.526 52.7336 44.6683 52.1068L33.6783 44.075C30.9652 42.0922 27.4492 41.5637 24.273 42.6612L12.5926 46.6974C11.8584 46.9518 11.0578 46.5618 10.8041 45.8276C10.5504 45.0934 10.9398 44.2928 11.674 44.0392L23.3543 40.0028C27.401 38.6043 31.8809 39.2776 35.3377 41.8042L46.3277 49.8357C47.8899 50.9775 48.5115 52.9037 47.9109 54.7431C47.3105 56.5828 45.6721 57.7714 43.7371 57.7714Z" fill="white"/>
<path d="M62.0659 37.9327H10.3164C9.69513 37.9327 9.19141 37.429 9.19141 36.8077V32.3091H63.1908V36.8077C63.1909 37.429 62.6872 37.9327 62.0659 37.9327Z" fill="#9AA264"/>
<path d="M63.1903 32.3077H9.19141V3.30659C9.19141 2.62568 9.74336 2.07373 10.4243 2.07373H61.9574C62.6383 2.07373 63.1903 2.62568 63.1903 3.30659V32.3077Z" fill="#E4E9DF"/>
<path d="M54.2012 32.3093C54.1996 27.3648 58.2329 23.3622 63.1887 23.4131C63.1894 23.4138 63.1898 23.4142 63.1906 23.415V32.3093H54.2012Z" fill="#9AA264"/>
<path d="M54.2012 2.07373C54.1996 7.01826 58.2329 11.0209 63.1887 10.97C63.1894 10.9693 63.1898 10.9688 63.1906 10.968V3.30659C63.1906 2.62568 62.6387 2.07373 61.9578 2.07373H54.2012Z" fill="#9AA264"/>
<path d="M18.0853 2.07485C18.0868 6.96678 14.0964 10.9269 9.19337 10.8764C9.19267 10.8757 9.19225 10.8753 9.19141 10.8745V3.30757C9.19141 2.62666 9.74336 2.07471 10.4243 2.07471L18.0853 2.07485Z" fill="#E4E9DF"/>
<path d="M18.1809 2.07373C18.1824 7.01826 14.1492 11.0209 9.19337 10.97C9.19267 10.9693 9.19225 10.9688 9.19141 10.968V3.30659C9.19141 2.62568 9.74336 2.07373 10.4243 2.07373H18.1809Z" fill="#9AA264"/>
<path d="M18.1809 32.3093C18.1824 27.3648 14.1492 23.3622 9.19337 23.4131C9.19267 23.4138 9.19225 23.4142 9.19141 23.415V32.3093H18.1809Z" fill="#9AA264"/>
<path d="M36.16 23.8391C40.1985 23.8391 43.4724 20.5652 43.4724 16.5267C43.4724 12.4882 40.1985 9.21436 36.16 9.21436C32.1215 9.21436 28.8477 12.4882 28.8477 16.5267C28.8477 20.5652 32.1215 23.8391 36.16 23.8391Z" fill="#9AA264"/>
<path d="M24.2637 15.1191C23.8938 15.1191 23.531 15.2696 23.2695 15.5326C23.0079 15.794 22.8574 16.1555 22.8574 16.5268C22.8574 16.8966 23.0079 17.2595 23.2695 17.5209C23.531 17.7824 23.8938 17.9331 24.2637 17.9331C24.6335 17.9331 24.9963 17.7826 25.2579 17.5209C25.5195 17.2579 25.6699 16.8966 25.6699 16.5268C25.6699 16.1568 25.5195 15.794 25.2579 15.5326C24.9963 15.2697 24.6337 15.1191 24.2637 15.1191Z" fill="white"/>
<path d="M48.1191 15.1191C47.7493 15.1191 47.3865 15.2696 47.1249 15.5326C46.8634 15.794 46.7129 16.1555 46.7129 16.5268C46.7129 16.8966 46.8634 17.2595 47.1249 17.5209C47.3865 17.7824 47.7493 17.9331 48.1191 17.9331C48.4904 17.9331 48.8518 17.7826 49.1134 17.5209C49.3763 17.2579 49.5254 16.8966 49.5254 16.5268C49.5254 16.1568 49.3763 15.794 49.1134 15.5326C48.8517 15.2697 48.4888 15.1191 48.1191 15.1191Z" fill="white"/>
<path d="M36.16 7.80762C31.3525 7.80762 27.4414 11.7188 27.4414 16.5262C27.4414 21.3337 31.3526 25.2449 36.16 25.2449C40.9675 25.2449 44.8787 21.3337 44.8787 16.5262C44.8787 11.7188 40.9675 7.80762 36.16 7.80762ZM36.16 22.4325C32.9033 22.4325 30.2538 19.783 30.2538 16.5262C30.2538 13.2695 32.9033 10.62 36.16 10.62C39.4168 10.62 42.0662 13.2695 42.0662 16.5262C42.0662 19.783 39.4165 22.4325 36.16 22.4325Z" fill="white"/>
<path d="M64.5962 10.9826C64.5962 10.9776 64.5969 10.9726 64.5969 10.9677C64.5969 10.9628 64.5962 10.9577 64.5962 10.9528V3.30659C64.5962 1.8514 63.4124 0.66748 61.9571 0.66748H10.4243C8.96908 0.66748 7.78516 1.8514 7.78516 3.30659V32.3079C7.78516 32.3082 7.78516 32.3083 7.78516 32.3086C7.78516 32.3089 7.78516 32.309 7.78516 32.3093V36.8079C7.78516 38.2036 8.92071 39.3391 10.3164 39.3391H40.5504C41.3271 39.3391 41.9567 38.7094 41.9567 37.9329C41.9567 37.1564 41.3271 36.5266 40.5504 36.5266H10.5977V33.7155H61.7847V36.5266H52.7148C51.9381 36.5266 51.3085 37.1564 51.3085 37.9329C51.3085 38.7094 51.9381 39.3391 52.7148 39.3391H62.066C63.4617 39.3391 64.5972 38.2036 64.5972 36.8079V32.3093C64.5972 32.3042 64.5965 32.2993 64.5965 32.2944V10.9826H64.5962ZM61.7839 22.1078C57.2282 22.7329 53.6144 26.3464 52.9887 30.9016H19.3928C18.7671 26.3461 15.1532 22.7327 10.5975 22.1078V12.2783C15.1546 11.6531 18.7694 8.03751 19.3932 3.48013H52.989C53.6141 8.03596 57.2279 11.65 61.7837 12.2754L61.7839 22.1078ZM61.7839 24.9561V30.9016H55.837C56.4107 27.8997 58.7816 25.5292 61.7839 24.9561ZM10.5977 24.9561C13.6 25.5292 15.971 27.8997 16.5446 30.9016H10.5977V24.9561ZM61.7839 9.42703C58.7814 8.85356 56.4106 6.48262 55.8374 3.47999H61.7839V9.42703ZM16.5451 3.48013C15.9729 6.48416 13.6013 8.85665 10.5975 9.43012V3.48013H16.5451Z" fill="white"/>
<path d="M46.7285 36.5264C46.3587 36.5264 45.9959 36.6767 45.7343 36.9384C45.4727 37.2001 45.3223 37.5628 45.3223 37.9326C45.3223 38.3025 45.4727 38.6653 45.7343 38.9267C45.9959 39.1883 46.3587 39.3389 46.7285 39.3389C47.0984 39.3389 47.4612 39.1884 47.7227 38.9267C47.9843 38.6653 48.1348 38.3025 48.1348 37.9326C48.1348 37.5628 47.9843 37.2 47.7227 36.9384C47.4612 36.6767 47.0985 36.5264 46.7285 36.5264Z" fill="white"/>
</g>
<defs>
<clipPath id="clip0_4437_47654">
<rect width="72" height="72" fill="white" transform="translate(0.191406 0.666992)"/>
</clipPath>
</defs>
</svg>
