<svg width="126" height="129" viewBox="0 0 126 129" fill="none" xmlns="http://www.w3.org/2000/svg">
<g clip-path="url(#clip0_4802_10673)">
<path fill-rule="evenodd" clip-rule="evenodd" d="M118.473 91.3072C118.473 111.969 101.723 128.72 81.0614 128.72C75.1014 128.72 69.4664 127.326 64.4654 124.847C59.4754 127.312 53.8184 128.72 47.8754 128.72C27.2134 128.72 10.4634 111.97 10.4634 91.3072C10.4634 70.6442 27.2134 53.8942 47.8764 53.8942C53.8394 53.8942 59.4564 55.2822 64.4594 57.7542C69.4614 55.2822 75.0974 53.8942 81.0614 53.8942C101.723 53.8942 118.473 70.6442 118.473 91.3072ZM111.089 91.3072C111.089 74.7232 97.6454 61.2772 81.0614 61.2772C77.9034 61.2772 74.8584 61.7672 71.9994 62.6702C77.7344 67.4672 81.9114 73.8822 83.9534 81.3042L76.2034 81.3222C74.0164 75.1152 69.8484 69.8602 64.4554 66.2822C59.0754 69.8602 54.9154 75.1252 52.7324 81.3222L44.9924 81.3042C47.0304 73.9022 51.2824 67.4302 56.9924 62.6372C54.1404 61.7372 51.0374 61.2772 47.8824 61.2772C31.3024 61.2772 17.8524 74.7232 17.8524 91.3072C17.8524 107.891 31.3004 121.335 47.8824 121.335C51.0124 121.335 54.0324 120.855 56.8724 119.965C49.4324 113.708 44.5924 104.592 43.7724 94.3182H61.5724V101.658L52.9124 101.778C55.1424 107.773 59.2394 112.865 64.4904 116.348C69.7624 112.864 73.8004 107.788 76.0384 101.778L67.3784 101.658V94.3182H85.1784C84.3614 104.594 79.4014 113.668 71.9564 119.928C74.8324 120.842 77.8964 121.335 81.0734 121.335C97.6574 121.335 111.101 107.891 111.101 91.3072H111.089ZM124.619 25.9572C123.633 25.9572 122.647 25.3772 122.647 23.7522V4.43221C122.647 2.80921 123.633 2.22921 124.619 2.22921C125.549 2.22921 125.549 1.35921 124.619 1.35921H116.091C115.163 1.35921 115.163 2.22921 116.091 2.22921C117.078 2.22921 118.064 2.80922 118.064 4.42921V23.7492C118.064 25.3692 117.078 25.9492 116.092 25.9492C115.172 25.9492 115.172 27.1092 116.092 27.1092H124.622C125.552 27.1092 125.552 25.9492 124.622 25.9492L124.619 25.9572ZM30.5394 2.23021C31.5264 2.23021 32.5134 2.81021 32.5134 4.43521V17.1102C32.5134 23.1832 37.2614 27.6402 43.3334 27.6402C49.4054 27.6402 54.3274 23.1832 54.3274 17.1102L54.4424 4.43521C54.4424 2.81121 55.4324 2.23021 56.4224 2.23021C57.3524 2.23021 57.3524 1.36021 56.4224 1.36021H50.5024C49.5784 1.36021 49.5784 2.23021 50.5024 2.23021C51.4924 2.23021 52.4784 2.81021 52.4784 4.43521L52.6814 17.7202C52.6814 22.0022 49.2114 26.3442 44.9284 26.3442C40.6464 26.3442 37.1464 22.8742 37.1464 18.5902L37.1544 4.43521C37.1544 2.81121 38.1404 2.23021 39.1264 2.23021C40.0564 2.23021 40.0564 1.36021 39.1264 1.36021H30.5414C29.6114 1.36021 29.6114 2.23021 30.5414 2.23021H30.5394ZM101.253 27.4652C104.966 27.4652 109.781 25.4922 112.333 23.6352V18.8802C112.333 18.2422 111.927 18.1262 111.695 18.9402C111.463 19.7502 108.505 25.9002 102.297 26.0742C96.0894 26.2482 92.0274 20.5042 92.0274 14.0072C92.0274 7.50921 96.2644 2.41421 102.529 2.28721C108.329 2.17221 110.651 7.56721 110.709 8.43721C110.709 9.01721 111.347 9.07722 111.347 8.43721V3.33221C108.911 1.70721 104.907 0.720215 100.963 0.720215C97.0184 0.720215 87.2714 3.33021 87.2714 14.2382C87.2714 25.1442 97.5414 27.4652 101.253 27.4652ZM72.4634 27.4652C76.1774 27.4652 80.9934 25.4922 83.5454 23.6352V18.8802C83.5454 18.2422 83.1394 18.1262 82.9074 18.9402C82.6754 19.7502 79.7174 25.9002 73.5074 26.0742C67.3014 26.2482 63.2394 20.5042 63.2394 14.0072C63.2394 7.50921 67.4754 2.41421 73.7394 2.28721C79.5424 2.17221 81.8634 7.56721 81.9214 8.43721C81.9214 9.01721 82.5584 9.07722 82.5584 8.43721V3.33221C80.1214 1.70721 76.1184 0.720215 72.1744 0.720215C68.2294 0.720215 58.4814 3.33021 58.4814 14.2382C58.4814 25.1442 68.7504 27.4652 72.4634 27.4652ZM14.6734 27.4652C10.9584 27.4652 0.691406 25.1452 0.691406 14.2382C0.691406 3.33121 10.4664 0.982215 14.4114 0.982215C18.3564 0.982215 22.5614 1.70721 24.9994 3.33221V8.43721C24.9994 9.07521 24.1294 9.01721 24.1294 8.43721C24.0694 7.56721 21.7494 2.34521 15.9494 2.46121C9.68341 2.59121 5.44941 7.51122 5.44941 14.0112C5.44941 20.5112 9.56741 26.0812 15.7744 25.9012C17.7904 25.8512 19.8944 25.2112 20.9144 24.3612L20.9384 18.7112C20.9384 17.0882 19.9524 16.5082 18.9654 16.5082C18.3274 16.5082 18.3274 15.5812 18.9654 15.5812H27.4354C28.0734 15.5812 28.0734 16.5672 27.4354 16.5112C26.4494 16.5112 25.4634 17.0912 25.4634 18.7132V24.5132C23.3754 26.3732 18.3854 27.4732 14.6734 27.4732V27.4652Z" fill="#222B33"/>
</g>
<defs>
<clipPath id="clip0_4802_10673">
<rect width="125" height="128" fill="white" transform="translate(0.691406 0.720215)"/>
</clipPath>
</defs>
</svg>
