<svg width="135" height="71" viewBox="0 0 135 71" fill="none" xmlns="http://www.w3.org/2000/svg">
<g clip-path="url(#clip0_4802_5725)">
<path d="M108.664 2.00584H108.87C109.008 2.00584 109.106 1.98488 109.163 1.93878C109.22 1.89268 109.247 1.834 109.247 1.7638C109.247 1.69255 109.221 1.63493 109.168 1.58987C109.115 1.53749 109.021 1.51653 108.895 1.51653H108.673V1.9985L108.664 2.00584ZM108.187 1.18858H109.044C109.287 1.18858 109.463 1.23783 109.572 1.33527C109.681 1.43481 109.736 1.56578 109.736 1.73027C109.736 1.8602 109.694 1.97126 109.61 2.06556C109.528 2.15986 109.397 2.22901 109.219 2.27092C109.292 2.29187 109.345 2.32331 109.381 2.35474C109.43 2.39665 109.481 2.45952 109.533 2.54334L109.846 3.09865H109.28C109.095 2.73193 108.972 2.51505 108.91 2.4438C108.847 2.37255 108.784 2.33902 108.721 2.33902C108.707 2.33902 108.688 2.33902 108.663 2.34426V3.09865H108.181V1.18858H108.187ZM110.447 2.14938C110.447 1.74913 110.306 1.40756 110.024 1.12467C109.741 0.841772 109.4 0.700325 109 0.700325C108.602 0.700325 108.267 0.84282 107.984 1.12467C107.701 1.40756 107.565 1.74913 107.565 2.14938C107.565 2.54753 107.707 2.89015 107.989 3.17304C108.272 3.45594 108.613 3.59738 109.012 3.59738C109.413 3.59738 109.753 3.45594 110.036 3.17304C110.319 2.89015 110.461 2.54858 110.461 2.14938H110.447ZM110.796 2.14938C110.796 2.47104 110.716 2.76965 110.555 3.04731C110.396 3.32497 110.178 3.54395 109.9 3.70426C109.622 3.86352 109.324 3.94315 109.001 3.94315C108.682 3.94315 108.383 3.86352 108.106 3.70426C107.829 3.54395 107.61 3.32497 107.449 3.04731C107.292 2.76965 107.208 2.47104 107.208 2.14938C107.208 1.82981 107.292 1.5312 107.449 1.25249C107.617 0.97379 107.837 0.754808 108.109 0.594501C108.392 0.426859 108.686 0.353516 109.011 0.353516C109.333 0.353516 109.633 0.426859 109.912 0.594501C110.188 0.751665 110.407 0.971695 110.567 1.24411C110.728 1.51967 110.808 1.82038 110.808 2.1389L110.796 2.14938ZM22.2339 44.9473H22.4434C22.5817 44.9473 22.6792 44.9263 22.7368 44.8792C22.7923 44.8352 22.8206 44.7765 22.8206 44.7063C22.8206 44.633 22.7934 44.5764 22.7399 44.5324C22.6844 44.4863 22.5933 44.4643 22.4623 44.4643H22.2349V44.9462L22.2339 44.9473ZM21.7603 44.13H22.6174C22.8604 44.13 23.0365 44.1793 23.1454 44.2767C23.2534 44.3762 23.3078 44.5072 23.3078 44.6728C23.3078 44.8006 23.2659 44.9137 23.1842 45.008C23.1004 45.1023 22.9694 45.1694 22.7913 45.2124C22.8646 45.2407 22.9191 45.271 22.9547 45.3014C23.0019 45.3454 23.0543 45.4114 23.1067 45.4963L23.4189 46.0516H22.8531C22.675 45.688 22.5493 45.468 22.4864 45.3978C22.4235 45.3266 22.3607 45.2899 22.2978 45.2899C22.2873 45.2899 22.2664 45.2899 22.2454 45.2972V46.0516H21.7718V44.13H21.7603ZM24.0203 45.0908C24.0203 44.6906 23.8778 44.3501 23.596 44.0672C23.3131 43.7843 22.9726 43.6428 22.5734 43.6428C22.1752 43.6428 21.8336 43.7832 21.5507 44.0672C21.2678 44.3501 21.1274 44.6906 21.1274 45.0908C21.1274 45.489 21.2678 45.8326 21.5507 46.1155C21.8336 46.3984 22.1742 46.5399 22.5734 46.5399C22.9715 46.5399 23.3131 46.3974 23.596 46.1155C23.8789 45.8326 24.0203 45.49 24.0203 45.0908ZM24.3692 45.0908C24.3692 45.4125 24.2896 45.7111 24.1282 45.9888C23.969 46.2664 23.7489 46.4854 23.4713 46.6457C23.1989 46.8133 22.895 46.8867 22.5807 46.8867C22.2664 46.8867 21.9625 46.8133 21.6901 46.6457C21.4135 46.4885 21.1935 46.2685 21.0331 45.9961C20.8739 45.7216 20.7922 45.4198 20.7922 45.1013C20.7922 44.7807 20.8739 44.4831 21.0331 44.2044C21.1935 43.9257 21.4135 43.7067 21.6911 43.5475C21.9698 43.3882 22.2674 43.3065 22.588 43.3065C22.9086 43.3065 23.2062 43.3882 23.4849 43.5475C23.7636 43.7078 23.9836 43.9247 24.145 44.2055C24.3022 44.4863 24.3839 44.7817 24.3839 45.1065L24.3692 45.0908ZM18.0659 36.714H26.4501L32.4852 20.8666L31.8146 36.714H40.7028L54.2849 0.367137H45.9866L39.7807 16.4241L40.7866 0.367137H31.8157L18.0659 36.714ZM55.6281 0.367137L42.1277 36.714H50.5119L64.0919 0.367137H55.626H55.6281ZM75.4968 34.1993L87.6561 1.32898L74.7414 15.0819L75.4958 34.1983L75.4968 34.1993ZM16.8274 24.5128C16.8274 24.5128 13.3698 31.0529 13.3698 36.7129C13.3698 36.7129 13.0555 50.0509 26.8273 50.0509H28.7132C28.7132 50.0509 31.4793 50.931 79.1441 36.7234H67.0718L66.4431 21.7561L60.7831 36.7182H52.1056L65.8145 0.37028H74.1148L70.3429 10.8081L79.2698 0.369232H105.43L103.165 6.40643H94.236L91.4699 14.0781H99.7703L97.13 20.8676H88.9553L85.6863 29.7967H95.4954L94.7411 32.437C94.7411 32.437 130.331 23.2565 134.103 22.2507C134.103 22.2507 32.6696 70.3199 16.0678 70.3199C16.0678 70.3199 0.0391557 70.4173 0.0391557 57.3381C0.0391557 57.3381 -1.78395 45.1401 16.8285 24.5138L16.8274 24.5128Z" fill="#222B33"/>
</g>
<defs>
<clipPath id="clip0_4802_5725">
<rect width="134.113" height="70.2" fill="white" transform="translate(-0.00976562 0.354492)"/>
</clipPath>
</defs>
</svg>
