<svg width="155" height="24" viewBox="0 0 155 24" fill="none" xmlns="http://www.w3.org/2000/svg">
<g clip-path="url(#clip0_4802_10212)">
<path d="M102.239 3.82988C97.8617 3.82988 94.7897 7.28588 94.7897 11.6891C94.7897 16.0923 97.8873 19.5739 102.316 19.5739C106.694 19.5739 109.766 16.1179 109.766 11.7147C109.74 7.31148 106.642 3.82988 102.239 3.82988ZM102.239 23.1323C95.4553 23.1323 90.7193 18.0891 90.7193 11.7147C90.7193 5.36588 95.5065 0.271484 102.316 0.271484C109.1 0.271484 113.862 5.31468 113.862 11.6891C113.836 18.0379 109.023 23.1323 102.239 23.1323ZM30.3801 3.82988C26.0025 3.82988 22.9561 7.28588 22.9561 11.6891C22.9561 16.0923 26.0537 19.5739 30.4313 19.5739C34.8089 19.5739 37.8809 16.1179 37.8809 11.7147C37.8809 7.31148 34.7833 3.82988 30.3801 3.82988ZM30.3801 23.1323C23.5961 23.1323 18.8345 18.0891 18.8345 11.7147C18.8345 5.36588 23.6217 0.271484 30.4313 0.271484C37.2153 0.271484 41.9769 5.31468 41.9769 11.6891C41.9769 18.0379 37.1897 23.1323 30.3801 23.1323ZM53.2409 22.7483L47.2505 6.90188V22.7483H43.4105V0.655484H48.9401L54.3417 14.8635L59.7177 0.655484H65.2217V22.7483H61.3305V6.87628L55.3145 22.7483H53.2409ZM142.713 4.18828H138.361V19.2155H142.713C147.398 19.2155 150.393 16.1691 150.393 11.7403C150.393 7.36268 147.5 4.18828 142.713 4.18828ZM142.713 22.7483H134.47V0.629884H142.764C149.881 0.629884 154.463 5.26348 154.463 11.6635C154.463 17.9099 149.958 22.7483 142.713 22.7483ZM124.281 4.18828H119.135V10.6907H124.306C127.302 10.6907 128.991 9.41068 128.991 7.33708C129.017 4.90508 127.174 4.18828 124.281 4.18828ZM129.478 22.7483L123.999 14.1979H119.135V22.7227H115.27V0.604284H125.049C130.194 0.604284 132.985 3.03628 132.985 7.15788C132.985 10.9211 130.86 12.8411 128.146 13.4811L134.034 22.6971L129.478 22.7483ZM90.3609 4.18828H77.7913V10.6907H89.3881V14.2235H77.7913V22.7483H73.9001V0.629884H90.3609V4.18828ZM12.3065 22.7483H8.38968V4.18828H0.863281V0.629884H19.7561V4.18828H12.3065V22.7483Z" fill="#222B33"/>
</g>
<defs>
<clipPath id="clip0_4802_10212">
<rect width="153.651" height="22.8864" fill="white" transform="translate(0.867188 0.271973)"/>
</clipPath>
</defs>
</svg>
